<svg width="60" height="61" viewBox="0 0 60 61" fill="none" xmlns="http://www.w3.org/2000/svg">
<path d="M59.2376 30.4141C59.2376 45.7744 48.148 58.4728 33.7429 60.534C32.3955 60.7266 31.0173 60.8264 29.6188 60.8264C28.0036 60.8264 26.4192 60.6933 24.8739 60.4377C10.7723 58.1067 0 45.5502 0 30.4123C0 13.616 13.2607 0 29.6188 0C45.9768 0 59.2376 13.616 59.2376 30.4123V30.4141Z" fill="#FCF2E8"/>
<path d="M45.808 21.3935V27.6846C44.7351 27.5784 43.3465 27.3281 41.8046 26.7479C39.7937 25.9914 38.2962 24.9562 37.3175 24.1542V36.8728L37.2935 36.8329C37.3101 37.0851 37.3175 37.3411 37.3175 37.6008C37.3175 43.9184 32.3133 49.0586 26.1587 49.0586C20.0042 49.0586 15 43.9165 15 37.6008C15 31.2851 20.0042 26.1412 26.1587 26.1412C26.7607 26.1412 27.3516 26.1905 27.9296 26.2853V32.4872C27.3738 32.2825 26.7792 32.1725 26.1587 32.1725C23.2449 32.1725 20.8721 34.607 20.8721 37.6008C20.8721 40.5947 23.2449 43.0292 26.1587 43.0292C29.0726 43.0292 31.4455 40.5928 31.4455 37.6008C31.4455 37.489 31.4436 37.3771 31.4362 37.2652V12.5486H37.5612C37.5834 13.0813 37.6056 13.6179 37.6259 14.1507C37.6665 15.1992 38.0303 16.206 38.6636 17.0308C39.4078 17.9996 40.5047 19.1259 42.0484 20.0246C43.4924 20.8646 44.8478 21.2248 45.808 21.3954V21.3935Z" fill="#00AB41"/>
</svg>
