<svg width="60" height="61" viewBox="0 0 60 61" fill="none" xmlns="http://www.w3.org/2000/svg">
<path d="M59.2376 30.4141C59.2376 45.7744 48.148 58.4728 33.7429 60.534C32.3955 60.7266 31.0174 60.8264 29.6188 60.8264C28.0037 60.8264 26.4192 60.6933 24.8739 60.4377C10.7723 58.1067 0 45.5502 0 30.4123C0 13.616 13.2608 0 29.6188 0C45.9769 0 59.2376 13.616 59.2376 30.4123V30.4141Z" fill="#FCF2E8"/>
<path d="M38.8936 12.1572H20.3422C15.217 12.1572 11.0486 16.4373 11.0486 21.6998V39.1266C11.0486 44.3891 15.217 48.6692 20.3422 48.6692H38.8936C44.0188 48.6692 48.1872 44.3891 48.1872 39.1266V21.6998C48.1872 16.4373 44.0188 12.1572 38.8936 12.1572ZM14.3267 21.6998C14.3267 18.2936 17.0249 15.5231 20.3422 15.5231H38.8936C42.2109 15.5231 44.9091 18.2936 44.9091 21.6998V39.1266C44.9091 42.5328 42.2109 45.3033 38.8936 45.3033H20.3422C17.0249 45.3033 14.3267 42.5328 14.3267 39.1266V21.6998Z" fill="#00AB41"/>
<path d="M37.2298 14H21.2453C16.8292 14 13.2375 17.8684 13.2375 22.6247V38.3753C13.2375 43.1316 16.8292 47 21.2453 47H37.2298C41.6459 47 45.2375 43.1316 45.2375 38.3753V22.6247C45.2375 17.8684 41.6459 14 37.2298 14Z" fill="#00AB41"/>
<path d="M29.6171 39.2912C34.3841 39.2912 38.2626 35.3088 38.2626 30.4141C38.2626 25.5193 34.3841 21.537 29.6171 21.537C24.85 21.537 20.9716 25.5193 20.9716 30.4141C20.9716 35.3088 24.85 39.2912 29.6171 39.2912ZM29.6171 24.9046C32.5762 24.9046 34.9828 27.3757 34.9828 30.4141C34.9828 33.4525 32.5762 35.9235 29.6171 35.9235C26.6579 35.9235 24.2514 33.4525 24.2514 30.4141C24.2514 27.3757 26.6579 24.9046 29.6171 24.9046Z" fill="#FCF2E8"/>
<path d="M39.0642 22.9695C40.3484 22.9695 41.3939 21.896 41.3939 20.5773C41.3939 19.2586 40.3484 18.1851 39.0642 18.1851C37.7799 18.1851 36.7344 19.2586 36.7344 20.5773C36.7344 21.896 37.7799 22.9695 39.0642 22.9695Z" fill="#FCF2E8"/>
</svg>
