<svg width="60" height="61" viewBox="0 0 60 61" fill="none" xmlns="http://www.w3.org/2000/svg">
<path d="M59.2376 30.4141C59.2376 45.7744 48.148 58.4728 33.7429 60.534C32.3955 60.7266 31.0174 60.8264 29.6188 60.8264C28.0037 60.8264 26.4192 60.6933 24.8739 60.4377C10.7723 58.1067 0 45.5502 0 30.4123C0 13.616 13.2608 0 29.6188 0C45.9769 0 59.2376 13.616 59.2376 30.4123V30.4141Z" fill="#FCF2E8"/>
<path d="M33.7428 24.4195V31.0445H41.7249L40.461 39.9707H33.7428V60.534C32.3954 60.7266 31.0173 60.8264 29.6188 60.8264C28.0036 60.8264 26.4191 60.6933 24.8739 60.4376V39.9707H17.5127V31.0445H24.8739V22.9397C24.8739 17.9101 28.8444 13.8314 33.7445 13.8314V13.8367C33.7582 13.8367 33.7718 13.8314 33.7855 13.8314H41.7266V21.5492H36.5383C34.9947 21.5492 33.7445 22.8329 33.7445 24.4178L33.7428 24.4195Z" fill="#00AB41"/>
</svg>
