<svg width="60" height="61" viewBox="0 0 60 61" fill="none" xmlns="http://www.w3.org/2000/svg">
<path d="M59.2376 30.4141C59.2376 45.7744 48.148 58.4728 33.7428 60.534C32.3954 60.7266 31.0173 60.8265 29.6187 60.8265C28.0036 60.8265 26.4191 60.6933 24.8739 60.4377C10.7723 58.1067 0 45.5502 0 30.4124C0 13.616 13.2607 0 29.6187 0C45.9768 0 59.2376 13.616 59.2376 30.4124V30.4141Z" fill="#FCF2E8"/>
<path d="M39.352 25.3261C39.3485 25.753 39.3028 26.1763 39.2658 26.6013C39.2534 26.7424 39.2482 26.8835 39.2464 27.0246C39.2411 27.2688 39.4313 27.4876 39.6674 27.4731C39.7801 27.4659 39.8946 27.4352 40.0039 27.3972C40.3667 27.267 40.7243 27.1259 41.0837 26.9848C41.4096 26.8564 41.7407 26.7388 42.079 26.6447C42.4454 26.5416 42.8118 26.4657 43.187 26.529C43.9463 26.6556 44.4395 27.4967 44.1647 28.2347C44.0872 28.4427 43.9674 28.6199 43.8247 28.7845C43.6292 29.0088 43.4037 29.2005 43.1606 29.3706C42.8752 29.5695 42.5846 29.7631 42.2957 29.9584C41.8148 30.284 41.3321 30.606 40.8529 30.9352C40.6538 31.0708 40.4601 31.2155 40.2716 31.3656C40.1677 31.4488 40.0691 31.5429 39.981 31.6442C39.8119 31.8377 39.7185 32.0855 39.7326 32.3442C39.7467 32.6173 39.7943 32.885 39.8665 33.1491C40.0955 33.9685 40.4425 34.7318 40.867 35.4607C42.0015 37.4052 43.6081 38.9245 45.5229 40.1654C46.0479 40.5054 46.6116 40.7822 47.163 41.0752C47.2405 41.1168 47.318 41.1602 47.3937 41.2054C47.4713 41.2525 47.5364 41.314 47.5874 41.3899C47.665 41.5039 47.6756 41.6233 47.6104 41.7499C47.554 41.8566 47.473 41.938 47.3832 42.0139C47.2828 42.099 47.1735 42.1695 47.0625 42.2346C46.416 42.6108 45.7219 42.8912 45.0032 43.0884C44.6562 43.1824 44.3092 43.2855 43.9639 43.3886C43.7507 43.4537 43.5517 43.5496 43.3544 43.6545C43.0232 43.8318 42.8347 44.1121 42.7642 44.4811C42.7255 44.6855 42.7008 44.8935 42.6656 45.0997C42.5757 45.617 42.3926 45.8088 41.8958 45.8974C41.7214 45.9281 41.5435 45.9462 41.3674 45.9571C40.9252 45.9824 40.4813 45.9951 40.0391 46.0204C40.0268 46.0204 40.0145 46.0204 40.0021 46.0222C38.2335 46.1289 36.5229 46.7114 35.0062 47.6501C34.9252 47.7008 34.8442 47.7496 34.7649 47.8002C34.1502 48.1819 33.5265 48.5437 32.8553 48.8114C32.1067 49.1098 31.3334 49.2871 30.5336 49.3612C29.8589 49.4245 29.186 49.4155 28.5166 49.3377C27.5125 49.2219 26.5594 48.9217 25.6592 48.4478C25.2417 48.2271 24.8383 47.9811 24.4367 47.7297C24.4138 47.7152 24.3927 47.7026 24.3698 47.6881C22.7756 46.6915 20.9646 46.0891 19.1009 46.0113C19.0885 46.0113 19.0745 46.0113 19.0621 46.0113C18.6728 45.9969 18.2817 45.9788 17.8924 45.9553C17.6634 45.9408 17.4362 45.9119 17.2142 45.8486C16.9306 45.769 16.7245 45.514 16.6699 45.2173C16.64 45.0545 16.6153 44.8917 16.5871 44.7289C16.5818 44.6927 16.5801 44.6566 16.5748 44.6204C16.5096 44.1447 16.2806 43.7938 15.8437 43.5912C15.576 43.4682 15.3029 43.3669 15.0211 43.2855C14.5349 43.1462 14.0451 43.0251 13.5695 42.8496C13.152 42.6959 12.7469 42.5132 12.3575 42.2961C12.2413 42.231 12.1285 42.1586 12.0175 42.0827C11.9453 42.032 11.8749 41.9742 11.815 41.909C11.6194 41.701 11.6388 41.4261 11.859 41.247C11.9876 41.1421 12.1374 41.0734 12.2836 41.001C13.2965 40.491 14.2565 39.8922 15.1514 39.185C16.5008 38.1178 17.644 36.8553 18.509 35.3323C18.8173 34.7879 19.0727 34.2109 19.2823 33.6194C19.4215 33.2287 19.5343 32.8344 19.5607 32.4238C19.5801 32.1217 19.4814 31.8197 19.2788 31.599C19.1344 31.4416 18.9635 31.3132 18.7926 31.1866C18.5371 31.0003 18.28 30.8158 18.0175 30.6385C17.4591 30.2605 16.8954 29.8879 16.3352 29.5116C16.0904 29.347 15.8543 29.1698 15.6412 28.9618C15.4861 28.8117 15.3487 28.6471 15.2378 28.4571C15.007 28.061 14.9893 27.6522 15.162 27.2344C15.2641 26.9848 15.4544 26.7731 15.694 26.661C16.0357 26.5 16.3898 26.4801 16.7492 26.5416C17.135 26.6068 17.5067 26.7297 17.8731 26.8654C18.2483 27.0047 18.6182 27.1548 18.9917 27.2995C19.1661 27.3664 19.3405 27.4334 19.5254 27.4623C19.5695 27.4695 19.6135 27.4822 19.6558 27.4804C19.8707 27.4732 20.0486 27.4026 20.0468 27.106C20.0468 26.9631 20.0416 26.8184 20.0345 26.6755C20.0028 25.9628 19.9605 25.2502 19.9447 24.5375C19.9059 22.8409 19.913 21.1352 20.3445 19.4856C20.6088 18.4763 21.0686 17.5375 21.6852 16.7055C22.9676 14.9745 24.6605 13.8765 26.6845 13.2905C27.7908 12.9703 28.9217 12.8636 30.0667 12.8998C31.1501 12.9342 32.2282 13.1223 33.25 13.4895C34.4655 13.9254 35.57 14.5585 36.5089 15.4556C37.5764 16.4758 38.399 17.6677 38.8447 19.1111C39.0455 19.7641 39.1741 20.4316 39.2517 21.1099C39.4137 22.5117 39.3697 23.9207 39.3556 25.3279L39.352 25.3261Z" fill="#00AB41"/>
</svg>
