<svg width="59" height="61" viewBox="0 0 59 61" fill="none" xmlns="http://www.w3.org/2000/svg">
<path d="M25.1007 58.2221L25.1003 58.222C12.0433 56.0638 2 44.4117 2 30.2904C2 14.6158 14.3616 2 29.5 2C44.6383 2 57 14.6158 57 30.2904V30.2921C57 44.6214 46.6613 56.4029 33.3245 58.3113C32.0758 58.4899 30.7978 58.5825 29.5 58.5825C28.0014 58.5825 26.5325 58.459 25.1007 58.2221Z" fill="#FCF2E8" stroke="#00AB41" stroke-width="4"/>
<path d="M44.2773 21.1213V27.3093C43.222 27.2049 41.8561 26.9587 40.3395 26.388C38.3615 25.6439 36.8885 24.6256 35.9258 23.8367V36.3471L35.9022 36.3079C35.9186 36.556 35.9258 36.8077 35.9258 37.0632C35.9258 43.2774 31.0035 48.3334 24.9497 48.3334C18.8959 48.3334 13.9736 43.2756 13.9736 37.0632C13.9736 30.8509 18.8959 25.7912 24.9497 25.7912C25.5418 25.7912 26.1231 25.8397 26.6916 25.9329V32.0334C26.1449 31.8319 25.56 31.7238 24.9497 31.7238C22.0835 31.7238 19.7496 34.1184 19.7496 37.0632C19.7496 40.0081 22.0835 42.4027 24.9497 42.4027C27.8159 42.4027 30.1499 40.0062 30.1499 37.0632C30.1499 36.9532 30.1481 36.8432 30.1408 36.7331V12.4211H36.1656C36.1874 12.9451 36.2092 13.4729 36.2292 13.997C36.2691 15.0283 36.6269 16.0186 37.2499 16.8299C37.9819 17.7829 39.0608 18.8907 40.5793 19.7747C41.9996 20.6009 43.3328 20.9553 44.2773 21.1231V21.1213Z" fill="#00AB41"/>
</svg>
