<svg width="59" height="61" viewBox="0 0 59 61" fill="none" xmlns="http://www.w3.org/2000/svg">
<path d="M25.1007 58.2221L25.1003 58.222C12.0433 56.0638 2 44.4117 2 30.2904C2 14.6158 14.3616 2 29.5 2C44.6383 2 57 14.6158 57 30.2904V30.2921C57 44.6214 46.6613 56.4029 33.3245 58.3113C32.0758 58.4899 30.7978 58.5825 29.5 58.5825C28.0014 58.5825 26.5325 58.459 25.1007 58.2221Z" fill="#FCF2E8" stroke="#00AB41" stroke-width="4"/>
<path d="M29.2361 32.1189C30.9326 32.1189 32.5597 31.4237 33.7593 30.1863C34.959 28.9489 35.6329 27.2706 35.6329 25.5206C35.6329 23.7707 34.959 22.0924 33.7593 20.855C32.5597 19.6176 30.9326 18.9224 29.2361 18.9224C27.5395 18.9224 25.9125 19.6176 24.7128 20.855C23.5132 22.0924 22.8392 23.7707 22.8392 25.5206C22.8392 27.2706 23.5132 28.9489 24.7128 30.1863C25.9125 31.4237 27.5395 32.1189 29.2361 32.1189ZM29.2361 32.1189C26.6913 32.1189 24.2507 33.1616 22.4512 35.0178C20.6518 36.8739 19.6408 39.3913 19.6408 42.0163V46.9649M29.2361 32.1189C31.7809 32.1189 34.2215 33.1616 36.021 35.0178C37.8204 36.8739 38.8314 39.3913 38.8314 42.0163V46.9649M30.8353 18.9224C31.4814 16.1775 34.0577 13.9737 37.2321 13.9737C40.7056 13.9737 43.597 16.9264 43.629 20.5719C43.597 24.2175 40.7056 27.1702 37.2321 27.1702M37.2321 27.1702H35.6329M37.2321 27.1702C42.4903 27.1702 46.8274 31.6009 46.8274 37.0676V40.3667M27.6369 18.9224C26.9908 16.1775 24.4145 13.9737 21.24 13.9737C17.7666 13.9737 14.8752 16.9264 14.8432 20.5719C14.8752 24.2175 17.7666 27.1702 21.24 27.1702M21.24 27.1702H22.8392M21.24 27.1702C15.9818 27.1702 11.6448 31.6009 11.6448 37.0676V40.3667" stroke="#00AB41" stroke-width="4"/>
</svg>
