<svg width="65" height="65" viewBox="0 0 65 65" fill="none" xmlns="http://www.w3.org/2000/svg">
<path d="M62 32.5C62 36.374 61.237 40.2102 59.7545 43.7893C58.272 47.3684 56.099 50.6207 53.3597 53.36C50.6204 56.0994 47.3683 58.2723 43.7892 59.7548C40.2101 61.2373 36.374 62 32.5 62C28.626 62 24.7899 61.2373 21.2108 59.7548C17.6317 58.2723 14.3797 56.0994 11.6404 53.36C8.90105 50.6207 6.72809 47.3684 5.24558 43.7893C3.76307 40.2102 2.99999 36.374 3 32.5C2.99999 28.626 3.76307 24.7903 5.24558 21.2112C6.72809 17.6321 8.90105 14.3798 11.6404 11.6405C14.3797 8.90117 17.6317 6.72823 21.2108 5.24571C24.7899 3.7632 28.626 3 32.5 3C36.374 3 40.2101 3.7632 43.7892 5.24571C47.3683 6.72823 50.6204 8.90117 53.3597 11.6405C56.099 14.3798 58.272 17.6321 59.7545 21.2112C61.237 24.7903 62 28.626 62 32.5Z" fill="#FCF2E8"/>
<path d="M41.7372 24.3092C41.7372 29.4108 37.6016 33.5465 32.5001 33.5465C27.3986 33.5465 23.263 29.4108 23.263 24.3092C23.263 19.2078 27.3986 15.0719 32.5001 15.0719C37.6016 15.0719 41.7372 19.2078 41.7372 24.3092Z" fill="#FCF2E8"/>
<path d="M19.7493 49.337C19.7493 45.1685 23.1051 41.813 27.2735 41.813H37.7267C41.8951 41.813 45.2508 45.1685 45.2508 49.337" fill="#FCF2E8"/>
<path d="M19.7493 49.337C19.7493 45.1685 23.1051 41.813 27.2735 41.813H37.7267C41.8951 41.813 45.2508 45.1685 45.2508 49.337M62 32.5C62 36.374 61.237 40.2102 59.7545 43.7893C58.272 47.3684 56.099 50.6207 53.3597 53.36C50.6204 56.0994 47.3683 58.2723 43.7892 59.7548C40.2101 61.2373 36.374 62 32.5 62C28.626 62 24.7899 61.2373 21.2108 59.7548C17.6317 58.2723 14.3797 56.0994 11.6404 53.36C8.90105 50.6207 6.72809 47.3684 5.24558 43.7893C3.76307 40.2102 2.99999 36.374 3 32.5C2.99999 28.626 3.76307 24.7903 5.24558 21.2112C6.72809 17.6321 8.90105 14.3798 11.6404 11.6405C14.3797 8.90117 17.6317 6.72823 21.2108 5.24571C24.7899 3.7632 28.626 3 32.5 3C36.374 3 40.2101 3.7632 43.7892 5.24571C47.3683 6.72823 50.6204 8.90117 53.3597 11.6405C56.099 14.3798 58.272 17.6321 59.7545 21.2112C61.237 24.7903 62 28.626 62 32.5ZM41.7372 24.3092C41.7372 29.4108 37.6016 33.5465 32.5001 33.5465C27.3986 33.5465 23.263 29.4108 23.263 24.3092C23.263 19.2078 27.3986 15.0719 32.5001 15.0719C37.6016 15.0719 41.7372 19.2078 41.7372 24.3092Z" stroke="#00AB41" stroke-width="5" stroke-linecap="round" stroke-linejoin="round"/>
</svg>
