<svg width="59" height="61" viewBox="0 0 59 61" fill="none" xmlns="http://www.w3.org/2000/svg">
<path d="M25.1007 58.2221L25.1003 58.222C12.0433 56.0638 2 44.4117 2 30.2904C2 14.6158 14.3617 2 29.5 2C44.6384 2 57 14.6158 57 30.2904V30.2921C57 44.6214 46.6613 56.4029 33.3245 58.3113C32.0758 58.4899 30.7978 58.5825 29.5 58.5825C28.0015 58.5825 26.5325 58.459 25.1007 58.2221Z" fill="#FCF2E8" stroke="#00AB41" stroke-width="4"/>
<path d="M38.6032 12.4211H20.1253C15.0204 12.4211 10.8685 16.6836 10.8685 21.9246V39.2801C10.8685 44.5211 15.0204 48.7837 20.1253 48.7837H38.6032C43.7081 48.7837 47.86 44.5211 47.86 39.2801V21.9246C47.86 16.6836 43.7081 12.4211 38.6032 12.4211ZM14.1336 21.9246C14.1336 18.5324 16.8211 15.7732 20.1253 15.7732H38.6032C41.9074 15.7732 44.5949 18.5324 44.5949 21.9246V39.2801C44.5949 42.6724 41.9074 45.4315 38.6032 45.4315H20.1253C16.8211 45.4315 14.1336 42.6724 14.1336 39.2801V21.9246Z" fill="#00AB41"/>
<path d="M36.9468 14.2563H21.0255C16.627 14.2563 13.0496 18.1089 13.0496 22.8457V38.5319C13.0496 43.2687 16.627 47.1213 21.0255 47.1213H36.9468C41.3453 47.1213 44.9228 43.2687 44.9228 38.5319V22.8457C44.9228 18.1089 41.3453 14.2563 36.9468 14.2563Z" fill="#00AB41"/>
<path d="M29.3632 39.4441C34.1114 39.4441 37.9744 35.478 37.9744 30.6032C37.9744 25.7285 34.1114 21.7624 29.3632 21.7624C24.6151 21.7624 20.752 25.7285 20.752 30.6032C20.752 35.478 24.6151 39.4441 29.3632 39.4441ZM29.3632 25.1163C32.3106 25.1163 34.7076 27.5772 34.7076 30.6032C34.7076 33.6292 32.3106 36.0902 29.3632 36.0902C26.4158 36.0902 24.0187 33.6292 24.0187 30.6032C24.0187 27.5772 26.4158 25.1163 29.3632 25.1163Z" fill="#FCF2E8"/>
<path d="M38.7725 23.1891C40.0517 23.1891 41.093 22.12 41.093 20.8067C41.093 19.4934 40.0517 18.4243 38.7725 18.4243C37.4933 18.4243 36.4519 19.4934 36.4519 20.8067C36.4519 22.12 37.4933 23.1891 38.7725 23.1891Z" fill="#FCF2E8"/>
</svg>
