<svg width="59" height="61" viewBox="0 0 59 61" fill="none" xmlns="http://www.w3.org/2000/svg">
<path d="M25.1007 58.2221L25.1003 58.222C12.0433 56.0638 2 44.4117 2 30.2904C2 14.6158 14.3617 2 29.5 2C44.6384 2 57 14.6158 57 30.2904V30.2921C57 44.6214 46.6613 56.4029 33.3245 58.3113C32.0758 58.4899 30.7978 58.5825 29.5 58.5825C28.0015 58.5825 26.5325 58.459 25.1007 58.2221Z" fill="#FCF2E8" stroke="#00AB41" stroke-width="4"/>
<path d="M33.6075 24.3217V30.9201H41.5575L40.2988 39.8105H33.6075V60.2913C32.2655 60.4831 30.893 60.5826 29.5 60.5826C27.8913 60.5826 26.3132 60.45 24.7742 60.1953V39.8105H17.4425V30.9201H24.7742V22.8478C24.7742 17.8384 28.7288 13.776 33.6092 13.776V13.7813C33.6228 13.7813 33.6364 13.776 33.65 13.776H41.5592V21.4629H36.3918C34.8544 21.4629 33.6092 22.7414 33.6092 24.3199L33.6075 24.3217Z" fill="#00AB41"/>
</svg>
