<svg width="146" height="144" viewBox="0 0 146 144" fill="none" xmlns="http://www.w3.org/2000/svg">
<path d="M144.5 71.6357C144.5 110.311 112.516 141.713 73 141.713C33.4837 141.713 1.5 110.311 1.5 71.6357C1.5 32.9608 33.4837 1.55847 73 1.55847C112.516 1.55847 144.5 32.9608 144.5 71.6357Z" fill="#00AB41" stroke="#FCF2E8" stroke-width="3"/>
<path d="M129.9 71.6358C129.9 102.404 104.453 127.398 73.0001 127.398C41.5471 127.398 16.1001 102.404 16.1001 71.6358C16.1001 40.8671 41.5471 15.874 73.0001 15.874C104.453 15.874 129.9 40.8671 129.9 71.6358Z" fill="#FCF2E8" stroke="#FCF2E8" stroke-width="3"/>
<path d="M18.25 71.6357H32.85" stroke="#00AB41" stroke-width="3" stroke-linecap="round"/>
<path d="M113.15 71.6357H127.75" stroke="#00AB41" stroke-width="3" stroke-linecap="round"/>
<path d="M73 17.9528V32.2682" stroke="#00AB41" stroke-width="3" stroke-linecap="round"/>
<path d="M73 111.003V125.318" stroke="#00AB41" stroke-width="3" stroke-linecap="round"/>
<path d="M47.4943 46.6917L62.0421 82.3524C62.0473 82.3651 62.0574 82.375 62.0701 82.38L98.4416 96.6451C98.4825 96.6611 98.5227 96.6203 98.5061 96.5796L83.9583 60.9189C83.9531 60.9062 83.943 60.8962 83.9302 60.8912L47.5588 46.6262C47.5179 46.6102 47.4777 46.651 47.4943 46.6917Z" fill="#B03711" stroke="#FCF2E8" stroke-width="3" stroke-linecap="round"/>
<path d="M80.3002 64.4779L65.7002 78.7933" stroke="#FCF2E8" stroke-width="3" stroke-linecap="round"/>
</svg>
