<svg width="149" height="37" viewBox="0 0 149 37" fill="none" xmlns="http://www.w3.org/2000/svg">
<rect width="149" height="37" fill="#302718"/>
<path d="M18.5 8L20.8574 15.2553H28.4861L22.3143 19.7394L24.6717 26.9947L18.5 22.5106L12.3283 26.9947L14.6857 19.7394L8.51391 15.2553H16.1426L18.5 8Z" fill="#FCF2E8"/>
<path d="M41.5981 8L43.9555 15.2553H51.5842L45.4125 19.7394L47.7699 26.9947L41.5981 22.5106L35.4264 26.9947L37.7838 19.7394L31.6121 15.2553H39.2407L41.5981 8Z" fill="#FCF2E8"/>
<path d="M64.7056 8L67.063 15.2553H74.6917L68.5199 19.7394L70.8773 26.9947L64.7056 22.5106L58.5338 26.9947L60.8912 19.7394L54.7195 15.2553H62.3482L64.7056 8Z" fill="#FCF2E8" fill-opacity="0.6"/>
<path d="M87.8037 8L90.1611 15.2553H97.7898L91.6181 19.7394L93.9755 26.9947L87.8037 22.5106L81.632 26.9947L83.9894 19.7394L77.8176 15.2553H85.4463L87.8037 8Z" fill="#FCF2E8" fill-opacity="0.6"/>
<path d="M114.536 23.736L114.528 25H107.464V13.536H114.528V14.8H109.016V18.608H113.48V19.824H109.016V23.736H114.536ZM120.661 21.352C120.005 21.3733 119.445 21.4267 118.981 21.512C118.522 21.592 118.146 21.6987 117.853 21.832C117.565 21.9653 117.354 22.1227 117.221 22.304C117.093 22.4853 117.029 22.688 117.029 22.912C117.029 23.1253 117.063 23.3093 117.133 23.464C117.202 23.6187 117.295 23.7467 117.413 23.848C117.535 23.944 117.677 24.016 117.837 24.064C118.002 24.1067 118.178 24.128 118.365 24.128C118.615 24.128 118.845 24.104 119.053 24.056C119.261 24.0027 119.455 23.928 119.637 23.832C119.823 23.736 119.999 23.6213 120.165 23.488C120.335 23.3547 120.501 23.2027 120.661 23.032V21.352ZM116.061 18.04C116.509 17.608 116.991 17.2853 117.509 17.072C118.026 16.8587 118.599 16.752 119.229 16.752C119.682 16.752 120.085 16.8267 120.437 16.976C120.789 17.1253 121.085 17.3333 121.325 17.6C121.565 17.8667 121.746 18.1893 121.869 18.568C121.991 18.9467 122.053 19.3627 122.053 19.816V25H121.421C121.282 25 121.175 24.9787 121.101 24.936C121.026 24.888 120.967 24.7973 120.925 24.664L120.765 23.896C120.551 24.0933 120.343 24.2693 120.141 24.424C119.938 24.5733 119.725 24.7013 119.501 24.808C119.277 24.9093 119.037 24.9867 118.781 25.04C118.53 25.0987 118.25 25.128 117.941 25.128C117.626 25.128 117.33 25.0853 117.053 25C116.775 24.9093 116.533 24.776 116.325 24.6C116.122 24.424 115.959 24.2027 115.837 23.936C115.719 23.664 115.661 23.344 115.661 22.976C115.661 22.656 115.749 22.3493 115.925 22.056C116.101 21.7573 116.386 21.4933 116.781 21.264C117.175 21.0347 117.69 20.848 118.325 20.704C118.959 20.5547 119.738 20.4693 120.661 20.448V19.816C120.661 19.1867 120.525 18.712 120.253 18.392C119.981 18.0667 119.583 17.904 119.061 17.904C118.709 17.904 118.413 17.9493 118.173 18.04C117.938 18.1253 117.733 18.224 117.557 18.336C117.386 18.4427 117.237 18.5413 117.109 18.632C116.986 18.7173 116.863 18.76 116.741 18.76C116.645 18.76 116.562 18.736 116.493 18.688C116.423 18.6347 116.365 18.5707 116.317 18.496L116.061 18.04ZM128.942 18.232C128.878 18.3493 128.779 18.408 128.646 18.408C128.566 18.408 128.475 18.3787 128.374 18.32C128.272 18.2613 128.147 18.1973 127.998 18.128C127.854 18.0533 127.68 17.9867 127.478 17.928C127.275 17.864 127.035 17.832 126.758 17.832C126.518 17.832 126.302 17.864 126.11 17.928C125.918 17.9867 125.752 18.0693 125.614 18.176C125.48 18.2827 125.376 18.408 125.302 18.552C125.232 18.6907 125.198 18.8427 125.198 19.008C125.198 19.216 125.256 19.3893 125.374 19.528C125.496 19.6667 125.656 19.7867 125.854 19.888C126.051 19.9893 126.275 20.08 126.526 20.16C126.776 20.2347 127.032 20.3173 127.294 20.408C127.56 20.4933 127.819 20.5893 128.07 20.696C128.32 20.8027 128.544 20.936 128.742 21.096C128.939 21.256 129.096 21.4533 129.214 21.688C129.336 21.9173 129.398 22.1947 129.398 22.52C129.398 22.8933 129.331 23.24 129.198 23.56C129.064 23.8747 128.867 24.1493 128.606 24.384C128.344 24.6133 128.024 24.7947 127.646 24.928C127.267 25.0613 126.83 25.128 126.334 25.128C125.768 25.128 125.256 25.0373 124.798 24.856C124.339 24.6693 123.95 24.432 123.63 24.144L123.966 23.6C124.008 23.5307 124.059 23.4773 124.118 23.44C124.176 23.4027 124.251 23.384 124.342 23.384C124.438 23.384 124.539 23.4213 124.646 23.496C124.752 23.5707 124.88 23.6533 125.03 23.744C125.184 23.8347 125.371 23.9173 125.59 23.992C125.808 24.0667 126.08 24.104 126.406 24.104C126.683 24.104 126.926 24.0693 127.134 24C127.342 23.9253 127.515 23.8267 127.654 23.704C127.792 23.5813 127.894 23.44 127.958 23.28C128.027 23.12 128.062 22.9493 128.062 22.768C128.062 22.544 128 22.36 127.878 22.216C127.76 22.0667 127.603 21.9413 127.406 21.84C127.208 21.7333 126.982 21.6427 126.726 21.568C126.475 21.488 126.216 21.4053 125.95 21.32C125.688 21.2347 125.43 21.1387 125.174 21.032C124.923 20.92 124.699 20.7813 124.502 20.616C124.304 20.4507 124.144 20.248 124.022 20.008C123.904 19.7627 123.846 19.4667 123.846 19.12C123.846 18.8107 123.91 18.5147 124.038 18.232C124.166 17.944 124.352 17.6933 124.598 17.48C124.843 17.2613 125.144 17.088 125.502 16.96C125.859 16.832 126.267 16.768 126.726 16.768C127.259 16.768 127.736 16.8533 128.158 17.024C128.584 17.1893 128.952 17.4187 129.262 17.712L128.942 18.232ZM137.995 16.896L133.475 27.392C133.427 27.4987 133.366 27.584 133.291 27.648C133.222 27.712 133.112 27.744 132.963 27.744H131.907L133.387 24.528L130.043 16.896H131.275C131.398 16.896 131.494 16.928 131.563 16.992C131.638 17.0507 131.688 17.1173 131.715 17.192L133.883 22.296C133.968 22.52 134.04 22.7547 134.099 23C134.174 22.7493 134.254 22.512 134.339 22.288L136.443 17.192C136.475 17.1067 136.528 17.0373 136.603 16.984C136.683 16.9253 136.771 16.896 136.867 16.896H137.995Z" fill="#FCF2E8"/>
</svg>
