<?xml version="1.0" encoding="UTF-8"?>
<svg id="Layer_2" data-name="Layer 2" xmlns="http://www.w3.org/2000/svg" viewBox="0 0 174 192.05">
  <defs>
    <style>
      .cls-1 {
        font-family: PEOPLEBOOKRegular, 'PEOPLE BOOK';
        font-size: 40px;
      }

      .cls-1, .cls-2 {
        fill: #fff;
      }

      .cls-2, .cls-3 {
        stroke-width: 0px;
      }

      .cls-3 {
        fill: #00e863;
      }
    </style>
  </defs>
  <g id="Layer_1-2" data-name="Layer 1">
    <path class="cls-3" d="M14.2,37.62L72.8,3.82c8.8-5.1,19.6-5.1,28.4,0l58.6,33.8c8.8,5.1,14.2,14.4,14.2,24.6v67.6c0,10.1-5.4,19.5-14.2,24.6l-58.6,33.8c-8.8,5.1-19.6,5.1-28.4,0l-58.6-33.8c-8.8-5-14.2-14.4-14.2-24.6V62.23c0-10.1,5.4-19.5,14.2-24.6"/>
    <text class="cls-1" transform="translate(2.96 89.47)"><tspan x="0" y="0">VildEre</tspan></text>
    <path class="cls-2" d="M31.89,105.81c.11-.4.43-.8,1.08-.8h.97c.43,0,.86.2.97.5l12.96,25.64h.22l12.96-25.64c.22-.3.43-.5.97-.5h.97c.65,0,.97.4,1.08.8l6.91,36.55c.22.8-.32,1.2-1.08,1.2h-5.51c-.54,0-.97-.4-1.08-.8l-3.46-20.63h-.22l-10.26,21.33c-.11.3-.43.6-.97.6h-1.08c-.54,0-.86-.3-.97-.6l-10.37-21.33h-.22l-3.46,20.63c-.11.4-.54.8-1.08.8h-5.29c-.76,0-1.19-.5-1.08-1.2,0,0,7.02-36.55,7.02-36.55Z"/>
    <path class="cls-2" d="M74.68,142.16l18.26-36.65c.22-.3.43-.6.97-.6h.54c.54,0,.86.3.97.6l18.04,36.65c.32.7-.11,1.4-.97,1.4h-5.08c-.86,0-1.3-.3-1.73-1.1l-2.92-5.91h-17.39l-2.92,5.91c-.22.5-.76,1.1-1.73,1.1h-5.08c-.86.1-1.3-.6-.97-1.4ZM100.06,130.65l-5.83-12.02h-.22l-5.73,12.02h11.78Z"/>
    <path class="cls-2" d="M117.78,106.61c0-.5.43-1,1.08-1h13.94c11.34,0,20.63,8.51,20.63,19.03s-9.29,19.13-20.63,19.13h-13.94c-.54,0-1.08-.5-1.08-1,0,0,0-36.15,0-36.15ZM132.04,136.95c7.67,0,13.18-5.31,13.18-12.42s-5.62-12.42-13.18-12.42h-6.7v24.84s6.7,0,6.7,0Z"/>
  </g>
</svg>