<svg width="57" height="57" viewBox="0 0 57 57" fill="none" xmlns="http://www.w3.org/2000/svg">
<path d="M17.0459 43.6247C17.0459 39.8802 20.0605 36.8659 23.805 36.8659H33.1952C36.9396 36.8659 39.9541 39.8802 39.9541 43.6247M55 28.5C55 31.98 54.3146 35.4261 52.9828 38.6412C51.6511 41.8564 49.6991 44.7779 47.2384 47.2387C44.7776 49.6994 41.8562 51.6514 38.6411 52.9831C35.426 54.3149 31.98 55 28.5 55C25.02 55 21.574 54.3149 18.3589 52.9831C15.1438 51.6514 12.2224 49.6994 9.76169 47.2387C7.30094 44.7779 5.34897 41.8564 4.01722 38.6412C2.68547 35.4261 2 31.98 2 28.5C2 25.02 2.68547 21.5744 4.01722 18.3592C5.34897 15.1441 7.30094 12.2226 9.76169 9.76181C12.2224 7.30105 15.1438 5.34909 18.3589 4.01734C21.574 2.68558 25.02 2 28.5 2C31.98 2 35.426 2.68559 38.6411 4.01734C41.8562 5.34909 44.7776 7.30105 47.2384 9.76181C49.6991 12.2226 51.6511 15.1441 52.9828 18.3592C54.3146 21.5744 55 25.02 55 28.5ZM36.7978 21.1422C36.7978 25.7249 33.0828 29.4401 28.5001 29.4401C23.9174 29.4401 20.2024 25.7249 20.2024 21.1422C20.2024 16.5596 23.9174 12.8443 28.5001 12.8443C33.0828 12.8443 36.7978 16.5596 36.7978 21.1422Z" stroke="#FCF2E8" stroke-width="3" stroke-linecap="round" stroke-linejoin="round"/>
</svg>
