<?xml version="1.0" encoding="UTF-8"?>
<svg id="Layer_2" data-name="Layer 2" xmlns="http://www.w3.org/2000/svg" viewBox="0 0 1935.62 1086.81">
  <defs>
    <style>
      .cls-1 {
        fill: #fff;
        stroke-width: 0px;
      }
    </style>
  </defs>
  <g id="Layer_1-2" data-name="Layer 1">
    <path class="cls-1" d="M0,0v1086.81h1935.62V0H0ZM1553.15,566.9c-.34.57-.7,1.13-1.07,1.69-14.12,21.38-41.48,28.83-66.44,34.66-73.36,17.14-146.71,34.28-220.07,51.42-29.31,6.85-59.45,14.07-83.94,31.57-24.48,17.5-42.18,48.06-35.51,77.41,7.91,34.83,47.24,61.58,40.67,96.68-3.31,17.7-18.42,31.35-35.18,37.94-38.57,15.17-90.59,15.25-131.54,21.42-49.88,7.51-99.75,15.03-149.63,22.54-53.55,8.07-107.63,16.16-161.63,12.2-54.01-3.95-108.71-21.04-148.67-57.58-67.42-61.65-65.61-180.26-33.32-259.41,20.11-49.28,51.25-93.18,83.07-135.85,15.22-20.41,31.47-46.12,21.41-69.51-30.25-70.31-161.27-96.45-227.22-91.32-18.76,1.46-39.29,4.4-55.01-5.94-20.24-13.31-22.61-42.28-17.67-65.99,18.78-90.08,95.52-126.1,178.21-138.02,189.8-27.36,386.98-37.5,579.15-11.97,97.36,12.93,193.48,34.89,286.57,66.25,140.07,47.19,185.99,195.06,187.7,330.07.23,17.8-.71,36.62-9.9,51.75Z"/>
  </g>
</svg>