<svg width="47" height="47" viewBox="0 0 47 47" fill="none" xmlns="http://www.w3.org/2000/svg">
<path fill-rule="evenodd" clip-rule="evenodd" d="M39.4805 31.6396C39.8842 31.2333 40.5387 31.2333 40.9425 31.6396C41.3462 32.0459 41.3462 32.7046 40.9425 33.1109L40.2115 33.8465C39.2368 38.7508 38.0185 41.9386 36.5565 43.4099C34.3635 45.6169 31.2651 45.4414 29.2465 43.4099C27.2279 41.3785 27.0535 38.2604 29.2465 36.0535C30.7085 34.5822 33.8762 33.3561 38.7495 32.3752L39.4805 31.6396ZM3.58946 31.2239C3.87493 30.7263 4.50719 30.5558 5.00164 30.8431L5.89692 31.3633C10.8564 31.0414 14.2315 31.4006 16.022 32.441C18.7079 34.0015 19.3414 37.0588 17.914 39.5468C16.4866 42.0348 13.539 43.0113 10.8531 41.4508C9.06255 40.4104 7.06589 37.6486 4.86314 33.1652L3.96785 32.6451C3.4734 32.3578 3.30399 31.7215 3.58946 31.2239ZM24.5355 10.075C25.1065 10.075 25.5693 10.5408 25.5693 11.1154V12.1557C28.3261 16.3172 29.7045 19.4383 29.7045 21.519C29.7045 24.6401 27.3902 26.7208 24.5355 26.7208C21.6808 26.7208 19.3666 24.6401 19.3666 21.519C19.3666 19.4383 20.745 16.3172 23.5017 12.1557V11.1154C23.5017 10.5408 23.9646 10.075 24.5355 10.075ZM38.4675 7.33898C41.225 6.59542 43.9954 8.00247 44.7981 11.0172C45.3332 13.027 44.8045 16.4008 43.212 21.1385L43.4795 22.1434C43.6273 22.6984 43.3 23.2689 42.7485 23.4176C42.197 23.5663 41.6302 23.2369 41.4824 22.6819L41.2148 21.677C37.4818 18.3754 35.3477 15.7197 34.8125 13.7099C34.0098 10.6951 35.7101 8.08253 38.4675 7.33898ZM9.9288 2.00186L10.1355 2.03571C10.687 2.18442 11.0142 2.75489 10.8665 3.30989L10.5989 4.3148C12.1915 9.05249 12.7202 12.4263 12.1851 14.4361C11.3824 17.4508 8.61191 18.8579 5.85447 18.1143C3.09702 17.3708 1.3968 14.7582 2.19949 11.7434C2.73461 9.7336 4.86871 7.07788 8.60179 3.77627L8.86936 2.77136C9.01713 2.21636 9.58399 1.887 10.1355 2.03571L9.9288 2.00186Z" stroke="#B03711" stroke-width="3" stroke-linecap="round"/>
</svg>
