<svg width="47" height="47" viewBox="0 0 47 47" fill="none" xmlns="http://www.w3.org/2000/svg">
<path d="M24.0024 37.282V45" stroke="#B03711" stroke-width="3" stroke-linecap="round" stroke-linejoin="round"/>
<path d="M2.27457 35.2513L1.18345 34.222L1.18345 34.222L2.27457 35.2513ZM18.4305 18.125V16.625C18.0175 16.625 17.6228 16.7953 17.3394 17.0957L18.4305 18.125ZM44.7274 35.2513L43.6363 36.2806L43.6363 36.2806L44.7274 35.2513ZM28.5715 18.125L29.6626 17.0957C29.3792 16.7953 28.9844 16.625 28.5715 16.625V18.125ZM3.36569 36.2806L19.5216 19.1543L17.3394 17.0957L1.18345 34.222L3.36569 36.2806ZM3.00199 35.4375C3.44044 35.4375 3.66656 35.9617 3.36569 36.2806L1.18345 34.222C-0.320902 35.8167 0.809689 38.4375 3.00199 38.4375V35.4375ZM44 35.4375H3.00199V38.4375H44V35.4375ZM43.6363 36.2806C43.3354 35.9617 43.5615 35.4375 44 35.4375V38.4375C46.1923 38.4375 47.3229 35.8167 45.8185 34.222L43.6363 36.2806ZM27.4803 19.1543L43.6363 36.2806L45.8185 34.222L29.6626 17.0957L27.4803 19.1543ZM28.5715 16.625H18.4305V19.625H28.5715V16.625Z" fill="#B03711"/>
<path d="M6.00857 16.7776L23.3344 2L40.6603 16.7776C41.3676 17.3809 40.941 18.5385 40.0113 18.5385H6.65751C5.7279 18.5385 5.30128 17.3809 6.00857 16.7776Z" stroke="#B03711" stroke-width="3" stroke-linecap="round" stroke-linejoin="round"/>
</svg>
