<svg width="47" height="47" viewBox="0 0 47 47" fill="none" xmlns="http://www.w3.org/2000/svg">
<path fill-rule="evenodd" clip-rule="evenodd" d="M24.0361 15.8628C29.7223 12.3158 37.6762 12.782 42.7378 17.0926L43.4339 17.6855C44.5304 18.6193 45.0969 19.9126 44.9864 21.2298C44.776 23.7384 42.2176 25.6267 39.2721 25.4475L26.3429 24.661C26.2962 24.6581 26.2497 24.6548 26.2032 24.6509C26.3194 25.158 26.4234 25.6711 26.5199 26.1851L26.0345 28.1298C25.1023 31.8982 25.395 35.8117 26.8812 39.4488L27.1015 39.9879C27.1888 40.2017 27.292 40.4069 27.4096 40.603C27.0221 42.5408 25.4091 44.1761 23.1631 44.8137C20.9416 45.4444 18.5404 44.4219 17.7999 42.5299L17.7089 42.2638L17.1898 40.4953C16.445 37.9582 15.2499 35.5348 13.6476 33.3083L13.0278 32.4827C11.1214 30.0474 9.87967 27.2795 9.39365 24.3821L8.33881 18.0937C8.09842 16.6606 8.29715 15.2445 8.85973 13.9563L22.8354 15.4443C23.2042 15.4836 23.5731 15.4913 23.9373 15.4689L24.0361 15.8628ZM23.1631 16.4524C20.8624 18.1319 20.596 21.0817 22.568 23.0411C23.5218 23.9888 24.8811 24.572 26.3429 24.661L39.2721 25.4475C42.2176 25.6267 44.776 23.7384 44.9864 21.2298C45.0969 19.9126 44.5304 18.6193 43.4339 17.6855L42.7378 17.0926C37.4114 12.5565 28.8823 12.2775 23.1631 16.4524ZM26.8598 24.7956L38.3142 25.5705C38.2644 25.917 38.1727 26.2641 38.0366 26.6071L37.8013 27.2533C36.8667 30.0693 37.0372 33.0754 38.2997 35.8103L38.5044 36.2941C39.4205 38.8146 38.0092 41.5582 35.1481 42.6726L34.8285 42.7971C34.6665 42.8603 34.501 42.9168 34.3327 42.9667C31.37 43.8447 28.1324 42.5111 27.1015 39.9879L26.8812 39.4488C25.395 35.8117 25.1023 31.8982 26.0345 28.1298L26.8598 24.7956ZM26.1619 6.16444L27.5069 7.30991C29.7018 9.17922 29.7018 12.21 27.5069 14.0793C27.3635 14.2014 27.2133 14.3161 27.0572 14.4232C26.3531 14.6653 25.6679 14.9612 25.0072 15.307C24.3111 15.4752 23.573 15.5228 22.8354 15.4443L7.12431 13.7718C3.91883 13.4305 1.6451 10.9409 2.04578 8.21097C2.24261 6.86994 3.07078 5.65458 4.34029 4.8437C10.9867 0.598415 20.2872 1.16132 26.1619 6.16444Z" stroke="#B03711" stroke-width="3" stroke-linecap="round"/>
</svg>
