<svg width="51" height="30" viewBox="0 0 51 30" fill="none" xmlns="http://www.w3.org/2000/svg">
<path d="M43.6633 28H7.93207C5.74625 28 3.76809 26.7051 2.89364 24.7018C1.80515 22.2082 2.70448 19.2934 5.00876 17.8466L7.34386 16.3805C8.9041 15.4008 9.90942 13.7413 10.0552 11.9048L10.3917 7.66509C10.639 4.54889 14.3643 3.08291 16.669 5.19485C18.1565 6.55796 20.4555 6.50119 21.874 5.06634L23.3779 3.54496C25.4075 1.49196 28.6145 1.18353 30.9981 2.81212L32.6479 3.93934C33.6791 4.64392 35.0218 4.69881 36.1071 4.08075C38.0651 2.96568 40.5375 4.12119 40.938 6.33858L41.9511 11.9475C42.2683 13.7037 43.5694 15.1197 45.2924 15.5841C46.6669 15.9545 47.7935 16.9383 48.3458 18.2503L49.0409 19.9019C49.1703 20.2092 49.273 20.5269 49.3481 20.8517C50.1931 24.5082 47.4162 28 43.6633 28Z" stroke="#B03711" stroke-width="3" stroke-linecap="round" stroke-linejoin="round"/>
</svg>
