<?xml version="1.0" encoding="UTF-8"?>
<svg id="Layer_2" data-name="Layer 2" xmlns="http://www.w3.org/2000/svg" viewBox="0 0 1920 1080">
  <defs>
    <style>
      .cls-1 {
        fill: #fcf2e8;
        stroke-width: 0px;
      }
    </style>
  </defs>
  <g id="_2" data-name="2">
    <path class="cls-1" d="M0,0v1080h1920V0H0ZM1918,641.21c-6.29,5.49-12.13,11.42-17.5,17.6-38.36,44.2-54.35,100.62-68.3,155.44-13.94,54.81-27.53,111.36-62.34,157.9-34.8,46.55-96.82,81.22-157.52,69.81-37.42-7.03-69.05-30.12-106-38.94-49.78-11.88-106.52,5.7-137.9,42.7-8.27,9.75-14.65,20.69-19.09,32.28h-241.2c.86-9.16.61-18.07-.84-26.67-3.47-20.51-14.78-39.48-40.19-47.23-18.25-5.57-45.03-3.68-68.8,5.4-82.17,11.27-166.22,24.99-248.33,56.58-9.55,3.68-19.08,7.66-28.5,11.92h-398.58c-19.91-27.05-32.34-60.67-30.75-96.56,1.51-34.05,15.13-68.46,6.73-101.02-8.57-33.25-38.18-53.03-66.93-57.28-28.76-4.26-57.66,3.52-86.45,7.51-37.23,5.17-81.54-.05-101.6-38.09-17.44-33.08-8.74-76.19.79-113.64,9.31-36.6,18.96-73.69,21.29-111.74,8.94-40.16,15.63-81.87,21.89-123.04,13.95-91.6,27.53-186.11,62.34-263.89,34.81-77.8,96.83-135.74,157.52-116.67,37.42,11.76,69.06,50.33,106.01,65.08,49.78,19.85,106.52-9.51,137.9-71.37,8.46-16.67,14.93-35.44,19.39-55.29h215.78c11.02,13.12,23.55,25.03,38.49,34.94,38.7,25.67,97.93,34.55,145.97,9.12,24.43-12.92,44.29-33.6,69.53-44.06h12.9c13.33,3.64,25.47,8.82,35.65,14.67,26.02,14.93,44.47,34.16,72.67,47.71,28.22,13.54,71.83,20.31,107.69,7.32,37.42-13.54,50.01-42.35,46.2-65.77-.01-.09-.03-.17-.04-.26,28.24,10.54,44.84,22.87,42.25,35.9-2.9,14.65-29.08,29.46-12.94,43.48,16.48,14.32,73.43,22.83,128.73,24.66,55.31,1.83,110.89-1.52,166.24-3.23,71.6-2.23,156.81.02,195.39,16.39,33.54,14.24,16.8,32.8-1.51,48.92-20.11,17.69-41.05,35.65-41.97,54.16-.92,18.51,21.19,38.01,74.01,49.87,15.67,3.52,33.23,6.16,51.92,7.99v357.4Z"/>
  </g>
</svg>