<?xml version="1.0" encoding="UTF-8"?>
<svg id="Layer_2" data-name="Layer 2" xmlns="http://www.w3.org/2000/svg" viewBox="0 0 1920 1080">
  <defs>
    <style>
      .cls-1 {
        fill: #fcf2e8;
        stroke-width: 0px;
      }
    </style>
  </defs>
  <g id="_1" data-name="1">
    <path class="cls-1" d="M0,0v1080h1920V0H0ZM1918,829.47c-26.72,14.56-48.65,32.82-62.93,54.71-24.5,37.55-25.23,82.58-61.09,115.42-44.19,40.49-127.87,49-200.26,41.56-72.38-7.44-141.7-27.3-214.68-30.91s-156.29,14.72-186.22,61.09c-1.42,2.21-2.69,4.43-3.82,6.66h-269.64c-11.51-6.3-23.93-12.14-36.91-17.52-92.59-38.4-210.81-54.4-325.66-68.37-114.83-13.96-233.31-27.56-330.83-62.4-97.53-34.85-170.16-96.93-146.25-157.69,14.73-37.47,63.1-69.13,81.58-106.12,24.89-49.84-11.93-106.64-89.48-138.05-21.03-8.53-44.74-15.04-69.81-19.5v-239.82l-.03-2.01c10.16-.15,20.28-.76,30.29-1.88,42.73-4.75,82.7-20.05,95.69-41.65,15.94-26.51-9.33-58.04,18.61-81.75,22.6-19.14,73.04-25.03,115.43-20.29,42.37,4.74,79.21,17.75,116.31,29.36,37.12,11.6,77.87,22.34,121.22,21.65,45.88-.72,87.79-14.31,120.12-31.18,60.97-31.82,94.19-74.9,121.56-117.43,4.56-7.08,9.03-14.22,13.51-21.35h552.09c36.24,24.54,58.64,54.69,55.67,86.83-2.88,31.32-28.86,62.98-12.84,92.94,16.35,30.6,72.86,48.78,127.73,52.7,54.89,3.91,110.03-3.25,164.96-6.92,71.05-4.75,155.6.06,193.87,35.05,33.29,30.43,16.68,70.1-1.49,104.55-19.95,37.82-40.73,76.19-41.64,115.75-.92,39.54,21.03,81.23,73.44,106.58,15.54,7.52,32.95,13.16,51.5,17.06v222.93Z"/>
  </g>
</svg>