<?xml version="1.0" encoding="UTF-8"?>
<svg id="Layer_2" data-name="Layer 2" xmlns="http://www.w3.org/2000/svg" viewBox="0 0 1920 1080">
  <defs>
    <style>
      .cls-1 {
        fill: #fcf2e8;
        stroke-width: 0px;
      }
    </style>
  </defs>
  <g id="_4" data-name="4">
    <path class="cls-1" d="M0,0v1080h1920V0H0ZM1918,740.32c-26.72,19.74-48.65,44.49-62.93,74.17-24.5,50.91-25.23,111.97-61.09,156.5-44.19,54.9-127.87,66.43-200.26,56.35-72.38-10.09-141.7-37.02-214.68-41.92-72.98-4.88-156.29,19.96-186.22,82.84-1.52,3.22-2.89,6.48-4.08,9.74h-648.36c-31.92-24.5-51.65-54.6-49.05-86.67,2.54-31.27,25.43-62.87,11.32-92.78-14.41-30.54-64.21-48.69-112.57-52.61-48.36-3.9-96.96,3.25-145.37,6.91-62.61,4.75-137.12-.06-170.85-34.98-29.34-30.38-14.7-69.98,1.31-104.37,17.59-37.75,35.89-76.05,36.7-115.54.81-39.48-18.53-81.09-64.72-106.4-13.63-7.46-28.9-13.07-45.15-16.96v-152.5c47.86-19.44,106.99-31.51,170.07-29.94,60.67,1.51,121.98,15.13,180.02,6.73,59.26-8.57,94.48-38.18,102.07-66.93,7.58-28.76-6.29-57.66-13.39-86.45-9.22-37.23.1-81.54,67.88-101.6,58.94-17.44,135.78-8.74,202.51.79,65.23,9.31,131.31,18.96,199.12,21.29,71.56,8.94,145.9,15.63,219.25,21.89,163.23,13.95,331.65,27.53,470.26,62.34,138.64,34.81,241.88,96.83,207.9,157.52-20.94,37.42-89.69,69.06-115.97,106.01-35.38,49.78,16.95,106.52,127.2,137.9,29.57,8.42,62.87,14.89,98.08,19.33.33.05.67.09,1,.13v169.21Z"/>
  </g>
</svg>