<?xml version="1.0" encoding="UTF-8"?>
<svg id="Layer_2" data-name="Layer 2" xmlns="http://www.w3.org/2000/svg" viewBox="0 0 1920 1080">
  <defs>
    <style>
      .cls-1 {
        fill: #fcf2e8;
        stroke-width: 0px;
      }
    </style>
  </defs>
  <g id="_5" data-name="5">
    <path class="cls-1" d="M0,0v1080h1920V0H0ZM1918,679.07c-9.66,5.15-18.6,10.73-26.8,16.58-56.66,40.32-80.27,91.81-100.87,141.83-20.61,50.02-40.67,101.63-92.09,144.1-51.41,42.48-143.01,74.12-232.67,63.7-55.27-6.41-102-27.48-156.58-35.53-73.52-10.84-157.33,5.2-203.68,38.97-12.15,8.84-21.53,18.77-28.08,29.28h-131.54c2.96-5.98,5.23-12.04,6.72-18.13,5.93-24.31-1.3-49.24-24.64-68-25.43-20.42-67.78-32.09-112.09-37.3-33.16-3.9-69.2-4.44-102.82,2.84-33.61,7.28-64.21,23.49-72.8,43.13-10.55,24.11,12.12,49.51-8.22,72.08-1.71,1.89-3.67,3.69-5.85,5.38h-194.74c-15.94-3.41-32.54-6.15-49.58-7.06-21.01-41.43-33.79-91.52-32.01-144.75,1.82-54.22,18.1-109.02,8.06-160.92-10.26-52.96-45.7-84.45-80.11-91.23-34.42-6.77-69.01,5.62-103.46,11.97-44.55,8.24-97.59-.09-121.59-60.67-20.87-52.69-10.46-121.37.93-181.02,11.71-61.27,52.48-292.92,91.12-334.9,50.73-55.11,146.75-66.68,229.82-56.56,83.07,10.12,162.62,37.15,246.37,42.07,83.74,4.9,179.35-20.03,213.69-83.15,1.75-3.24,3.33-6.5,4.69-9.78h323.1c44.48,21.18,71.92,47.15,68.28,74.84-3.56,27.09-35.69,54.47-15.88,80.39,20.22,26.46,90.1,42.19,157.96,45.58,67.86,3.38,136.06-2.81,203.98-5.98,87.86-4.12,192.41.04,239.75,30.31,41.16,26.32,20.62,60.63-1.85,90.43-24.67,32.71-50.37,65.9-51.5,100.12-1.13,34.21,26.01,70.26,90.82,92.19,19.35,6.55,41.06,11.45,64.16,14.82v154.37Z"/>
  </g>
</svg>