<?xml version="1.0" encoding="UTF-8"?>
<svg id="Layer_2" data-name="Layer 2" xmlns="http://www.w3.org/2000/svg" viewBox="0 0 1920 1080">
  <defs>
    <style>
      .cls-1 {
        fill: #fcf2e8;
        stroke-width: 0px;
      }
    </style>
  </defs>
  <g id="_3" data-name="3">
    <path class="cls-1" d="M0,0v1080h1920V0H0ZM1918,740.32c-26.72,19.73-48.64,44.49-62.93,74.17-24.49,50.91-25.23,111.96-61.08,156.49-44.2,54.9-127.88,66.44-200.26,56.36-72.39-10.1-141.71-37.02-214.69-41.92-72.98-4.89-156.29,19.96-186.22,82.84-1.52,3.22-2.89,6.48-4.08,9.74h-437.03c-10.61-4.96-20.27-12.3-28.3-20.6-19.59-20.24-33.48-46.31-54.71-64.67-21.24-18.36-54.07-27.53-81.07-9.93-14.09,9.19-23.51,23.55-29.04,39.59-46.74-13.37-96.8-22.12-146.03-30.19-85.09-13.94-172.88-27.53-245.13-62.34-72.26-34.8-126.08-96.82-108.37-157.52,10.92-37.42,46.76-69.05,60.45-106,18.45-49.78-8.84-106.52-66.3-137.9-15.44-8.44-32.82-14.91-51.21-19.36v-205.92c11.51-.17,22.98-.86,34.32-2.13,48.1-5.37,93.12-22.68,107.74-47.12,17.94-30-10.51-65.67,20.96-92.48,25.44-21.67,82.23-28.33,129.96-22.97,47.71,5.37,89.18,20.09,130.96,33.22,41.79,13.13,87.67,25.27,136.48,24.5,51.65-.82,98.84-16.19,135.24-35.28,68.66-36,106.06-84.74,136.88-132.85,5.54-8.65,10.96-17.34,16.4-26.05h528.68c31.92,24.5,51.65,54.6,49.05,86.68-2.54,31.27-25.43,62.86-11.32,92.77,14.41,30.55,64.21,48.7,112.57,52.61,48.36,3.9,96.96-3.24,145.37-6.9,62.61-4.75,137.12.05,170.85,34.98,29.34,30.37,14.7,69.97-1.31,104.36-17.59,37.75-35.89,76.05-36.7,115.54-.81,39.48,18.53,81.09,64.72,106.4,13.63,7.46,28.9,13.07,45.15,16.97v134.91Z"/>
  </g>
</svg>