<?xml version="1.0" encoding="utf-8"?>
<!-- Generator: Adobe Illustrator 28.2.0, SVG Export Plug-In . SVG Version: 6.00 Build 0)  -->
<svg version="1.1" id="Layer_1" xmlns="http://www.w3.org/2000/svg" xmlns:xlink="http://www.w3.org/1999/xlink" x="0px" y="0px"
	 viewBox="0 0 595.28 841.89" style="enable-background:new 0 0 595.28 841.89;" xml:space="preserve">
<style type="text/css">
	.st0{fill:#4E6E33;}
	.st1{fill:#569241;}
	.st2{fill:#FEBF32;}
	.st3{fill:#FFD834;}
	.st4{fill:#754D25;}
</style>
<ellipse transform="matrix(0.7071 -0.7071 0.7071 0.7071 -294.0987 400.1161)" class="st0" cx="335.93" cy="555.07" rx="72" ry="36"/>
<ellipse transform="matrix(0.7071 -0.7071 0.7071 0.7071 -347.6333 342.872)" class="st0" cx="240.07" cy="591.07" rx="36" ry="72"/>
<rect x="279" y="432" class="st1" width="18" height="288"/>
<ellipse class="st2" cx="288" cy="171" rx="36" ry="72"/>
<ellipse transform="matrix(0.7071 -0.7071 0.7071 0.7071 -85.025 205.2685)" class="st2" cx="205.27" cy="205.27" rx="36" ry="72"/>
<ellipse class="st2" cx="171" cy="288" rx="72" ry="36"/>
<ellipse transform="matrix(0.7071 -0.7071 0.7071 0.7071 -202.025 253.7315)" class="st2" cx="205.27" cy="370.73" rx="72" ry="36"/>
<ellipse class="st2" cx="288" cy="405" rx="36" ry="72"/>
<ellipse transform="matrix(0.7071 -0.7071 0.7071 0.7071 -153.562 370.7315)" class="st2" cx="370.73" cy="370.73" rx="36" ry="72"/>
<ellipse class="st2" cx="405" cy="288" rx="72" ry="36"/>
<ellipse transform="matrix(0.7071 -0.7071 0.7071 0.7071 -36.562 322.2685)" class="st2" cx="370.73" cy="205.27" rx="72" ry="36"/>
<ellipse transform="matrix(0.9239 -0.3827 0.3827 0.9239 -50.3326 106.7731)" class="st3" cx="243.23" cy="179.91" rx="36" ry="72"/>
<ellipse transform="matrix(0.3827 -0.9239 0.9239 0.3827 -113.6525 316.359)" class="st3" cx="179.91" cy="243.23" rx="36" ry="72"/>
<ellipse transform="matrix(0.9239 -0.3827 0.3827 0.9239 -113.6525 94.178)" class="st3" cx="179.91" cy="332.77" rx="72" ry="36"/>
<ellipse transform="matrix(0.3827 -0.9239 0.9239 0.3827 -215.7956 469.2269)" class="st3" cx="243.23" cy="396.09" rx="72" ry="36"/>
<ellipse transform="matrix(0.9239 -0.3827 0.3827 0.9239 -126.2477 157.4979)" class="st3" cx="332.77" cy="396.09" rx="36" ry="72"/>
<ellipse transform="matrix(0.3827 -0.9239 0.9239 0.3827 -62.9277 571.3699)" class="st3" cx="396.09" cy="332.77" rx="36" ry="72"/>
<ellipse transform="matrix(0.9239 -0.3827 0.3827 0.9239 -62.9277 170.093)" class="st3" cx="396.09" cy="243.23" rx="72" ry="36"/>
<ellipse transform="matrix(0.3827 -0.9239 0.9239 0.3827 39.2153 418.5021)" class="st3" cx="332.77" cy="179.91" rx="72" ry="36"/>
<circle class="st4" cx="288" cy="288" r="72"/>
</svg>
