<?xml version="1.0" encoding="utf-8"?>
<!-- Generator: Adobe Illustrator 28.2.0, SVG Export Plug-In . SVG Version: 6.00 Build 0)  -->
<svg version="1.1" id="Layer_1" xmlns="http://www.w3.org/2000/svg" xmlns:xlink="http://www.w3.org/1999/xlink" x="0px" y="0px"
	 viewBox="0 0 1920 1080" style="enable-background:new 0 0 1920 1080;" xml:space="preserve">
<style type="text/css">
	.st0{display:none;}
	.st1{display:inline;fill:#BDE6BF;}
	.st2{display:inline;fill:#F0F2DD;}
	.st3{display:inline;fill:#DDFBE5;}
	.st4{display:inline;fill:#B6A552;}
	.st5{display:inline;fill:#836C12;}
	.st6{display:inline;fill:#FAF6EB;}
	.st7{fill:#7C673E;}
	.st8{fill:#5F4A1B;}
	.st9{fill:#A17A4A;}
	.st10{fill:#8A4C2C;}
	.st11{fill:#CD9675;}
	.st12{fill:#F9DAD5;}
	.st13{fill:#E2B5B2;}
	.st14{fill:#B89874;}
	.st15{fill:#A5A297;}
	.st16{fill:#837D70;}
	.st17{fill:#4A4A48;}
	.st18{fill:#D4897C;}
	.st19{fill:url(#SVGID_1_);}
	.st20{fill:#502216;}
	.st21{fill:#E2D9CC;}
	.st22{fill:url(#SVGID_00000166647768164465648400000016619259811655110289_);}
	.st23{fill:#C6C1B7;}
	.st24{fill:#A19B90;}
	.st25{fill:#B97D7C;}
	.st26{fill:#976865;}
	.st27{fill:#A56F57;}
	.st28{fill:#1D1D1B;}
	.st29{fill:url(#SVGID_00000155109216878927208450000008745957577825341108_);}
	.st30{fill:#D5D6CE;}
	.st31{fill:#CFABA3;}
	.st32{fill:#817E81;}
</style>
<g>
	<g id="Background_00000121259932467532291320000009428033327573570484_" class="st0">
		<path class="st1" d="M737.2,436.74c0.03-82.13-0.03-164.26,0-246.38c255.88,0,255.88,0,511.76,0c0.03,70.3-0.03,140.6,0,210.9
			c-5.26-2.87-2.55-5.31-9.25-3.5c-2.14-4.78-7.17,1.33-8.5-4c-9.08-1.01-6.05-3.8-7.25-5.25c-2.81-3.39-9.25-8.84-12.74-11.74
			c-6.17,2.14-6.43-3.43-6.75-3.75c-1.3-1.29-3.43-0.55-4.75-4.75c-4.65-1.26-4.04-4.26-5-4.5c-0.62-0.15-1.89,1.02-2,1
			c-2.89-0.51-11.12-4.87-13.74-6.75c0.54-5.24-6.12-3.74-6.75-3.25c-1.47,1.17-0.56,6.41-6,3.5c-1.88,1.31,3.03,2.34-1,4
			c-3.82-4.34-3.21,1.32-3.5,1.5c-0.89,0.53-5.54-0.31-4.5-2.5c-16.4,2.38-2-3.34-5-4.5c-4.81-1.86-4.12,3.16-6,3.5
			c-4.25,0.76-2.24-3.36-2.5-3.5c-0.55-0.29-6.12,0.96-6.25,1.25c-1.1,2.44,4.79,0.57,3.5,3c-0.64,1.2-19.7,5.71-7.5-2
			c0.05-2.17-3.99,2.23-10.25,1.25c-0.31,0.16,2.87,5.43-1.5,4.5c-4.17-0.89,3.44-4.72-6.5-4c-2.43-7.12-5.81-1.5-10-4
			c-1.79-1.07-0.94-4.36-3.25-4c-5.84-16.6-20.1-37.73-33.23-49.48c-17.59-15.73-29.35-15.67-31.98-16.99
			c-1.16-0.58-8.48-9.84-7.25-3.75c-1.21,0.91-0.94-0.72-1-0.75c-0.38-6.19-10.88-9.48-15.99-11.99c-1.1-0.54-3.21-0.7-4.5-1.5
			c-1.98-1.23-2.13-2.98-4-4c0.13-0.08-1.55-1.56,1.75-1c1.69,0.29,9.52,5.52,1.75-2c-3.98-3.84-5.96-3.17-7.25-4
			c-1.27-0.82-0.28-2.43-1.5-3c-4.1-1.91-6.3,4.62-10.5,3c-2.2-0.85,1.96-6.27,3-7c-10,5.73-9.18-6.04-10.74,2.5
			c-3.21-2.14-10.87-3.46-14.74-4.5c-0.68,2.96,4.94,6.24,8.75,9.5c-6.02-0.58-14.06-6.79-20.24-2c-4.79,3.7,4.58-1.77,12.74,3.25
			c-5.62,0.86-10.51,4.61-12.99,9.75c-0.33,0.67-2.12,4.11-1.25,4.5c4.08-3.78,14.4-4.74,6.25,0c-5.94,3.46-15.66,6.81-22.49,14.99
			c-7.44,0.73-15.49,3.69-22.49,6.5c-5.21,2.09-10.71,1.44-11.49,18.24c-0.09,1.97,0.08,3.83,0.5,5.75
			c-3.64,3.88-7.32,9.36-10,13.99c-8.15,14.12-12.13,30.17-10,46.48c-0.09,0.05-0.55-0.11-0.5,0.5c-4.57-3.91-7.54-4.74-12.99-6.5
			c-1.55-0.5-3.19-1.44-4.75-2c-3.42-0.51-8.35-0.54-11.49-1c-0.4-0.06-0.1-0.94-0.5-1c-5.83-0.84-18.79-0.5-28.99-3
			c-2.13-1.64-8.73-2.63-10-3.5c-2.06-1.42-0.87-4.5-2-5c-1.4-0.62-3.31,0.71-1.25,4.5c-1.54,2.43,1.38,7.78,3,10
			c-3.48-3.8-4.56,1.38-4.5,1.75c0.03,0.17,2.47,1.94,2.5,2.5c0.06,0.96-3.03,3.35-3.25,3.25c-0.35-0.17-3.48-7.85-3.25-0.75
			c-4.27-0.46-0.38,0.86-0.5,1.5c-0.08,0.41-6.93,3.98-7.25,4.25c-1.36,1.16-3.97,5.94-4.25,6.25c-0.51,0.56-1.48-0.06-2,0.5
			c-0.12,0.13-0.5,2.87-1,3.5c-1.14,1.45-5.12,0.57-5.25,5.25c-4.24,1.12-5.59,4.77-7,5c-2.26,0.37-2.42-2.07-3.75-0.25
			c3.73,8.33-5.27-2.71-7,8.5c-9.29,4.89-3.78,5.44-4,6.5c-0.24,1.19-4.91,1.03-4,4.5c-1.83,1.68-3.53-0.94-4,0
			c-0.42,0.84,0.43,4.84-0.75,5.25c-1.42,0.48-1.89-4.92-7.5,4.5c-1.5-1.25-1.5-1.25-3-2.5c-1.14,0.95,0.47,10.23-4,7.5
			C737.78,437.91,739.55,435.16,737.2,436.74z"/>
		<path class="st1" d="M813.67,372.27c1.94,2.66,8.45,7.16,13.49,11.99c0.19,1.85-4.5,3.97-4.5,4.75c0,0.93,12.31,8.72,13.99,12.24
			c-0.54,0.81-1.15,1.57-1.5,2.5c-1.7,0.03-8.51-0.66-8.5,0.25c0.03,1.28,18.63,12.61,20.99,14.49c-22.35,3.45-0.48,8.15,10.25,6.25
			c-0.31,2.12-2.76,3.49-3.25,5.5c-0.13,0.56-0.81,0.88-0.5,1.25c11.23-1.57,7.08-4.3,7.25,5.75c4.5-2.25,4.5-2.25,9-4.5
			c0.25,4,0.25,4,0.5,8c3.25-3,3.25-3,6.5-6c1.13,0.53-0.87,2.66-1.25,3.5c-1.28,2.79-3.45,3.65,1,3c0.64,2.03,1.45,1.41,1.5,1.5
			c1.55,2.92,0.72,9.67,2.5,8c-0.14,0.2,1.07,1.01,0.25,2c-0.64,0.78-3.35-0.58-4.25,1.75c1,3.94-2.07,10.14-2.5,10.5
			c-1.59,1.31-0.97-3-3.5-1.5c1.4,6-3.77,7.73-2,12.49c-1.98,3.04-2.94,5.31-2.5,9c-10.48,4.95-6.21,13.3-10.25,16.24
			c-6.86-1.48-1.28,11.13-7.5,11.49c-0.35,0.02-5.63-1.64-6-2c-1.77,2.27-0.93,4.53-1.25,6.25c-0.07,0.4-0.95,0.1-1,0.5
			c-1.32,10.27,6.96,3.36,6.5,8.5c-0.22,2.48-3.13,0.3-2,2.75c1.4,3.02,1.64,2.92,5,3c-2.77,2.56-10.93-3.77-6.5,3.25
			c-3.08,1.62,0.91,3.04-3,4.5c4.56,3.35,2.87,2.52,1.5,2.75c-0.06-2.43-1.83-0.97-2.5,0.5c-0.13,0.28,0.22,2.17,1,2.25
			c-11.36,1.74-1.22,3-0.75,3.25c2.3,1.2-3.09,3.82-1.75,7.25c0.26,0.66,9.19,8.83,3.5,10.99c6.95,6.59-6.14,15.2,6.5,16.49
			c-2.63,4.7,0.4,9.71-1.5,14.49c3.48,0.98,0.13,1.21,0,1.5c-0.4,0.9,1.25,0.51,1,1.5c-0.12,0.47-2.32,0.7-2.5,1
			c-0.35,0.58-0.35,4.45-0.75,4.75c-2.06,1.5-2.08-4.63-11.49-0.5c-0.37,0.62-0.37,0.62-0.75,1.25c1.35,1.58,1.42,0.25,1.5,0.25
			c1.94-0.03,1.42-0.48,1.5-0.5c6.03-1.32-0.02,0.35,1,2.25c0.42,0.77,1.67-0.72,2.25-0.25c0.22,0.18,0.96,5.87,2.25,0.5
			c1.16-0.2,1.63,0.12,2.5,0.5c0.06,0.02-0.19,0.88,0.25,1c3.89,1.05,1.59-3.04,1.75-3.25c1.46-2.01,3.92,0.47,4,5.5
			c-6.31-0.17-2.09,0.21-2,1.75c-4.02-3.09-5.21,3.95-4.5,4.5c2.43,1.87,8.49-9.58,11.99-1.25c-7.04-0.01-7.28,2.62-7.75,2.75
			c-3.78,1-23.75,0.82-27.49,2.5c-3.11,1.4-0.36,1.41-0.25,1.5c6.62,5.78,5.49,0.47-2.25,6c-1.28,0.18-5.87-3.68-10.49,0
			c-8.63-3.87-10.45,6.26-8.5,7.5c2.34,1.48,4.21-2.93,4.5-3c0.82-0.21,0.86,1.67,2,1c0.81-0.48-0.83-1.58,0-2
			c0.83-0.42,2.37,1.04,2.5,1c1.27-0.41,0.5-2.84,0.75-3.25c1.55-2.5,6.86-1.23,7-0.5c0.15,0.81-6.73,5.1,2,3.75
			c3.83-0.59,8.46-2.35,12.24-2.5c1.19-0.05,21.6,1.67,23.74,2c3.38,0.19,6.33,1.74,9.5,2.5c11.07,2.64,19.5,8.08,13.49-0.5
			c3.68-0.65,7.24-1.4,10.99-1.5c-1.21,0.83-5.33,6.18-3.75,6.5c11.19-4.35,19.1,0.65,30.74-0.5c1.94-0.73,26.09-1.39,25.49-0.25
			c-0.54,1.03-3.95-2.18-1,6.5c-0.5,0-0.5,0-1,0c-1.47-11.33-6.96,3.71-7,4.5c-0.06,1.56,7.68,0.06,8-0.75
			c1.82,0.12,3.68-0.14,5.5,0c9.16,0.68,28.68,4.63,36.23,3c10.39-2.24-12.54-2.6-20.49-3c-0.36-0.02-0.14,1.02-0.5,1
			c-0.38-0.02-0.11-0.98-0.5-1c-3.42-0.21-4.79-0.86-6.25-1c-0.92-3.14-7.01-6.23-8.5-8c-0.13-0.15,0.37-1.1-1.75-3.5
			c2.53,1.33,6.39,1.69,8.75,3c1.73,0.96,2.77,2.96,4.5,4c1.75,1.06,3.35,1.79,5.25,2.5c6.75,1.17,30.69,2.08,34.48,3.5
			c0.84,0.31,4.79,7.3,16.24,2.25c0.08-1.99-8.61,0.85-12.74-0.75c-3.69-1.43,3.1-1.93,5.25-2.5c1.99-0.52,3.98-1.07,6-1.5
			c4.08-0.88,8.13-1.79,12.24-2.5c1.15,1.34-2.76,1.42-4.75,5c-4.55,8.19,9.63,0.62,10.74,1.5c1.1,0.87-2.91,5.97,11.49,0
			c7.51,0.48,15.26,0.17,22.74-0.5c22.04-1.99,4.36-2.54-4.75-3.5c0-0.5,0-0.5,0-1c11.21,1.48,20.87-2.23,27.99-3
			c5.4-0.58,12.86-0.21,8.5,1c-0.49,0.14-4.65,0.14-10,2c-4.68,1.62-9.23,4.21-13.74,6.25c11.76,0.72,26.94,2.2,3.75,4.75
			c-4.72,0.52-34.42,0.52-35.23,3.25c-0.36,1.2,1.04,1.89,1,2c-0.9,2.86-16.48,1.4-19.74,1.75c0,0.5,0,0.5,0,1
			c20.19,1.11,40.87,2.03,60.97-1c10.47-1.58,20.44-5.73,30.99-7c2.09-1.65,0.47-1.16,0.25-3c8.64,0.5,32.86-7.4,44.73-7
			c0.25-0.5,0.25-0.5,0.5-1c13.12-0.75,13.12-0.75,26.24-1.5c0.28,0.23,0.79,1.87,1,2c1.69,1.02,10.67-0.52,11.49-1.75
			c1.11-1.65-3.58-1.38,8-5c-3-1.5-3-1.5-6-3c5.23-3.86,7.4-8.24,4.5-14.24c-0.05-0.11,0.04-0.88-1-2c-3.05-3.28-6.56-1.68-10.74-2
			c-5.28-8.5,1.66-6.97,2.5-7.5c2.86-1.78,5.2-6.29,6-9.5c5.41-1.7,9.32-6.15,14.74-8.25c-1.52-8.36,0.59-10.54,1.5-15.99
			c0.25-1.49-0.69-4.2,0.5-8c1.81-5.78,8.56-8,10.99-13.49c5.5-17.74,5.5-17.74,10.99-35.48c5.5-2.87,5.5-2.87,10.99-5.75
			c0,5.5,0,10.99,0,16.49c-3.09,6.23-1.31,21.19,0,28.99c-0.04,46.64,0.03,93.29,0,139.93c-255.88,0-255.88,0-511.76,0
			c0.03-88.46-0.04-176.92,0-265.37c2.35-1.58,0.58,1.17,2.75,2.5c4.47,2.73,2.85-6.54,4-7.5c1.5,1.25,1.5,1.25,3,2.5
			c5.61-9.41,6.08-4.01,7.5-4.5c1.18-0.4,0.33-4.41,0.75-5.25c0.47-0.94,2.17,1.68,4,0c-0.91-3.47,3.75-3.31,4-4.5
			c0.22-1.06-5.3-1.61,4-6.5c1.72-11.21,10.73-0.17,7-8.5c1.33-1.82,1.48,0.62,3.75,0.25c1.41-0.23,2.75-3.88,7-5
			c0.12-4.68,4.11-3.8,5.25-5.25c0.5-0.63,0.88-3.36,1-3.5c0.52-0.56,1.49,0.06,2-0.5c0.28-0.3,2.89-5.09,4.25-6.25
			c0.32-0.27,7.17-3.84,7.25-4.25c0.12-0.64-3.77-1.96,0.5-1.5c-0.23-7.1,2.89,0.58,3.25,0.75c0.22,0.11,3.3-2.29,3.25-3.25
			c-0.03-0.56-2.47-2.32-2.5-2.5C809.11,373.64,810.18,368.47,813.67,372.27z"/>
		<path class="st2" d="M1248.96,501.7c0,4.66,0,9.33,0,13.99c-4.84,1.59-17.77,6.2-14.99,11.24c-4.53,3.1-1.7,7.21-5,10.49
			c1.16,7.58-4.96,13.27-5,20.99c-5,4.75-5,4.75-10,9.5c0.52,7.78-4.76,24.09-14.24,15.74c-13.49,12.86-15.06,2.67-5.5-0.5
			c1.85-0.61,8.3,3.98,0.5-13.99c-14.26,4.07-25.64,19.11-38.98,23.99c-1.68,0.61-7.42-1.25-9,3.5c-3.12-5.26-15.81,0.29-1.25,0.25
			c-2.53,15.35,4.85,8.81,6,10.49c0.88,2.03-5.32,0.72-4,3c0.46,0.79,8.04,1.95,8.75,2.75c0.35,0.4,1.98,5.03-1.25,1.5
			c-0.06-0.07,0.94-1.17-0.25-1.5c-0.63-0.17-12.38-0.2-12.99,0c-3.13,1.01,6.05,2.8,8.75,3c0,0.5,0,0.5,0,1
			c-7.01,0.28-14,0.98-20.99,1.5c0.91-2.72-5.15-3.03-7-3c-0.5-0.81,0.87-4.15,0.25-4.5c-0.28-0.15-5.09-0.47-6.25-1
			c1.24-1.96,2.97-2.4,3-2.75c0.05-0.67-9.97-6.73-11.24-7.25c-1.74-0.7-6.52-0.8-3.75-1.5c0.65-0.1,5.42-0.3,5.5-0.75
			c-7.76-2.56-13.44-2.26-9-6.75c13.32-5.75,5.23-5.7,5-9.75c-0.14-2.42,1.15-0.16,3,0.25c0.47,0.1,1.2,0.87,1.75,0.5
			c1.15-0.79,3.12-13.72-0.25-21.49c-0.54-1.24-1.2-2.41-2-3.5c0.73-0.62,2.06,0.04,2.5,0.5c5.42,5.59,5.27,24.51,7,11.24
			c0.99-7.62-3.3-14.69-9.5-18.74c3.31,0.03,8.05,2.59,8.5,1.75c-5.75-6.75-5.75-6.75-11.49-13.49c3.5-3.75,3.5-3.75,7-7.5
			c0.18-0.81-5.44,0.26-10,0.75c-1.5-2.75-1.5-2.75-3-5.5c8.61-17.75,10.44-14.55-4.25-7c-2.42-4.51-5.52-9.06-8.75-12.99
			c6.24-7.13-9.55-11.49-4.5-15.74c-4.3-3.64-6.67-8.68-10.49-12.74c2.21-2.4,5.4,2.05,5.75,2c0.72-0.1,3.57-9.2,4-9.5
			c0.56-0.38,6.8,8.15,6-5.5c17.71,9.1,7.24-5,7.25-6.75c0-0.69,0.31-0.84,0.75-1.25c0.27-0.06,3.95,3.09,4.25,3.5
			c2.61,3.63,4.07,11.93,2,16.24c3.99,3.28,1.6,8.47,2,9c0.67,0.89,8.25,2.95,3.5-10c7.38-6.42,3.17-11.13,3.5-12.49
			c0.35-1.45,2.86-0.69,3.5-2.5c1.27-3.61-5.75-13.48-2.5-13.74c5.87,5.13,2.91-0.61,1-4c0.95-1.58,5,1.62,6,0.25
			c0.19-0.27-0.94-4.22-3.5-5.25c-0.24-1.33,3.74,0.15,8.25,0.5c0.8-0.5-0.86-4.17-1.25-5c5.15,0.08-1.64-2.98,8-1.25
			c-1.67-2.83-3.36-6.86-1.5-6.25c0.86,0.23,7.19,1.17,7.5,0.75c-3-2.87-3-2.87-6-5.75c1.21,0.28,9.76,1.68,10.25,1.5
			c1.18-1.88,2.59-3.6,3.75-5.5c1.49,3.9-6.14,5.72-0.25,10c2.47,1.79,10.86,3.61,13.99,3c13.03-2.54-4.54-14.17,4.5-12.99
			c2.48,0.32,16.09,7.62,19.49,9c7.36,2.99,13.81,0.77,15.99,9c3.95,0.48,16.41-0.85,18.99,0.5c3.71,1.94-0.33,6.78-2,7.5
			c-4.3,1.83-19.79-0.31-19.74,1.25c16.84,10,3.36,8.53,2.5,11.49c-0.7,2.39,3.8,3.56,1,7c4.9,5.42-6.18,3.56-2,11.99
			c0.32,0.64,13.8,12.61,5.25,8.75c-0.36-0.16-2.37-3.36-7-2c-3.16,0.93-0.79,4.51,1,5.5c2.18,1.21,7.35,1.51,10,2
			c0.48,0.09,0.02,1.42,0.5,1.5c2.17,0.37,7.48-1.39,10.49-1c-5.62,4.37-5.62,4.37-11.24,8.75c13.72,1.09,10.89,4.91,11.74,5.25
			c0.8,0.31,2.38-3.35,16.49,1.5c2.27-0.66,10.41-3.95,10.99-4C1245.18,500.66,1247.69,502.83,1248.96,501.7z"/>
		<path class="st1" d="M1248.96,401.25c0.02,33.48,0.02,66.97,0,100.45c-1.27,1.13-3.78-1.04-4.25-1c-0.58,0.05-8.73,3.34-10.99,4
			c-14.11-4.85-15.7-1.19-16.49-1.5c-0.85-0.33,1.97-4.16-11.74-5.25c5.62-4.37,5.62-4.37,11.24-8.75c-3.01-0.39-8.32,1.37-10.49,1
			c-0.48-0.08-0.02-1.41-0.5-1.5c-2.65-0.49-7.82-0.79-10-2c-1.79-0.99-4.16-4.57-1-5.5c4.63-1.36,6.64,1.84,7,2
			c8.55,3.87-4.93-8.1-5.25-8.75c-4.18-8.44,6.89-6.58,2-11.99c2.8-3.44-1.7-4.6-1-7c0.86-2.97,14.34-1.5-2.5-11.49
			c-0.05-1.56,15.44,0.58,19.74-1.25c1.67-0.71,5.71-5.56,2-7.5c-2.58-1.35-15.04-0.02-18.99-0.5c-2.19-8.22-8.64-6.01-15.99-9
			c-3.4-1.38-17.01-8.67-19.49-9c-9.03-1.17,8.53,10.45-4.5,12.99c-3.13,0.61-11.52-1.2-13.99-3c-5.9-4.28,1.74-6.1,0.25-10
			c0.55-0.9,1.26-1.52,2-2.25c-3.62-1.12-3.62-1.12-7.25-2.25c0-0.5,0-0.5,0-1c13.88-4.75,34.09-9.35,12.24-11.99
			c10.33-7.68,10.94-3.48,6-14.49c1.54-1.78,2.84-3.8,4.5-5.5c0.96-0.98,2.38-1.65,3-3c5.06-2.49,9.12-9,10-14.49
			c0.21-1.29,1.48-6.97-1.25-6.5c-0.73,0.13-2.09,4.91-3.25,6.25c-5.91,6.82-31.29,2.54-40.73,3.75c-1.69,2.3-4.06,1.54-8.75,4
			c-4.45,2.34-10.7,7.1-12.49,11.99c-1.51-9.67-2.73-19.19-6-28.49c2.31-0.36,1.46,2.93,3.25,4c4.18,2.49,7.56-3.12,10,4
			c9.93-0.72,2.32,3.11,6.5,4c4.37,0.93,1.19-4.34,1.5-4.5c6.25,0.98,10.3-3.42,10.25-1.25c-12.2,7.71,6.86,3.2,7.5,2
			c1.29-2.43-4.6-0.55-3.5-3c0.13-0.29,5.69-1.54,6.25-1.25c0.26,0.14-1.75,4.26,2.5,3.5c1.87-0.33,1.19-5.35,6-3.5
			c3,1.16-11.4,6.88,5,4.5c-1.04,2.19,3.6,3.03,4.5,2.5c0.29-0.18-0.32-5.83,3.5-1.5c4.03-1.66-0.88-2.68,1-4
			c5.44,2.91,4.53-2.33,6-3.5c0.62-0.5,7.28-1.99,6.75,3.25c2.63,1.87,10.85,6.24,13.74,6.75c0.11,0.02,1.38-1.15,2-1
			c0.96,0.23,0.35,3.24,5,4.5c1.32,4.19,3.45,3.46,4.75,4.75c0.32,0.32,0.57,5.89,6.75,3.75c3.49,2.9,9.93,8.36,12.74,11.74
			c1.2,1.45-1.83,4.24,7.25,5.25c1.32,5.33,6.35-0.78,8.5,4C1246.41,395.94,1243.7,398.38,1248.96,401.25z"/>
		<path class="st2" d="M1248.96,515.7c0,0.33,0,0.67,0,1c-5.5,2.87-5.5,2.87-10.99,5.75c-5.5,17.74-5.5,17.74-10.99,35.48
			c-2.44,5.49-9.19,7.71-10.99,13.49c-1.19,3.8-0.25,6.51-0.5,8c-0.9,5.45-3.02,7.63-1.5,15.99c-5.42,2.1-9.34,6.54-14.74,8.25
			c-0.79,3.2-3.13,7.71-6,9.5c-0.84,0.52-7.78-1.01-2.5,7.5c4.19,0.32,7.69-1.29,10.74,2c-8.81-3.69-28.45,2.13-34.48,1.5
			c-7.93-0.82-3.91-6.55-5.25-7.5c-0.46-0.33-9.72,0.44-11.24,0.5c0-0.5,0-0.5,0-1c1.51,0.11,4.6,0.59,4.5-1.5
			c3.23,3.53,1.6-1.1,1.25-1.5c-0.7-0.8-8.29-1.96-8.75-2.75c-1.33-2.27,4.88-0.97,4-3c-1.15-1.69-8.53,4.86-6-10.49
			c-14.56,0.04-1.87-5.51,1.25-0.25c1.58-4.75,7.32-2.88,9-3.5c13.34-4.88,24.72-19.92,38.98-23.99c7.8,17.98,1.35,13.38-0.5,13.99
			c-9.57,3.17-7.99,13.36,5.5,0.5c9.48,8.35,14.77-7.97,14.24-15.74c5-4.75,5-4.75,10-9.5c0.04-7.72,6.15-13.41,5-20.99
			c3.3-3.29,0.47-7.39,5-10.49C1231.19,521.9,1244.12,517.29,1248.96,515.7z"/>
		<path class="st2" d="M1248.96,562.18c-1.31-7.79-3.09-22.76,0-28.99C1248.95,542.85,1248.97,552.51,1248.96,562.18z"/>
		<path class="st2" d="M886.63,447.23c-0.11,1.08,1.03,1.72,1.5,2.5c3.76,6.21-0.25,5.46-0.5,6.25c-0.28,0.89,1.29,3.62,1,8.5
			c-0.01,0.17-1.45,2.4-1.5,3c-0.78,8.99,3.49,6.84,4,8c0.79,1.8-1.97,11.94,0.75,13.74c0.99,0.65,1.68-0.56,1.75-0.5
			c6.9,5.46-1.16,3.87-1.5,4.75c-0.29,0.76,2.81,10.13,0,15.99c-0.25,0.53-2.72,1.6-3,2.5c-0.71,2.25,1.94,5.78-0.5,7.5
			c0.96,1.4-0.34,5.96,0,6.5c0.88,1.39,3.43-1.47,4.5-0.75c0.97,1.61,3.19,3.99,3,4.75c-1.13,0.51-18.13,12.03-12.24,13.24
			c0.86,0.18,16.78-13.3,9.25-4.5c-2.46,2.88-5.16,2.6-6,3.75c-2.48,3.39,0.84,1.43,1,3c0.13,1.25-10.22,4.98-15.99,18.99
			c5.37-4.87,5.37-4.87,10.74-9.75c-1.14,1.9-9.94,16.78-7.5,17.99c0.68-1.64,2.15-2.73,3.25-4c0.55,2.09-2,6.85-1,8.75
			c0.92,1.73,2.1-3.43,0.5,7c0.36,1.15,6.21,1.14,8.25,1.25c13.24-5.11-4.8,4.34,12.74,8c4.39,17.42-8.32,0.98-2.5,10.74
			c-9.79,1.71-10.34-4.04-6,5c-8-1.1-3.24,6.92-10.25,5.75c1.12,3.1-0.5,2.69-0.75,4.5c-0.44-0.05-0.45,0.13-0.5,0.5
			c-6.41-0.72-12.87-1.2-19.24-2c-0.88,0.58-0.57,1.4-1.25,1.5c-13.23,2.03-26.64,2.16-39.48,5c-0.11-0.09-2.86-0.1,0.25-1.5
			c3.74-1.68,23.71-1.5,27.49-2.5c0.47-0.12,0.71-2.76,7.75-2.75c-3.51-8.33-9.56,3.12-11.99,1.25c2.37,0.15,0.76-2.56,2.25-3.5
			c0.14-0.09,2.4,1.4,2.25-1c-0.09-1.54-4.31-1.92,2-1.75c-0.08-5.03-2.54-7.51-4-5.5c-0.15,0.21,2.14,4.3-1.75,3.25
			c-0.44-0.12-0.19-0.97-0.25-1c2.24-0.97-0.49-1.26-2.25-3.5c-1.76,1.51,0.13,1.39-0.25,3c-1.28,5.37-2.03-0.32-2.25-0.5
			c-0.58-0.47-1.83,1.02-2.25,0.25c-1.02-1.9,5.03-3.57-1-2.25c-1.35-1.1-2.5,0.33-1.5,0.5c-0.08,0-0.15,1.33-1.5-0.25
			c0.37-0.62,0.37-0.62,0.75-1.25c9.41-4.13,9.44,2,11.49,0.5c0.4-0.29,0.4-4.17,0.75-4.75c0.18-0.3,2.38-0.53,2.5-1
			c0.25-0.99-1.4-0.6-1-1.5c0.13-0.29,3.48-0.52,0-1.5c1.9-4.78-1.14-9.8,1.5-14.49c-12.63-1.29,0.46-9.9-6.5-16.49
			c5.69-2.16-3.24-10.34-3.5-10.99c-1.34-3.42,4.05-6.05,1.75-7.25c-0.47-0.25-10.61-1.51,0.75-3.25c-0.78-0.08-1.13-1.97-1-2.25
			c1.6,0.27,2.11-0.44,2.5-0.5c1.37-0.23,3.06,0.61-1.5-2.75c3.9-1.46-0.08-2.87,3-4.5c-4.43-7.02,3.73-0.69,6.5-3.25
			c1.74-1.61-1.56-1.52-5-3c-1.13-2.45,1.77-0.27,2-2.75c0.47-5.14-7.82,1.78-6.5-8.5c0.05-0.4,0.93-0.1,1-0.5
			c0.32-1.72-0.52-3.98,1.25-6.25c0.36,0.35,5.65,2.02,6,2c6.22-0.37,0.63-12.97,7.5-11.49c4.04-2.94-0.23-11.29,10.25-16.24
			c-0.44-3.69,0.52-5.96,2.5-9c-1.77-4.77,3.4-6.49,2-12.49c2.53-1.5,1.91,2.81,3.5,1.5c0.43-0.35,3.5-6.55,2.5-10.5
			c0.89-2.33,3.6-0.97,4.25-1.75c0.82-0.99-0.39-1.8-0.25-2C883.9,446.91,886.34,447.43,886.63,447.23z"/>
		<path class="st3" d="M832.41,641.14c2.72-1.45,4.37,2.96,4.25,3.25C836.1,645.74,830.35,642.24,832.41,641.14z"/>
		<path class="st4" d="M850.15,531.69c-3.36-0.07-3.6,0.02-5-3C848.59,530.17,851.89,530.08,850.15,531.69z"/>
		<path class="st5" d="M842.15,542.19c-0.39,0.06-0.9,0.77-2.5,0.5C840.32,541.21,842.09,539.75,842.15,542.19z"/>
		<path class="st6" d="M1141.26,497.21c7.14,5.63,22.4,10.37,26.99,12.99c0.8,0.46,14.49,10.35,14.74,11.24
			c0.82,2.87-8.98,2.48-10.49,4.5c7.85,24.06-11.5,0.02-29.74-3.25c-1.88-6.94-8.24-7.33-13.24-11.74
			C1139.95,506.76,1136.82,505.38,1141.26,497.21z"/>
		<path class="st2" d="M907.12,467.22c0.11-0.19,1.88-1.95,2.75-3.5c-0.12,3.87-0.12,3.87-0.25,7.75c0.61,1.6,4.27-1.41,5.25-2.25
			c1.04,9.32,1.52,8.78,7.75,4c-0.12,2.3-1.75,7.51,1.25,8c1.19,0.19,2.79-3.46,2.75-1c-9.01,5.78-1.59,4.38-1.5,5.25
			c-4.56,1.63-19.6,17.95-10.5,19.74c-4.37,6.25-4.37,6.25-8.75,12.49c1.86-22.77-5.45,7.68-7.5,8c-3.25-2-3.25-2-6.5-4
			c-0.37,0.37-0.37,0.37-0.75,0.75c0.8,0.8,1.42,1.79,2,2.75c-1.07-0.72-3.62,2.14-4.5,0.75c-0.34-0.53,0.96-5.1,0-6.5
			c2.44-1.72-0.21-5.25,0.5-7.5c0.28-0.9,2.75-1.97,3-2.5c2.81-5.86-0.29-15.23,0-15.99c0.34-0.88,8.4,0.71,1.5-4.75
			c-0.33-6.69,3.83-6.83,4-7.25c1.55-3.75-5.96-21.73,5.5-18.49c-2.75,16.46,1.65,0.29,2.75,8.25
			C906.12,471.25,906.79,467.79,907.12,467.22z"/>
		<path class="st4" d="M852.4,527.19c1.97-1.42,0.57,1.79,0,1.5C851.99,528.48,851.99,527.48,852.4,527.19z"/>
		<path class="st2" d="M854.9,527.19c0.75-0.3,1.1,0.76,0.5,1C854.65,528.49,854.3,527.43,854.9,527.19z"/>
	</g>
	<g>
		<path class="st7" d="M938.63,634.15c2.25,3.12,2.25,3.12,4.5,6.25c0.02,1.06-0.17,0.31-2.5,0.25c-2.99-0.08-6.37-0.63-9.25-1.5
			c-3.4,2.66-10.37,2.97-14.74,3c-0.05-0.04-0.78-0.23-1-0.75c-0.33-0.77,0.22-1.57,0.5-2.25c6.87-0.5,6.87-0.5,13.74-1
			c0.39-0.21-1.14-2.33-0.75-5c0.05-0.37,0.06-0.55,0.5-0.5C932.73,632.5,936.03,633.4,938.63,634.15z"/>
		<path class="st8" d="M1077.06,629.15c0.17,1.42,1.94,6.06,2.5,6.75c0.43,0.52,0.74-0.51,1-0.25c2.68,2.66,5.88,4.24,9,6.25
			c-2.7,1.92-6.06,2.05-9,3.25c-1.32,0.54-1.38-0.59-2.75,2.5c-3.23-3.13-7.42-0.73-11.24-0.5c-0.57-1.9-4.93-0.42-7,0
			c-4.81-0.3-21.1-1.72-24.49-2.5c1.62-3.75,1.62-3.75,3.25-7.5c-4.06,1.11-8.11,2.7-12.24,3.5c-2.03,0.39-3.91,0.72-6,0.5
			c0.14-0.64-0.68-0.36-1-0.75c1.69-0.25,2.08-1.05,3-2.25c0.82-1.07,1.9-1.97,2.5-3.25c-0.25-0.87-0.25-0.87-0.5-1.75
			c2.51-0.1,7.64-9.29,8.25-9.5c18.91,3.9,11.02,1.05,24.99-7.5c2.76,0.14-4.92,6.86-3,8c10.49,3.25,10.49,3.25,20.99,6.5
			C1076.09,630.7,1076.73,629.69,1077.06,629.15z"/>
		<path class="st8" d="M1135.54,627.15c1.79,0.63,5.26,0.94,6,3c-0.89,0.75-2.13,2.15-3,3c-2.97,2.9-8.46,7.65-8,11.49
			c0.16,1.36-0.17,1.77,1,3c-0.54,0.1-2.66,1.38-3,0.75c-2.22-4.18,4.35-5.66-7-4.25c2.01-5.56,4.31-11,6.5-16.49
			c0.07-0.18,1.88-2.67,2.5-3C1130.07,625.6,1132.7,626.15,1135.54,627.15z"/>
		<path class="st8" d="M1104.55,630.15c-0.15,1.83-0.35,3.65-0.5,5.5c-0.29,3.7-3.02,11.82,2,10.99c-0.6,0.2-1.16-0.14-2,0.5
			c-2.78,2.11-0.84,3.77-1.75,4.5c-0.53,0.43-4.26-1.46-5.25-1.5c-3.56-0.14-7.66,2.52-8,0.5c5.44,0.21,7.31-2.14,6.5-7.5
			c2.02-2.49,0.07-2.68,0-5.5c0.69-0.83,1.87-3.29,2.5-4.5c0.72-1.39,4.22-10.72,4.75-10.99
			C1106.33,620.33,1105.06,624.12,1104.55,630.15z"/>
		<path class="st8" d="M1114.05,645.14c-1.83,0.31-3.75,1.11-5.5,1.5c-0.37,0.08-0.11-0.78-2.5,0c-5.02,0.82-2.29-7.29-2-10.99
			C1109.05,640.39,1109.05,640.39,1114.05,645.14z"/>
		<path class="st8" d="M1022.09,638.15c-0.92,1.2-1.31,2-3,2.25c0.32,0.39,1.14,0.11,1,0.75c-0.01,0.05-1.03-0.15-1,0.25
			c0.23,3.32,3.2,3.69-1,5.25c-0.38-2.51,0.67-5.04,0.5-5.25c-0.82-0.99-4.27,0.25-4.5,0.25c-1.49-0.03-3.93-0.81-5.5,0
			c-0.2-1.22-0.91-2.43-1.5-3.5C1014.59,638.15,1014.59,638.15,1022.09,638.15z"/>
		<path class="st9" d="M1134.04,643.64c-0.81,0.68-0.42,1.29-3.5,1c-0.46-3.85,5.03-8.59,8-11.49
			C1147.21,635.51,1136.8,637.52,1134.04,643.64z"/>
		<path class="st9" d="M1035.08,644.64c-0.48-0.11-7.86-3.05-9-4c4.13-0.79,8.19-2.39,12.24-3.5
			C1036.71,640.89,1036.71,640.89,1035.08,644.64z"/>
		<path class="st8" d="M1095.55,643.14c0.81,5.35-1.06,7.71-6.5,7.5c1.16-1.57,0.05-3.97,0.5-5.5
			C1090.92,640.54,1092.82,646.51,1095.55,643.14z"/>
		<path class="st8" d="M963.62,640.14c-0.35-0.03,1.63,1.24-6.5,0.5c-1.73-2.25-2.34-5.24-2.5-5.5
			C960.92,633.67,961.84,634.29,963.62,640.14z"/>
		<path class="st8" d="M1081.06,622.15c-0.24,3.64-0.4,7.34-0.5,10.99c0,1.25,0,1.25,0,2.5c-0.26-0.26-0.57,0.77-1,0.25
			c-0.56-0.68-2.33-5.33-2.5-6.75C1078.18,627.36,1077.99,621.73,1081.06,622.15z"/>
		<path class="st8" d="M1000.6,628.15c1.84,2.38,4.99,7.3,6.5,10c0.59,1.06,1.29,2.28,1.5,3.5c-0.64,0.33-0.47,0.48-0.5,0.5
			c-2.38-0.65-5.61,0.43-8,1c-0.25-2.29-0.79-4.72-1-7C998.02,624.25,998.03,624.84,1000.6,628.15z"/>
		<g>
			<path class="st10" d="M1128.04,627.65c-2.19,5.49-4.49,10.93-6.5,16.49c-2.36,0.29-5.19,0.61-7.5,1c-5-4.75-5-4.75-10-9.5
				c0.15-1.85,0.35-3.67,0.5-5.5c6.37,5.25,6.37,5.25,12.74,10.5C1122.33,628.27,1117.67,628.63,1128.04,627.65z"/>
			<path class="st10" d="M1095.55,637.65c0.07,2.82,2.02,3.01,0,5.5c-2.73,3.37-4.63-2.61-6,2c-3.57,0.18-5.54,2.13-9,0
				c2.94-1.2,6.3-1.32,9-3.25c-3.12-2-6.31-3.59-9-6.25c0-1.25,0-1.25,0-2.5c6.37,3,6.37,3,12.74,6c0.75,0,0.75,0,1.5,0
				C1094.56,636.8,1095.36,637.87,1095.55,637.65z"/>
			<path class="st9" d="M1098.05,633.15c-0.63,1.21-1.81,3.67-2.5,4.5c-0.19,0.23-0.99-0.84-0.75,1.5c-0.75,0-0.75,0-1.5,0
				c-6.37-3-6.37-3-12.74-6c0.1-3.65,0.26-7.35,0.5-10.99c0.49-7.43,1.99-15.08,2-22.49c2.25,3.62,2.25,3.62,4.5,7.25
				c-5.23,4.14-3.3,9.44,2.5,12.49C1075.68,616.67,1085.62,626.96,1098.05,633.15z"/>
			<path class="st10" d="M1086.06,575.68c1.75,1.5,1.75,1.5,3.5,3c-0.77,2.37-2,4.71-3,7c-1.25-5.25-1.25-5.25-2.5-10.5
				C1086.64,575.31,1085.96,575.66,1086.06,575.68z"/>
			<path class="st8" d="M1084.06,575.18c1.25,5.25,1.25,5.25,2.5,10.5c-1,2.3-0.94,1.88-1,2c-0.75-2-0.75-2-1.5-4
				c0.47-0.77,1.16-0.35,1-1.25c-1.25-3.75-1.25-3.75-2.5-7.5C1083.21,574.18,1083.53,575.15,1084.06,575.18z"/>
			<path class="st8" d="M1090.06,576.18c-0.1,0.32-0.14,1.38-0.5,2.5c-1.75-1.5-1.75-1.5-3.5-3
				C1087.29,575.92,1088.8,575.79,1090.06,576.18z"/>
			<path class="st11" d="M1090.56,564.68c0.05,1.97,0.53,3.78-2.5,3c-0.63-1.21-0.4-1.58-0.5-2c1.25-0.75,1.25-0.75,2.5-1.5
				C1090.14,564.86,1090.56,564.65,1090.56,564.68z"/>
			<g>
				<path class="st11" d="M1132.04,555.68c2.91,1.72,0.42,2.54,0.5,2.75c0.18,0.48,1.79,0.94,2,2c0.79,3.9,0.21,9.08,1,13.24
					c4.75,13.42,11.45,2.92,8.5,15.49c-1.34-1.64-1.49-2.03-2.5-3.5c-0.31-0.45-1.22-2.55-1.75-2.5c-0.35,0.03-1.26,2.08-2.25,3
					c-4.66-1.8-9.78-1.93-14.74-2c-10.98-12.72-4.21-14.64-5-14.99c-3.78-1.71-3.38,4-2.75,6.5c0.32,2.11-5.63,0.4-6.75,1
					c-0.38,0.2-1.54,6.07-1.75,7c-4.84-5.88-9.58-12.22-10.74-19.99c-1.62,3.75-1.62,3.75-3.25,7.5c-0.29,0.18-0.66,0.42-1,0.5
					c-1.04-0.89-2.92-2.87-3.5-4c3.03,0.78,2.55-1.03,2.5-3c2.88-3.26,5.81-0.94,4.5-5.5c3.34,0.03,1.71-0.23,3.5-2
					c1.93-1.9,3.23-4.6,5-6.5c2.08-2.22,4.82-3.88,7-6c0.18,0.23,0.72-0.53,0.75-0.5c0.77,0.94-0.23,1.16,2.75,2.25
					c-3.74,8.47-1.45,4.26-0.25,4.25c3.65-0.05-1.99,17.51,4.25,16.24c1.96-6.1,8.19-9.91,9.25-16.24
					C1132.67,552.79,1128.62,560.21,1132.04,555.68z"/>
				<path class="st10" d="M1137.54,586.17c-0.06,0.06,0.05,1.3-0.75,1.5c-0.73,0.19-12.53-2.28-14.99-1.5
					c-1.84-1-6.58-9.83-6.75-10.5c-0.63-2.49-1.03-8.2,2.75-6.5c0.79,0.36-5.98,2.28,5,14.99
					C1127.76,584.24,1132.87,584.37,1137.54,586.17z"/>
				<path class="st10" d="M1106.55,583.67c-0.09,0.41,1.28,0.88-0.25,2c-2.61-3.23-7.03-7.54-9.25-10.74
					c-1.81-2.62,0.03-6.6-4.5-3.75c1.62-3.75,1.62-3.75,3.25-7.5C1096.97,571.45,1101.7,577.79,1106.55,583.67z"/>
				<path class="st8" d="M1119.29,566.68c0.17-0.12,1.1-0.08,1.25,0.25C1120.92,567.75,1117.68,567.78,1119.29,566.68z"/>
			</g>
			<g>
				<path class="st9" d="M1106.55,583.67c0.21-0.93,1.37-6.79,1.75-7c1.11-0.6,7.07,1.11,6.75-1c0.17,0.66,4.9,9.5,6.75,10.5
					c2.46-0.78,14.26,1.68,14.99,1.5c0.8-0.2,0.69-1.44,0.75-1.5c0.99-0.92,1.9-2.97,2.25-3c0.53-0.05,1.44,2.05,1.75,2.5
					c-4.25,2.94,2.34,8.58,2,12.99c-1.93,0.27-3.37,1.65-5,2.5c-0.28,0.15-3.1,0.46-5.5,3.25c-0.16,1.65,0.23,3.68,0,5.25
					c-0.76,5.13-0.75,10.09-2.5,14.99c-0.61,0.33-2.43,2.82-2.5,3c-10.37,0.98-5.71,0.62-10.74,12.99
					c-6.37-5.25-6.37-5.25-12.74-10.5c0.5-6.03,1.78-9.82-1.75-8c-0.53,0.27-4.02,9.61-4.75,10.99c-12.43-6.19-22.37-16.48-8-13.74
					c-5.8-3.06-7.73-8.35-2.5-12.49c-2.25-3.62-2.25-3.62-4.5-7.25c0-1.33,0.76-2.37,0.5-3.75c-1.26-2.26-2.98-4.18-4.5-6.25
					c-0.07-1.32,1.17-1.29,1-2.5c0.05-0.02,0.93-0.46,1-0.5c4.69,8.13,3.74,2.47,4.5,1c0.06-0.12,0,0.3,1-2c0.99-2.29,2.23-4.62,3-7
					c0.36-1.11,0.4-2.18,0.5-2.5c0.03-0.09,0.74-0.35,1-1.5c0.38-1.71,1.24-2.11,0.5-3c0.34-0.08,0.71-0.32,1-0.5
					c4.53-2.85,2.69,1.13,4.5,3.75c2.21,3.2,6.63,7.52,9.25,10.74C1107.83,584.55,1106.46,584.09,1106.55,583.67z"/>
				<path class="st12" d="M1143.53,598.66c-0.1,1.33-1.16,1.79-1.5,3c-0.17-0.05-0.49,0.69-3.5-0.5
					C1140.17,600.31,1141.6,598.94,1143.53,598.66z"/>
				<path class="st13" d="M1085.56,587.67c-0.76,1.47,0.2,7.13-4.5-1c0.18-0.11,2.89-2.82,3-3
					C1084.81,585.67,1084.81,585.67,1085.56,587.67z"/>
				<path class="st8" d="M1108.3,596.17c0.42-0.2,3.06,0.69,3.25,1.25c-1.61,1.35-6.13,25.02-8.25,23.24
					C1103.65,617.75,1107.17,596.7,1108.3,596.17z"/>
			</g>
		</g>
		<g>
			<path class="st11" d="M955.62,584.67c1.17-0.95,2.42-1.96,3.5-3c1.96,1.2,2.82,6.26-0.25,7.5
				C956.34,590.19,956.3,585.95,955.62,584.67z"/>
			<path class="st10" d="M992.6,575.18c-1.06,0.5-4.6,3.34-7,3c-0.12-4.75-0.12-4.75-0.25-9.5
				C987.03,571.13,989.83,574.25,992.6,575.18z"/>
			<g>
				<path class="st11" d="M999.6,558.18c1.26,1.33,6.01,7.24,6.75,7.5c0.97,0.33,3.3-3.19,3.75,2.5c0.02,0.22-2.33,2.37,2.5,1
					c-0.64,2.18-1.51,4.47-2.5,6.5c-0.69,1.4-2.28,5.18-4,5.5c-1.66-0.41-9.87-2.62-10.25-3c-1.74-1.74,1.86-3.99-0.75-4
					c-2.12,0-2.38,0.94-2.5,1c-2.77-0.92-5.57-4.04-7.25-6.5c0.12,4.75,0.12,4.75,0.25,9.5c-1.17-0.19-0.95,0.48-1,0.5
					c-1.08,0.37-3.65,0.71-6,1.5c-0.97,0.33-5.53,1.3-5.75,1.5c-1.29,1.16-0.61,2.59-0.75,4c-4.37,0.5-4.37,0.5-8.75,1
					c-0.87-3.75-0.87-3.75-1.75-7.5c2.53-5.21-4.39-20.45-4-22.24c0.04-0.16,2.34-2.19,2.5-2.25c2.94-1.09,8.61,7.31,3-1.25
					c3.92-5.16,2,7.94,21.49,12.99c1.01-6.1-0.22-20.28,3.75-15.74C991.65,546.42,992.92,551.09,999.6,558.18z"/>
				<path class="st10" d="M1006.1,581.17c3.59,4.66-11.76-1.5-11.99-2.25c-0.07-0.23,0.97-3.93,1-4.75c2.61,0.01-1,2.26,0.75,4
					C996.23,578.55,1004.44,580.76,1006.1,581.17z"/>
			</g>
			<path class="st10" d="M984.61,578.67c-1.23,1.32-4.76,3.51-6,1.5C980.96,579.38,983.53,579.05,984.61,578.67z"/>
			<g>
				<path class="st9" d="M995.1,574.18c-0.03,0.81-1.07,4.52-1,4.75c0.23,0.75,15.58,6.91,11.99,2.25c1.72-0.31,3.31-4.1,4-5.5
					c4.37,1.5,4.37,1.5,8.75,3c0.21,0.26-1,2.46-1.25,3c-0.58,1.23-1.63,2.66-2.5,3.75c0.37,0.37,0.37,0.37,0.75,0.75
					c1.89-0.69,6-1.39,7.75-1c1.42,4.87,2.65,3.98-3,8.25c0.55,1.07,1,1.17,1,1.25c-0.01,0.17,0,0.33,0,0.5
					c-0.24,14.52,2.34,28.47,2.5,37.48c-10.35-1.08-16.26-12.86-21.99-11.49c-0.14-1.42-7.42-26.31-8.5-27.24
					c-0.42-0.36-1.19-0.45-1.5,0c2.17,11.07,4.75,22.09,8.5,32.73c0.23,0.65,1.09,1.25,0,1.5c-2.57-3.32-2.58-3.9-1.5,8
					c-8.87-2.91-17.49-6.84-24.99-12.49c-0.75-4.25-0.75-4.25-1.5-8.5c-0.73-2.44-2.27-4.35-3.5-6.5c-0.81-1.42-3.79-7.04-4.75-7.5
					c-0.73-0.35-5.82-0.09-8.25-1.25c3.12-5.62,3.12-5.62,6.25-11.24c5-0.25,5-0.25,10-0.5c0.89-1.7-0.26-2.37-0.25-2.5
					c0.14-1.4-0.54-2.84,0.75-4c0.22-0.2,4.78-1.17,5.75-1.5c1.24,2.01,4.77-0.18,6-1.5c0.05-0.02-0.17-0.69,1-0.5
					c2.39,0.34,5.93-2.49,7-3C992.73,575.12,992.99,574.17,995.1,574.18z"/>
				<path class="st10" d="M1024.09,632.65c0,0.17,0,0.33,0,0.5c0.25,0.87,0.25,0.87,0.5,1.75c-0.6,1.28-1.68,2.18-2.5,3.25
					c-7.5,0-7.5,0-14.99,0c-1.5-2.69-4.65-7.61-6.5-10c1.09-0.25,0.23-0.85,0-1.5c0.95,0.91,1.53-5.18,1.5-5.5
					C1007.83,619.79,1013.74,631.56,1024.09,632.65z"/>
				<path class="st10" d="M999.1,636.15c0.21,2.28,0.75,4.7,1,7c-2.02,0.48-6.57,1.53-8,2c-2.22-1.11-4.67-0.74-7-1
					c-3.05-7.15-9.01-12.83-10.99-20.49C981.61,629.31,990.23,633.24,999.1,636.15z"/>
				<path class="st13" d="M1027.09,588.67c-0.24,0.17,0.53,0.72,0.5,0.75c-1.54,1.23-2.15,1.91-3.5,3.25c-0.7,0.7-1.7,1.39-2.5,2
					c0-0.08-0.45-0.18-1-1.25c5.65-4.26,4.42-3.38,3-8.25C1026.04,585.72,1025.51,586.85,1027.09,588.67z"/>
				<path class="st10" d="M1002.1,621.15c0.03,0.31-0.55,6.41-1.5,5.5c-3.75-10.64-6.33-21.67-8.5-32.73c0.31-0.45,1.08-0.36,1.5,0
					C994.68,594.85,1001.96,619.73,1002.1,621.15z"/>
			</g>
		</g>
	</g>
	<g>
		<path class="st14" d="M1058.07,281.32c1.29,0.8,3.4,0.96,4.5,1.5c-0.87,0.87-2.92,0.66-1.25,2c0.78,0.62,16.01,9.4,17.24,10
			c0.06,0.03-0.21,1.66,1,0.75c-1.23-6.09,6.08,3.17,7.25,3.75c2.64,1.32,14.4,1.26,31.98,16.99c13.13,11.75,27.4,32.87,33.23,49.48
			c3.27,9.29,4.49,18.81,6,28.49c-0.64,1.74-0.71,2.23-1,4c-2.13-3.62-1.96-8.08-3-11.99c-1.88-7.13-4.38-13.11-8-19.49
			c-6.88-12.14-17.28-21.16-29.99-26.99c4.39,0.4-5.83-7.36-10.25-10.5c-5.57-3.97-12.41-7.95-18.74-10.5
			c-9.04-3.64-30.95-8.2-31.98-6.75c-0.18,0.26-0.07,4.89-1,6.25c-2.9-12.27-6.52-24.74-14.99-34.48c-0.75-1.76-1.59-3.33-2.5-5
			c0.14-0.19,0.36-0.8,0.5-1C1047.58,279.57,1047.58,279.57,1058.07,281.32z"/>
		<path class="st9" d="M1039.08,283.81c3.86,9.03,8.03,17.42,10.49,26.99c-13.92-1.86-28.19-2.63-41.98,0.75
			c10.32,0.67,21.45,0.61,30.24,6.75c7.39-3.18,2.72,4.27,2.75,4.75c0.05,0.79,9.44,11.4,7,12.74c-2.79-1.01-6.1-1.75-9-2.5
			c-9.41-2.44-18.51-3.75-28.24-4c-6.17-1.27-14.54-11.94-42.73-8.5c8.14-4.75,16.82-7.42,24.99-11.99
			c14.24-7.62,14.24-7.62,28.49-15.24c-6.36,0.98-25.69,8.43-29.24,8.75c-4.68,0.42-4.98-1.03-5.25-1
			c6.83-8.18,16.55-11.54,22.49-14.99c4.7-1.24,9.83-1.81,14.49-3c5.82-1.49,8.77-4.07,11.24-2.5c0.47-1.52,1.67-1.89,1.75-2
			C1037.49,280.49,1038.33,282.06,1039.08,283.81z"/>
		<path class="st7" d="M1038.58,333.29c-0.5,1.93-3.33,0.15-6,0c-22.14-1.23-47.24,4.83-64.47,19.49c-4.02-3.23-10.06-2.92-14.99-4
			c-3.44-0.75-6.72-1.69-10-3c2.67-4.63,6.35-10.11,10-13.99c4.25-4.54,9.18-7.89,14.49-10.99c28.19-3.44,36.56,7.23,42.73,8.5
			C1020.08,329.54,1029.17,330.85,1038.58,333.29z"/>
		<path class="st8" d="M962.62,372.77c-12.27,18.1-11.34,41.05-14.99,61.72c-1.97-4.24-2.89-8.86-4.5-13.24
			c3.23-3.05-2.41-15.41-5-20.49c-2.13-4.18-1.76-4.8-5.5-8c-0.05-0.61,0.41-0.45,0.5-0.5c3.23-1.91,5.72-5.08,9.5-6.25
			c2.84-5.36,6.26-10.97,10-15.74c2.21-2.82,4.62-5.33,7-8c-0.37,1.89,3.14-0.07,4.5,2.75
			C965.79,368.49,961.47,369.54,962.62,372.77z"/>
		<path class="st8" d="M953.12,348.78c-1.3,3.39-3.71,7.04-4,10.74c-0.15,1.98,1.71,10.79,3.5,10.74c-3.73,4.77-7.16,10.38-10,15.74
			c-3.78,1.17-6.26,4.33-9.5,6.25c-2.14-16.31,1.85-32.35,10-46.48C946.4,347.09,949.68,348.03,953.12,348.78z"/>
		<path class="st8" d="M964.12,307.8c0.43,1.08,11.79,3.95,12.74,4c5.51,0.3,10.33-2.99,15.74-3c-8.17,4.58-16.85,7.24-24.99,11.99
			c-5.32,3.1-10.24,6.46-14.49,10.99c-0.42-1.92-0.59-3.78-0.5-5.75C953.41,309.24,958.91,309.89,964.12,307.8z"/>
		<path class="st7" d="M992.6,308.8c-5.41,0.01-10.23,3.3-15.74,3c-0.95-0.05-12.32-2.91-12.74-4c7-2.81,15.05-5.77,22.49-6.5
			c0.27-0.03,0.57,1.42,5.25,1c3.55-0.32,22.87-7.77,29.24-8.75C1006.85,301.18,1006.85,301.18,992.6,308.8z"/>
		<path class="st14" d="M1078.56,294.81c-1.23-0.6-16.47-9.37-17.24-10c-1.67-1.34,0.38-1.13,1.25-2
			C1067.69,285.33,1078.18,288.62,1078.56,294.81z"/>
		<path class="st8" d="M933.63,452.23c-0.38,2.16,2.59,2.79,4.25,6.5c1.52,0.08,0.22-2.08-0.25-3c1.35,0.93,0.6-0.11,1.5-0.5
			c1.69-0.73,3.26-1.41,4.75-2.5c0.37,0.37,0.37,0.37,0.75,0.75c-2.32,2.94-4.96,4.66-8,6.75c-0.29,0.2-2.73-0.32-5.5,3.5
			c-1.78,1.67-0.95-5.08-2.5-8c0.05-0.22,0.46-0.96,0.5-1C930.23,453.84,932.2,452.55,933.63,452.23z"/>
		<path class="st8" d="M929.13,454.23c-0.65,0.06-1.36-0.09-2,0c-4.45,0.65-2.28-0.21-1-3
			C927.63,452.73,927.63,452.73,929.13,454.23z"/>
		<path class="st15" d="M929.13,454.23c0,0.25,0,0.25,0,0.5c-0.04,0.04-0.45,0.78-0.5,1c-0.05-0.09-0.86,0.53-1.5-1.5
			C927.77,454.14,928.48,454.29,929.13,454.23z"/>
		<path class="st9" d="M1149.53,458.73c0.19,2.5,1.42,4.22,1.5,6.5c-2.12,1.24-3.06,5.45-1,7c-0.13,0.48-0.49,0.58-0.5,1
			c-0.3-0.41-3.98-3.55-4.25-3.5c-0.44,0.41-0.75,0.56-0.75,1.25c-0.01,1.75,10.46,15.85-7.25,6.75c0.8,13.65-5.44,5.12-6,5.5
			c-0.43,0.29-3.28,9.4-4,9.5c-0.35,0.05-3.54-4.4-5.75-2c-9.61-10.21-0.51,2.19-1,3.75c-0.75,2.39-4.44-2.25-4.75-2.25
			c-1.8,0-5.84,10.1-4.5-1c-0.69,0.66-5.66,3.57-6,3.5c-0.71-0.15-7.83-13.31-1.25,0.75c-0.94,1.53-3.99-2.85-4.25-2.75
			c-0.45,0.18-3.46,7.6-4.5,8.5c0.87-3.87,0.87-3.87,1.75-7.75c-0.37-0.37-0.37-0.37-0.75-0.75c-7.08,11.09-6.07-0.65-9,1
			c3.59,16.02-7.45-6.33-4.75,4.75c-3-1.43-1.91,4.84-2.75,5.25c-5.16-11.01-3.06-1.21-4-0.5c-0.53,0.41-3.45-2.64-4.25-0.75
			c1.99,9.94-1.4,3.34-6.25,1.25c-1.03,0.54,2.28,6.66,0.5,6.5c-2.5-3.25-2.5-3.25-5-6.5c0.37,3.87,0.37,3.87,0.75,7.75
			c-4.6,2.12,1.04-9.37-7.25,1.75c0.23-7.75,4.82-10.84-2.75-5.5c-2.59-1.97,4.91-8.37,7-14.49c1.66-4.87,2.21-8.94,0.5-13.99
			c2.43-0.11,5.14,0.24,7.5,0c7.54-0.76,16.97-3.99,20.99-10.99c1.09-1.89,1.6-1.12,1.5-4.5c0.75-1.75,0.75-1.75,1.5-3.5
			c3.7,6.8,6.74,14.04,14.74,16.49c8.9-4.35,4.26-4.71,5.5-6c0.38-0.39,9.05-3.15,10.25-3.5c4.37-1.25,9.03-1.71,13.49-2.5
			c0.73-0.13,4.35-0.44,4.5-0.75c-3.87-2.62-3.87-2.62-7.75-5.25C1140.41,458.73,1140.41,458.73,1149.53,458.73z"/>
		<path class="st7" d="M1126.54,509.21c-7.96,1.68-15.54,5.11-22.49,9.25c-0.22,1.57,25.96,12.04,28.74,13.24
			c0.06,0.03,0.41-0.74,1.25-0.5c3.33,16.75,1.9,4.25,15.99,13.99c-3.23,0.34-14.54,0.02-13.99,2.25c0.33,1.33,2.98-0.01,4.75,0.75
			c0.37,0.16,3.05,2.93,7,4c-3.21,2.36-9.07,0,0,6c3.44,2.28,4.99,1.97,9.25,5.5c2.32,1.92,5.42,3.71,5,7.25
			c-0.5-0.12-0.5-0.12-1-0.25c-0.44-0.46-1.77-1.12-2.5-0.5c-0.41-0.56-3.48-3.03-4.5-4c-1.2-1.14-3.57-4.53-5-5
			c-2.36-0.77-10.34,9.89-12.49,11.99c-0.04,0.04-0.74,0.42-1,0.5c-0.79-4.16-0.21-9.34-1-13.24c-0.21-1.06-1.82-1.52-2-2
			c-0.08-0.21,2.41-1.03-0.5-2.75c0.68-0.9,2.05-5.92,3-7.75c-9.33-6.37-27.04-15.82-33.48-24.49c-3.84-5.16-2.15-3.05,1.75-9.25
			c-3.35-0.88-6.91-1.1-10.25-2c4.15-2.84,10.82-4.01,15.74-7c1.49-0.9,4.27-2.98,3.25-3.5c1.64-0.46,3.35-1.68,4.25-1.5
			C1119.72,503.2,1123.13,506.2,1126.54,509.21z"/>
		<path class="st7" d="M1126.54,509.21c3.82,3.36,6.74,6.02,10,10c3.23,3.94,6.33,8.48,8.75,12.99c14.69-7.55,12.86-10.75,4.25,7
			c-7.75-4-7.75-4-15.49-8c-0.84-0.24-1.19,0.53-1.25,0.5c-2.77-1.21-28.95-11.68-28.74-13.24
			C1111,514.32,1118.58,510.89,1126.54,509.21z"/>
		<path class="st16" d="M1158.53,563.18c-0.51,0-1.53-1.44-1.5,0.5c-4.26-3.52-5.8-3.22-9.25-5.5c-9.07-6-3.21-3.64,0-6
			c-3.95-1.06-6.63-3.84-7-4c-1.77-0.76-4.42,0.58-4.75-0.75c-0.55-2.23,10.77-1.91,13.99-2.25c3.03-0.32,2.37-0.49,2.5-0.5
			c4.56-0.49,10.18-1.56,10-0.75c-3.5,3.75-3.5,3.75-7,7.5c5.75,6.75,5.75,6.75,11.49,13.49
			C1166.57,565.77,1161.84,563.21,1158.53,563.18z"/>
		<path class="st17" d="M1152.53,567.18c3.37,4.75,3.37,4.75,6.75,9.5c0.62-1.5,0.62-1.5,1.25-3c3.37,7.77,1.4,20.7,0.25,21.49
			c-0.55,0.37-1.28-0.4-1.75-0.5c0.21-0.8-3.48-2.8-4-3c-0.85-5.24-1-13.24-3-17.99C1153.03,570.7,1150.88,569.42,1152.53,567.18z"
			/>
		<path class="st8" d="M1144.03,574.18c-0.32,0.86-3.4,5.73-3,6.25c0.71,0.92,3.28,0.05,4-0.75c1.1,5.12,3.73,7.43,6,11.74
			c0.72,0.55,3.81,0.18,4,0.25c0.52,0.2,4.21,2.2,4,3c-1.84-0.41-3.14-2.67-3-0.25c0.23,4.04,8.32,4-5,9.75c-0.5,0-0.5,0-1,0
			c3.25-2.37,3.25-2.37,6.5-4.75c-3.92,1.04-9.29-6.32-12.49-10.25c2.96-12.57-3.74-2.07-8.5-15.49c0.26-0.08,0.96-0.46,1-0.5
			C1138.41,575.21,1141.11,572.55,1144.03,574.18z"/>
		<path class="st8" d="M1149.53,539.19c1.5,2.75,1.5,2.75,3,5.5c-0.13,0.01,0.54,0.18-2.5,0.5c-14.09-9.74-12.66,2.76-15.99-13.99
			C1141.78,535.19,1141.78,535.19,1149.53,539.19z"/>
		<path class="st8" d="M1158.53,563.18c6.19,4.05,10.49,11.12,9.5,18.74c-1.73,13.26-1.58-5.66-7-11.24c0.5,0.12,0.5,0.12,1,0.25
			c0.42-3.54-2.68-5.33-5-7.25C1157,561.74,1158.02,563.18,1158.53,563.18z"/>
		<path class="st18" d="M1165.02,450.73c2.56,1.02,3.69,4.98,3.5,5.25c-1,1.37-5.05-1.83-6-0.25c-1.38-2.43-1.28-3.91-4.5-1.5
			c-1.96-0.2-3.24-3.15-5-5C1155.22,449.1,1164.03,450.34,1165.02,450.73z"/>
		<path class="st8" d="M1154.03,566.18c1.02,0.97,4.09,3.44,4.5,4c0.79,1.09,1.46,2.26,2,3.5c-0.62,1.5-0.62,1.5-1.25,3
			c-3.37-4.75-3.37-4.75-6.75-9.5C1152.85,566.74,1153.26,565.98,1154.03,566.18z"/>
		<path class="st8" d="M1170.52,382.27c-8.48,7.81-10.61,16.31-11.49,27.49c0.34,1.29-0.86,0.57-2.5,2c0.02-4.29-0.19-9.3,0.5-13.49
			c0.29-1.76,0.36-2.26,1-4C1159.82,389.37,1166.07,384.6,1170.52,382.27z"/>
		<path class="st8" d="M1084.56,332.79c9.67-0.8,22.61,2.93,31.49,7c12.71,5.83,23.11,14.85,29.99,26.99
			c-4.27-0.73,0.33,4.34,1,6.25c2.35,6.72,3.34,15.47,7,13.24c1.03,3.91,0.87,8.37,3,11.99c-0.69,4.19-0.48,9.21-0.5,13.49
			c-6.29,5.46-3.7,2.34-5.5-8c-2.56-14.72-5.13-29.88-14.99-41.73c-9.93-11.92-35.44-22.49-50.73-21.74
			c-8.85,0.43-10.52,2.03-16.24,7.5c-2.43,2.32-2.09,0.8-2.5,1.25c-3.43,3.73-2.1,7.92-5.5,5.75
			C1065.55,344.57,1072.43,333.8,1084.56,332.79z"/>
		<path class="st9" d="M1087.06,318.8c-16.29,3.58-5.8,0.22-2.5,13.99c-12.13,1.01-19.01,11.78-23.49,21.99
			c-0.33-0.21-0.68,0.84-1,0.25c-0.32-0.59-1.53-10.61-2-13.24c-1.38-7.82-2.16-15.72-4-23.49c0.93-1.35,0.82-5.99,1-6.25
			C1056.11,310.6,1078.02,315.16,1087.06,318.8z"/>
		<path class="st14" d="M1116.05,339.79c-8.87-4.07-21.81-7.8-31.49-7c-3.3-13.77-13.79-10.41,2.5-13.99
			c6.33,2.55,13.17,6.53,18.74,10.5C1110.21,332.43,1120.44,340.19,1116.05,339.79z"/>
		<path class="st7" d="M1054.07,318.3c1.84,7.77,2.61,15.67,4,23.49c-1.18-0.61-3.38-1.96-4-3c-0.29-0.49-0.54-0.9-1-1.25
			c0.05-10.16-1.02-17.12-3.5-26.74c-2.46-9.57-6.64-17.95-10.49-26.99C1047.56,293.55,1051.17,306.03,1054.07,318.3z"/>
		<path class="st8" d="M1146.03,366.77c3.61,6.38,6.11,12.37,8,19.49c-3.66,2.23-4.64-6.52-7-13.24
			C1146.36,371.12,1141.76,366.04,1146.03,366.77z"/>
		<path class="st8" d="M1038.58,333.29c2.89,0.75,6.21,1.49,9,2.5c2.21,0.8,4.14,2.5,6.5,3c0.62,1.04,2.82,2.39,4,3
			c0.47,2.64,1.68,12.66,2,13.24c0.32,0.59,0.67-0.46,1-0.25c3.4,2.17,2.06-2.01,5.5-5.75c0.41-0.45,0.07,1.07,2.5-1.25
			c-0.51,19.51-2.72,7.54-4.25,8c-1.07,0.32,1.47,18.59-1.5,21.49c-1.12-3.87-1.12-3.87-2.25-7.75c-1.36-2.08-3.64,5.48-3-6
			c-9.85-19.58-15.51-23.94-37.48-22.24c-0.28-1.9,6.27-0.65,11.24-1c0.91-0.65-0.84-3.61,0.75-7
			C1035.25,333.44,1038.08,335.22,1038.58,333.29z"/>
		<path class="st7" d="M1049.58,310.8c2.48,9.62,3.55,16.58,3.5,26.74c0.46,0.35,0.71,0.76,1,1.25c-2.36-0.5-4.29-2.2-6.5-3
			c2.44-1.34-6.95-11.95-7-12.74c-0.03-0.48,4.64-7.93-2.75-4.75c-8.79-6.14-19.92-6.07-30.24-6.75
			C1021.39,308.17,1035.65,308.95,1049.58,310.8z"/>
		<path class="st7" d="M971.11,370.27c-5.18,4.99-10.43,12.46-6,19.49c-3.12,2.53-5.6,7.89-8.5,10.99
			c-1.83,1.14-2.08,16.62-0.75,16.99c3.66-2.62,10.46-6.56,14.49-8c24.1-8.58,36.98-1.71,44.73-1
			c11.05,7.03,16.49,12.77,16.99,26.49c-2.02,0.77-9.39,5.39-10.99,5.5c-3.19,0.22,0.3-3.62-2.5-4
			c9.27-23.78-29.36-32.8-49.48-15.74c10.95,8.76,8.62,9.84,11.49,17.24c-7.11-3.57-12-7.65-20.24-3.5
			c-3.93,1.98-14.97,16.35-14.74,21.49c-2.15,1.41-5.3,4.81-7.5,6.5c-0.47-0.78-1.61-1.42-1.5-2.5c3.04-2.08,5.67-3.81,8-6.75
			c-0.37-0.37-0.37-0.37-0.75-0.75c-1.49,1.09-3.05,1.77-4.75,2.5c-0.74-3.54,1.29-7.08,1-10.49c-0.26-3.07-4.85-9.79-4.5-10.25
			c1.67-2.15,5.56,4.63-2.5-10.25c-0.45-2.44,0.61-4.61,0.5-5.25c-1.5-5.47-6.19-13.33-4-13.24c2.18,1.86,6.99,8.74,7.5,8.5
			c-0.02-9.99,2.63-2.15,6,7c1.61,4.38,2.52,9.01,4.5,13.24c3.65-20.67,2.73-43.62,14.99-61.72c1.31-1.93,2.71-2.98,4-4.5
			C965.98,370.25,968.64,369.86,971.11,370.27z"/>
		<g>
			<g>
				<path class="st13" d="M919.64,386.27c7.84,3.71,9.43,6.39,14.49,12.49c-0.54,5.38,1.83,10.4,3,15.49
					c-0.51,0.25-5.31-6.64-7.5-8.5c-3.81-3.24-5.51-0.85-7.75-2c-1.91-0.98,1.94-6.91-20.24-9.75c1.95,13.01-6.46-2.04-7.25-2.25
					c-1.1-0.29-4.74,1.52-5,1.5c-1.66-0.11-13.27-8.39-18.49-8c-2.84-2.63-8.54-6.86-10.25-10c-2.06-3.78-0.15-5.12,1.25-4.5
					c1.13,0.5-0.06,3.57,2,5c1.26,0.87,7.87,1.86,10,3.5c10.2,2.5,23.15,2.16,28.99,3c0.4,0.06,0.1,0.94,0.5,1
					c3.14,0.46,8.07,0.49,11.49,1C916.45,384.83,918.09,385.77,919.64,386.27z"/>
				<path class="st8" d="M932.63,392.76c3.74,3.2,3.37,3.82,5.5,8c-2.48,1.63-2.77-0.51-4-2c-5.07-6.1-6.66-8.78-14.49-12.49
					C925.1,388.03,928.06,388.85,932.63,392.76z"/>
			</g>
			<g>
				<linearGradient id="SVGID_1_" gradientUnits="userSpaceOnUse" x1="918.3204" y1="401.9505" x2="898.1565" y2="416.7094">
					<stop  offset="0" style="stop-color:#5B3A3C"/>
					<stop  offset="1" style="stop-color:#A56F57"/>
				</linearGradient>
				<path class="st19" d="M929.63,405.76c-2.19-0.09,2.49,7.77,4,13.24c0.11,0.63-0.95,2.81-0.5,5.25c1.31,7.04,1.37,15.35,7,20.49
					c0.29,3.42-1.74,6.96-1,10.49c-0.9,0.39-0.15,1.43-1.5,0.5c-0.13-0.25-2.61-2.77-3.25-4.5c-0.44,0.37,0.02,0.83-0.75,1
					c-1.43,0.31-3.4,1.6-4.5,2.5c0-0.25,0-0.25,0-0.5c-1.5-1.5-1.5-1.5-3-3c0.38-0.84,2.38-2.97,1.25-3.5c-3.25,3-3.25,3-6.5,6
					c-0.25-4-0.25-4-0.5-8c-4.5,2.25-4.5,2.25-9,4.5c-0.17-10.05,3.98-7.31-7.25-5.75c-0.31-0.37,0.37-0.69,0.5-1.25
					c2.47,0.73,7.84-2.19,7-4.25c-0.75-1.84-19.93-19.27-23.24-23.24c-0.99,2.77-2.82,0.99-3.25,1c0.34-0.93,0.96-1.69,1.5-2.5
					c0.55-0.82,2.53-3.81,2.5-4.25c-0.1-1.26-10.24-11.06-11.99-12.74c-5.04-4.84-11.55-9.33-13.49-11.99c-1.62-2.22-4.54-7.57-3-10
					c1.7,3.13,7.41,7.37,10.25,10c5.22-0.39,16.83,7.89,18.49,8c0.26,0.02,3.9-1.79,5-1.5c0.78,0.21,9.2,15.25,7.25,2.25
					c22.18,2.84,18.33,8.76,20.24,9.75C924.12,404.91,925.82,402.51,929.63,405.76z"/>
				<path class="st11" d="M904.65,443.24c0.48-2.01,2.94-3.37,3.25-5.5c-10.72,1.9-32.6-2.8-10.25-6.25
					c-2.36-1.89-20.96-13.22-20.99-14.49c-0.02-0.91,6.79-0.22,8.5-0.25c0.43-0.01,2.26,1.77,3.25-1
					c3.31,3.97,22.49,21.4,23.24,23.24C912.48,441.05,907.11,443.97,904.65,443.24z"/>
				<path class="st11" d="M886.65,414.25c-1.69-3.53-13.99-11.31-13.99-12.24c0-0.77,4.69-2.9,4.5-4.75
					c1.75,1.68,11.89,11.48,11.99,12.74C889.19,410.45,887.2,413.43,886.65,414.25z"/>
				<path class="st20" d="M940.13,444.74c-5.63-5.14-5.69-13.45-7-20.49c8.06,14.87,4.17,8.09,2.5,10.25
					C935.27,434.95,939.87,441.67,940.13,444.74z"/>
			</g>
			<path class="st21" d="M937.63,455.73c0.47,0.91,1.77,3.08,0.25,3c-1.65-3.71-4.63-4.34-4.25-6.5c0.77-0.17,0.31-0.63,0.75-1
				C935.02,452.96,937.5,455.49,937.63,455.73z"/>
		</g>
		<path class="st8" d="M1032.58,333.29c-1.59,3.38,0.16,6.35-0.75,7c-4.97,0.35-11.53-0.9-11.24,1c-1.25,0.1-2.32,0.36-3.5,0.5
			c-20.13,2.46-37.3,10.91-50.48,26.49c-1.28,1.52-2.69,2.57-4,4.5c-1.15-3.24,3.17-4.28,1.5-7.75c-1.36-2.82-4.86-0.85-4.5-2.75
			c2.75-3.08,5.34-6.81,8.5-9.5C985.34,338.12,1010.45,332.07,1032.58,333.29z"/>
		<path class="st7" d="M968.12,352.78c-3.15,2.68-5.75,6.42-8.5,9.5c-2.37,2.66-4.79,5.18-7,8c-1.79,0.04-3.65-8.77-3.5-10.74
			c0.29-3.7,2.69-7.36,4-10.74C958.05,349.86,964.1,349.55,968.12,352.78z"/>
		<path class="st17" d="M938.13,400.76c2.59,5.08,8.23,17.44,5,20.49c-3.36-9.14-6.02-16.99-6-7c-1.17-5.1-3.54-10.11-3-15.49
			C935.36,400.24,935.65,402.39,938.13,400.76z"/>
		<g>
			<path class="st17" d="M1016.09,275.32c1.14,2.58,2.26,2.74,2.5,3c1.65,1.84,3.46,3.13,5,5c-4.66,1.19-9.8,1.76-14.49,3
				c8.15-4.74-2.17-3.78-6.25,0c-0.87-0.39,0.92-3.82,1.25-4.5C1008.37,278.94,1011.07,276.93,1016.09,275.32z"/>
			<path class="st7" d="M1024.59,270.82c0.74,0.63,1.62,0.79,4.5,3.5c-6.44-1.03-7.18-0.86-12.99,1c-5.02,1.61-7.72,3.63-11.99,6.5
				c2.48-5.13,7.37-8.88,12.99-9.75c-8.16-5.02-17.53,0.46-12.74-3.25C1010.53,264.03,1018.57,270.24,1024.59,270.82z"/>
			<g>
				<path class="st7" d="M1030.59,265.82c1.94,1.3,5.53,7.03,7.5,9c-1.07,1.21-0.91,2.87-1,3c-0.14,0.2-0.36,0.81-0.5,1
					c-0.08,0.11-1.27,0.48-1.75,2c-2.47-1.57-5.43,1.01-11.24,2.5c-1.54-1.86-3.35-3.16-5-5c7.37,0.5,7.37,0.5,14.74,1
					c1.44-0.87-3.96-4.73-4.25-5c-2.88-2.71-3.76-2.87-4.5-3.5c-3.81-3.25-9.42-6.54-8.75-9.5
					C1019.71,262.37,1027.38,263.68,1030.59,265.82z"/>
				<path class="st14" d="M1057.57,274.32c-3.75-0.62-7.02-3.16-10.99-3c-2.73,0.11-6.63,1.39-8.5,3.5c-1.97-1.97-5.55-7.7-7.5-9
					c1.56-8.54,0.75,3.23,10.74-2.5c-1.04,0.73-5.2,6.15-3,7c4.2,1.62,6.39-4.91,10.49-3c1.22,0.57,0.23,2.18,1.5,3
					C1051.61,271.15,1053.6,270.48,1057.57,274.32z"/>
				<path class="st8" d="M1046.58,271.32c5.01,3.08-0.1,5.44,5.25,7c2.13,0.62,1.94-0.8,2.25-1c1.87,1.01,2.01,2.77,4,4
					c-10.49-1.75-10.49-1.75-20.99-3.5c0.09-0.13-0.07-1.79,1-3C1039.95,272.71,1043.85,271.43,1046.58,271.32z"/>
				<path class="st8" d="M1057.57,274.32c7.77,7.51-0.06,2.29-1.75,2c-3.3-0.56-1.62,0.92-1.75,1c-0.31,0.19-0.12,1.62-2.25,1
					c-5.35-1.56-0.23-3.92-5.25-7C1050.55,271.16,1053.82,273.7,1057.57,274.32z"/>
			</g>
			<path class="st8" d="M1029.09,274.32c0.28,0.27,5.69,4.12,4.25,5c-7.37-0.5-7.37-0.5-14.74-1c-0.24-0.26-1.35-0.42-2.5-3
				C1021.91,273.46,1022.64,273.29,1029.09,274.32z"/>
		</g>
		<path class="st8" d="M960.12,554.69c-0.16,0.06-2.46,2.08-2.5,2.25c-0.39,1.79,6.53,17.03,4,22.24c-1.04,2.13-1.35,1.4-2.5,2.5
			c-1.08,1.04-2.33,2.05-3.5,3c-9.39-17.79-6.01-12.89-8.5,5.25c-8.98,1.74-4.9-8.76-6.25-19.24c-5.23,2.45-8.59,6.79-12.24,10.99
			c-1.1,1.27-2.57,2.36-3.25,4c-2.44-1.21,6.36-16.09,7.5-17.99c-5.37,4.87-5.37,4.87-10.74,9.75
			c5.77-14.01,16.12-17.74,15.99-18.99c-0.16-1.57-3.48,0.39-1-3c0.84-1.15,3.53-0.87,6-3.75c5.37,1,5.37,1,10.74,2
			c1.13-0.38,1.35-4.48,1.75-5.5C957.25,548.21,961.14,553.02,960.12,554.69z"/>
		<path class="st20" d="M955.62,584.67c0.68,1.28,0.71,5.52,3.25,4.5c3.07-1.24,2.21-6.3,0.25-7.5c1.14-1.1,1.46-0.37,2.5-2.5
			c0.87,3.75,0.87,3.75,1.75,7.5c4.37-0.5,4.37-0.5,8.75-1c-0.01,0.12,1.14,0.8,0.25,2.5c-5,0.25-5,0.25-10,0.5
			c-3.12,5.62-3.12,5.62-6.25,11.24c2.43,1.16,7.51,0.9,8.25,1.25c0.96,0.45,3.94,6.08,4.75,7.5c-5.47-1.44-17.23-1.42-19.99-2
			c-17.54-3.66,0.49-13.11-12.74-8c-2.04-0.11-7.88-0.1-8.25-1.25c1.6-10.43,0.42-5.26-0.5-7c-1-1.9,1.55-6.65,1-8.75
			c3.65-4.2,7.02-8.55,12.24-10.99c1.35,10.48-2.74,20.98,6.25,19.24C949.61,571.78,946.23,566.88,955.62,584.67z"/>
		<path class="st8" d="M969.12,608.66c1.23,2.15,2.77,4.06,3.5,6.5c-8.98,0.46-16.82,6.94-24.99,0.75c2.84,3.58-0.82,6.99-0.5,9.5
			c0.27,2.13,6.24,7.77,7.5,9.75c0.16,0.25,0.77,3.25,2.5,5.5c-1.72-0.16-3.52,0.11-5.25,0c-0.66-2.71-9.76-5.49-13.24-6.5
			c-2.6-0.75-5.9-1.65-9-1.5c0.25-1.81,1.87-1.4,0.75-4.5c7.01,1.18,2.24-6.85,10.25-5.75c-4.34-9.04-3.79-3.29,6-5
			c-5.82-9.77,6.89,6.68,2.5-10.74C951.89,607.24,963.64,607.22,969.12,608.66z"/>
		<path class="st20" d="M951.62,453.73c-1.75,9.37-1.75,9.37-3.5,18.74c9.52-0.82,4.64,8.01,9,7.75c-0.33,0.57-1,4.03-1.25,4
			c-1.1-7.96-5.5,8.21-2.75-8.25c-11.46-3.24-3.95,14.74-5.5,18.49c-0.17,0.41-4.33,0.56-4,7.25c-0.07-0.06-0.76,1.15-1.75,0.5
			c-2.72-1.8,0.04-11.94-0.75-13.74c-0.51-1.15-4.78,1-4-8c0.05-0.6,1.49-2.83,1.5-3c0.29-4.88-1.28-7.61-1-8.5
			c0.25-0.79,4.26-0.04,0.5-6.25c2.2-1.68,5.35-5.09,7.5-6.5c1.49-0.98,3.52-1.53,4.75-3C951,453.48,951,453.48,951.62,453.73z"/>
		<g>
			<path class="st8" d="M1138.53,601.16c3.01,1.19,3.33,0.45,3.5,0.5c0.11,0.03-0.09,1.04,1.75,1.5c1.84,0.46,4.36,0,6.25,1
				c0.5,0,0.5,0,1,0c-4.44,4.49,1.23,4.18,9,6.75c-0.07,0.45-4.84,0.65-5.5,0.75c-0.15,0.02-2.39-1.68-1.5,1.25
				c-9.42,4.51,7.7,7.14,8.75,7.75c3.53,2.06-0.09,4.29,1.5,5.5c3.27,2.49,2.9-2.46,3.25-3c1.16,0.53,5.97,0.85,6.25,1
				c0.62,0.34-0.75,3.69-0.25,4.5c-0.06,0-0.37,0.98-0.75,1c-5.09,0.3-9.57,1.31-14.74,2c-20.26,2.7-9.72-0.01-11.99-4
				c-0.23-0.4-5.89-1.5-6.5-1.5c1.75-7.12,1.75-7.12,3.5-14.24c-4.5-1.12-4.5-1.12-9-2.25c0.23-1.56-0.16-3.6,0-5.25
				C1135.43,601.62,1138.25,601.31,1138.53,601.16z"/>
			<path class="st8" d="M1154.53,611.66c-2.77,0.7,2.01,0.8,3.75,1.5c1.28,0.51,11.3,6.58,11.24,7.25c-0.03,0.35-1.76,0.79-3,2.75
				c-0.34,0.54,0.02,5.49-3.25,3c-1.59-1.21,2.04-3.44-1.5-5.5c-1.04-0.61-18.16-3.24-8.75-7.75
				C1152.14,609.98,1154.37,611.68,1154.53,611.66z"/>
			<path class="st20" d="M1145.03,627.65c-1.2,0.77-2.41,1.58-3.5,2.5c-0.74-2.05-4.21-2.37-6-3c0.22-0.37,2.84-1,3-1
				C1139.14,626.15,1144.8,627.25,1145.03,627.65z"/>
		</g>
		<path class="st17" d="M972.61,615.16c0.75,4.25,0.75,4.25,1.5,8.5c1.98,7.66,7.94,13.34,10.99,20.49
			c-4.94-0.55-9.62-1.88-14.49-2.5c-1.53-0.2-4.13-1.28-7-1.5c-1.78-5.86-2.7-6.47-9-5c-1.26-1.97-7.23-7.61-7.5-9.75
			c-0.32-2.51,3.34-5.91,0.5-9.5C955.79,622.1,963.63,615.62,972.61,615.16z"/>
		<path class="st7" d="M1055.07,466.23c0.25,2.5,0.25,2.5,0.5,5c-0.11,0.06-1.2,1.67-1.5,2c-11.2,7.31-26.21,2.8-34.98-6.25
			c9.22,13.87,18.23,12.07,32.48,12.24c0.17,0,0.33,0,0.5,0c1.08,4.84-0.96,15.25,6.5,13.99c-2.09,6.13-9.58,12.52-7,14.49
			c-7.59,5.36-0.47-1.99-2.75-3.5c-2.96,3.18-7.9,8.06-4.75,0.25c-1.51-1.93-6.82,5.25-1.75-10.25c-10.42,8.37-18.5,18.11-9-1
			c-6.57,3.59-14.85,12.32-14.24,6.25c0.32-3.15,20.53-20.18-1.25-3.25c-0.33-1.44-2.2-3.77-2.25-4c-0.49-2.13,1.05-27.66,1-33.98
			c9.04,16.35,7.66,10.25,9.5-5.5C1030.55,457.51,1048.7,467.31,1055.07,466.23z"/>
		<path class="st7" d="M967.62,461.73c4.2,6.3,24.25,8.92,29.99,7.5c-0.26,1.65,0.97,2.37,1,2.5c0.03,0.13-0.54,0.86,0,2.75
			c1.8,6.27,8.98,25.23,5.5,21.24c-6.43-7.09-0.39,3.2-2.75,5c-5.25-5.25-5.25-5.25-10.49-10.5c-0.99,0.42,1.95,4.72-1.25,2.75
			c3.88,8.28-2.06,4.48-7.75-2.25c-4.03,3.17-4.02,1.88-4.25,2c-5.81-9.68-2.68-8.27-5-6.5c-6.23,4.78-6.71,5.33-7.75-4
			c-0.97,0.84-4.63,3.85-5.25,2.25c0.12-3.87,0.12-3.87,0.25-7.75c-0.87,1.55-2.64,3.31-2.75,3.5c-4.36,0.27,0.53-8.56-9-7.75
			c1.75-9.37,1.75-9.37,3.5-18.74C955.98,460.27,960.04,461.76,967.62,461.73z"/>
		<path class="st8" d="M1087.56,509.21c0.53,2.03,3.75,2.52,5.5,3c3.34,0.9,6.89,1.12,10.25,2c-3.9,6.19-5.58,4.08-1.75,9.25
			c6.44,8.67,24.16,18.12,33.48,24.49c-0.95,1.82-2.32,6.85-3,7.75c-3.42,4.52,0.63-2.9-4.75-5c-1.05,6.33-7.29,10.14-9.25,16.24
			c-6.24,1.27-0.6-16.29-4.25-16.24c-1.2,0.02-3.49,4.22,0.25-4.25c-2.98-1.09-1.97-1.31-2.75-2.25c-0.03-0.03-0.57,0.73-0.75,0.5
			c-0.7-0.91-7.31-16.09-11.24-19.99c-4,0.75-4,0.75-8,1.5C1074.88,510.39,1074.24,513.33,1087.56,509.21z"/>
		<g>
			<path class="st8" d="M1000.6,528.2c-1.27,1.22-4.91,4.62-6,5.5c-1.88,1.53-4.46,3.09-6.5,4.5c-4.82,3.32-9.99,6.08-14.74,9.5
				c-8.25-1.25-8.25-1.25-16.49-2.5c-0.54,0.95-0.85,1.99-1.25,3c-0.4,1.02-0.62,5.12-1.75,5.5c-5.37-1-5.37-1-10.74-2
				c7.53-8.8-8.39,4.67-9.25,4.5c-5.89-1.21,11.12-12.73,12.24-13.24c0.19-0.76-2.03-3.14-3-4.75c-0.58-0.96-1.2-1.95-2-2.75
				c0.37-0.37,0.37-0.37,0.75-0.75c3.25,2,3.25,2,6.5,4c2.05-0.31,9.36-30.76,7.5-8c4.37-6.25,4.37-6.25,8.75-12.49
				c2.05,0.4,9.02-6.84,11.49-9c3.18,0.76,21.27,8.59,20.99,11.24c-0.04,0.35-4.37,4.14-5,5
				C995.29,527.1,1000.55,526.07,1000.6,528.2z"/>
			<path class="st8" d="M1000.6,528.2c-0.05-2.13-5.31-1.1-8.5-2.75c0.63-0.86,4.96-4.65,5-5c0.28-2.66-17.81-10.48-20.99-11.24
				c1.65-1.44,7.56-7.88,9.25-8c5.67,1.48,18.02,6.02,20.49,3c3.41,3.82,8.43,5.76,12.99,8c-3.25,7.25-3.25,7.25-6.5,14.49
				c-1.48-0.35-9.53-5.82-10-5.5c-1.08,0.75,1.16,3.91,0.75,5.25C1002.95,526.91,1001.18,527.64,1000.6,528.2z"/>
		</g>
		<path class="st16" d="M1015.59,492.22c-0.29,0.91-2.53,2.7-3.25,2.5c-0.71-0.2-5.38-9.23-3,7.5c-0.6,0.19-4.61-5.79-5.25-6.5
			c3.48,3.99-3.7-14.97-5.5-21.24c-0.54-1.89,0.03-2.61,0-2.75c3.53,2.59,4.9,2.74,9,2.5c0.08,0,0.72,1.76,1.5,0.75
			c0.97-6.17,4.51-11.4,7.5-16.74C1016.64,464.56,1015.1,490.09,1015.59,492.22z"/>
		<path class="st8" d="M1057.07,531.2c0.43,3.21-2.03,0.55-6.25,2c-5.12,1.76-12.69,12.45-5-2c-2.69,0.84-6.21,10.04-9,9.5
			c-5.18-1.02,6.01-4.94,4.75-7.25c-7.11-0.13-7.58,1.23-8,1.25c-2.99,0.13-2.37-0.47-2.5-0.5c1.19-1.62,10.93-4.95,11.24-5.5
			c0.68-1.2-4.24-0.75,3-5.5C1046.64,528.07,1054.02,528.16,1057.07,531.2z"/>
		<path class="st8" d="M1076.06,530.7c-0.31,1.94-0.58,4.09-1,6c-7,0.5-7,0.5-13.99,1c0.54-2.6,1.43-3.15,1.5-3.5
			c0.17-0.85-0.77-2.66-0.75-3.5C1068.94,530.7,1068.94,530.7,1076.06,530.7z"/>
		<path class="st8" d="M1093.06,512.21c-1.75-0.47-4.97-0.96-5.5-3c8.08-2.5,16.36-5.21,24.49-7.5c1.02,0.52-1.76,2.6-3.25,3.5
			C1103.87,508.19,1097.2,509.37,1093.06,512.21z"/>
		<path class="st8" d="M994.6,533.7c1.11,16.59,1.2,16.08-6.5,4.5C990.15,536.79,992.73,535.22,994.6,533.7z"/>
		<path class="st8" d="M977.61,492.71c-0.3,0.16-0.72,0.32-1,0.5c0.05-2.46-1.56,1.19-2.75,1c-3-0.48-1.37-5.69-1.25-8
			C974.93,484.44,971.8,483.04,977.61,492.71z"/>
		<path class="st8" d="M1103.55,550.69c-1.77,1.89-3.07,4.59-5,6.5c-0.75-2-0.75-2-1.5-4c1.85-1.24,4.06-2.81,5-5.5
			C1102.55,549.22,1102.11,549.74,1103.55,550.69z"/>
		<g>
			
				<linearGradient id="SVGID_00000139986082338844871450000000685834974492828856_" gradientUnits="userSpaceOnUse" x1="1050.1345" y1="519.0446" x2="968.6754" y2="537.2117">
				<stop  offset="0" style="stop-color:#502216"/>
				<stop  offset="1" style="stop-color:#5F4A1B"/>
			</linearGradient>
			<path style="fill:url(#SVGID_00000139986082338844871450000000685834974492828856_);" d="M1121.54,490.72
				c3.82,4.06,6.19,9.1,10.49,12.74c-5.06,4.25,10.74,8.61,4.5,15.74c-3.26-3.97-6.18-6.63-10-10c-3.41-3-6.82-6.01-10.25-9
				c-0.9-0.18-2.61,1.04-4.25,1.5c-8.13,2.29-16.4,5-24.49,7.5c-13.32,4.12-12.68,1.18,3.75,16.99c4-0.75,4-0.75,8-1.5
				c3.94,3.9,10.54,19.08,11.24,19.99c-2.18,2.12-4.91,3.77-7,6c-1.44-0.95-1-1.47-1.5-3c-0.6-1.84-1.44-3.7-2-5.5
				c-0.4-1.3-0.97-4.15,0-5.25c-9.36-3.73-21.31-18.35-22.74-18.74c-2.46-0.68,4.88,5.27-2.75,6.5c-4.33-7.73-1.48-1.46-7,0.75
				c4.26,2.69,2.13,5.43,8.5,2.75c0.2,1.08,0.42,1.27,0,2.5c-7.12,0-7.12,0-14.24,0c-0.02,0.84,0.92,2.65,0.75,3.5
				c-1.59-0.44-1.66,1.32-3.25,2.5c-0.33-0.24-0.04-2.13-1.25-4c-0.38-0.58-0.51-1.02-1-1.5c-3.06-3.04-10.43-3.13-11.74-8
				c-7.24,4.75-2.31,4.3-3,5.5c-0.31,0.54-10.05,3.87-11.24,5.5c-0.67-0.13-2.09,0.29-2.5-0.25c3-3.25,3-3.25,6-6.5
				c-1.19-0.83-3.09-1.01-3.5-1.25c-0.58-0.33-0.95-0.47-1-0.5c-0.99-0.62-2.01-1.35-3-2c-0.68-0.45-2.9-3.65-3.75-3.5
				c-1.56,1.62-2.47,5.09-2.75,5.5c-0.7,1-1.55,2.96-2.25,3.5c-0.72,0.54-15.97,6.36-16.24,7.75c-0.45,2.28,7.6,2.94-4.5,10
				c3.28,4.99,7.39,6.18,2.5,8.5c7.07,1.09,4.33,0.99-0.5,2.75c-6.68-7.1-7.95-11.77-11.24-7.5c-3.97-4.54-2.74,9.65-3.75,15.74
				c-19.49-5.06-17.56-18.16-21.49-12.99c5.62,8.56-0.06,0.16-3,1.25c1.02-1.66-2.87-6.48-4.5-6.5c0.4-1.01,0.71-2.05,1.25-3
				c8.25,1.25,8.25,1.25,16.49,2.5c4.75-3.42,9.92-6.18,14.74-9.5c7.7,11.58,7.6,12.09,6.5-4.5c1.08-0.88,4.72-4.27,6-5.5
				c0.58-0.56,2.35-1.28,2.5-1.75c0.41-1.34-1.83-4.5-0.75-5.25c0.47-0.33,8.52,5.15,10,5.5c3.25-7.25,3.25-7.25,6.5-14.49
				c-4.57-2.23-9.58-4.18-12.99-8c-2.47,3.02-14.82-1.52-20.49-3c-1.69,0.12-7.59,6.56-9.25,8c-2.48,2.16-9.44,9.4-11.49,9
				c-9.1-1.79,5.94-18.11,10.5-19.74c-0.09-0.87-7.51,0.53,1.5-5.25c0.28-0.18,0.7-0.34,1-0.5c0.23-0.12,0.22,1.17,4.25-2
				c5.69,6.73,11.62,10.53,7.75,2.25c3.2,1.97,0.26-2.33,1.25-2.75c5.25,5.25,5.25,5.25,10.49,10.5c2.36-1.8-3.68-12.09,2.75-5
				c0.64,0.7,4.64,6.69,5.25,6.5c-2.38-16.72,2.29-7.69,3-7.5c0.72,0.2,2.96-1.59,3.25-2.5c0.05,0.22,1.92,2.56,2.25,4
				c21.78-16.93,1.57,0.1,1.25,3.25c-0.61,6.07,7.67-2.66,14.24-6.25c-9.51,19.11-1.42,9.37,9,1c-5.07,15.49,0.24,8.31,1.75,10.25
				c-3.15,7.81,1.79,2.93,4.75-0.25c2.28,1.51-4.84,8.86,2.75,3.5c7.57-5.34,2.98-2.26,2.75,5.5c8.29-11.12,2.65,0.37,7.25-1.75
				c-0.37-3.87-0.37-3.87-0.75-7.75c2.5,3.25,2.5,3.25,5,6.5c1.78,0.16-1.53-5.95-0.5-6.5c4.85,2.09,8.23,8.69,6.25-1.25
				c0.8-1.89,3.72,1.16,4.25,0.75c0.93-0.72-1.16-10.51,4,0.5c0.84-0.41-0.26-6.67,2.75-5.25c-2.7-11.08,8.34,11.27,4.75-4.75
				c2.92-1.65,1.92,10.09,9-1c0.37,0.37,0.37,0.37,0.75,0.75c-0.87,3.87-0.87,3.87-1.75,7.75c1.04-0.89,4.05-8.32,4.5-8.5
				c0.26-0.1,3.3,4.28,4.25,2.75c-6.58-14.06,0.54-0.9,1.25-0.75c0.34,0.07,5.31-2.84,6-3.5c-1.35,11.1,2.7,1,4.5,1
				c0.3,0,4,4.64,4.75,2.25C1121.03,492.9,1111.93,480.51,1121.54,490.72z"/>
			<g>
				<path class="st13" d="M986.86,543.19c0.36-0.08,5.1,5.09,1.5,5.5C984.46,549.13,986.51,543.27,986.86,543.19z"/>
				<g>
					<path class="st8" d="M1074.56,524.7c0.61,1.09,1.27,2.25,1.5,3.5c-6.36,2.68-4.24-0.06-8.5-2.75
						C1073.08,523.24,1070.24,516.97,1074.56,524.7z"/>
					<path class="st8" d="M1061.82,515.7c11.23,6.11,0.55,0.49-6.25,4.75C1057.27,513.12,1061.91,518.92,1061.82,515.7z"/>
					<path class="st8" d="M1040.33,517.2c8.94-0.18,2,1.23-5.75,3.25C1033.96,519.3,1038.2,517.25,1040.33,517.2z"/>
					<path class="st8" d="M1059.82,520.2c0.22,0.03,2.53,3.7,2,4C1054.59,525.16,1059.39,520.15,1059.82,520.2z"/>
					<path class="st8" d="M1064.82,512.71c5.25-0.88,11.65,4.31-0.5,1C1063.8,513.53,1064.66,512.73,1064.82,512.71z"/>
					<path class="st23" d="M1027.09,523.7c0.99,0.65,2.01,1.38,3,2C1026.29,527.23,1023.66,525.23,1027.09,523.7z"/>
				</g>
			</g>
		</g>
		<path class="st14" d="M1094.06,447.24c2.88,3.93,8.87,5.86,13.49,7c3.29,3.43,10.97,12.58,11.74,12.99c0.23,0.12,1.09-0.07,1.75,0
			c-1.2,0.34-9.87,3.11-10.25,3.5c-1.23,1.28,3.4,1.64-5.5,6c-8-2.46-11.04-9.69-14.74-16.49c-2.84-5.21-2.23-6.09-1.5,3.5
			c0.11,3.38-0.41,2.61-1.5,4.5c-5.31,4.36-13.2,8.71-19.99,8c-1.47-0.15-2.2-0.52-3.5-1c0.83-2.42,1.55-8.99,2.5-10.5
			c1.17-1.84,12.19-5.51,16.99-13.49c0.42-0.7,1.8-1.77,2-3.25c0.16-1.19-0.5-1.34-0.5-1.75c1.21,0.06,1.09-6.04,1-7.5
			C1088,442.21,1090.26,445.55,1094.06,447.24z"/>
		<path class="st23" d="M1152.03,448.24c0.29,0.29,0.74,0.72,1,1c1.76,1.85,3.03,4.8,5,5c-0.09,0.07-0.62,0.98-0.5,1.5
			c-0.37-0.16-3.97-0.01-7.75-2c0.24,3.79-0.27,4.75-0.25,5c-9.12,0-9.12,0-18.24,0c3.87,2.62,3.87,2.62,7.75,5.25
			c-0.15,0.31-3.77,0.62-4.5,0.75c-3-3.37-3-3.37-6-6.75c23.61-9.21-1.82-4.07-5.75-4.75c-0.11-0.02-1.73-1.04-1.75-1.25
			c5.25-3.75,5.25-3.75,10.49-7.5c-7.75,0.37-7.75,0.37-15.49,0.75c3.55-2.97,4.71-8.99,5-9.5
			C1131.95,434.99,1144.34,440.63,1152.03,448.24z"/>
		<path class="st7" d="M1059.07,479.22c1.72,5.06,1.16,9.13-0.5,13.99c-7.45,1.26-5.41-9.15-6.5-13.99
			C1054.39,479.23,1056.76,479.32,1059.07,479.22z"/>
		<path class="st20" d="M1087.56,468.23c-4.02,7-13.45,10.24-20.99,10.99c0.5-1.5,0.5-1.5,1-3
			C1074.36,476.94,1082.25,472.59,1087.56,468.23z"/>
		<g>
			<path class="st17" d="M1157.53,455.73c2.15,0.95,2.94,3.07,4,4c-3.25,0.26,3.77,10.13,2.5,13.74c-0.63,1.81-3.15,1.05-3.5,2.5
				c-0.33,1.36,3.88,6.08-3.5,12.49c4.75,12.94-2.83,10.89-3.5,10c-0.39-0.53,1.99-5.71-2-9c2.07-4.31,0.61-12.61-2-16.24
				c0.01-0.42,0.37-0.52,0.5-1c0.61-2.23,1.08-4.66,1-7c-0.08-2.27-1.31-3.99-1.5-6.5c-0.02-0.25,0.49-1.21,0.25-5
				C1153.56,455.72,1157.16,455.57,1157.53,455.73z"/>
			<path class="st8" d="M1162.52,455.73c1.91,3.38,4.87,9.13-1,4c-1.06-0.93-1.84-3.05-4-4c-0.12-0.52,0.41-1.43,0.5-1.5
				C1161.24,451.82,1161.15,453.3,1162.52,455.73z"/>
			<path class="st12" d="M1151.03,465.23c0.08,2.34-0.39,4.77-1,7C1147.96,470.68,1148.9,466.47,1151.03,465.23z"/>
		</g>
		<path class="st8" d="M1090.56,460.23c-0.75,1.75-0.75,1.75-1.5,3.5C1088.32,454.14,1087.72,455.02,1090.56,460.23z"/>
		<path class="st8" d="M1154.03,566.18c-0.77-0.2-1.18,0.56-1.5,1c-1.64,2.24,0.5,3.52-0.5,6.5c-0.24-0.57-2.08-4.21-2.75-4
			c-1.22,1.47-3.89,9.59-4.25,10c-0.71,0.8-3.29,1.67-4,0.75c-0.4-0.51,2.68-5.38,3-6.25c0.19-0.53-0.19-1.76,0-2.25
			c1.32-3.35,4.32-6.94,5-10.74C1150.46,561.65,1152.83,565.04,1154.03,566.18z"/>
		<path class="st8" d="M1149.03,561.18c-0.68,3.81-3.68,7.4-5,10.74c-0.19,0.49,0.19,1.72,0,2.25c-2.92-1.63-5.62,1.04-7.5-1
			C1138.69,571.07,1146.67,560.41,1149.03,561.18z"/>
		<path class="st14" d="M1151.03,403.76c1.8,10.34-0.79,13.46,5.5,8c1.64-1.42,2.84-0.71,2.5-2c3-0.07,4.38,0.7,7,2
			c-1.04,4.35-1.69,8.62-2.5,12.99c-0.34,1.84-0.68,3.66-1,5.5c-1.19,6.76-0.44,7.13-0.5,7.5c-0.48,3.11-0.93,3.67-1,4
			c-0.27,1.28-1.27,6.57-2.25,7c-0.79,0.34-4.2-0.96-6.75-0.5c-7.69-7.61-20.08-13.25-30.99-12.49c0.28-0.48,0.62-0.88,0.5-1.5
			c3.41-5.94,8.15-10.98,13.49-15.24c-6.69-3.72-13.73-6.56-21.49-6.75c1.69-4.88,13.29-6.8,12.49-12.49
			C1132.93,399.39,1147.08,398.46,1151.03,403.76z"/>
		<path class="st17" d="M1138.53,626.15c-0.16,0-2.78,0.63-3,1c-2.83-1-5.47-1.55-5-2.5c1.75-4.9,1.74-9.86,2.5-14.99
			c4.5,1.12,4.5,1.12,9,2.25C1140.28,619.03,1140.28,619.03,1138.53,626.15z"/>
		<path class="st20" d="M1141.53,585.67c1.01,1.47,1.16,1.86,2.5,3.5c3.2,3.93,8.58,11.28,12.49,10.25
			c-3.25,2.37-3.25,2.37-6.5,4.75c-1.89-1-4.41-0.54-6.25-1c-1.84-0.46-1.64-1.46-1.75-1.5c0.34-1.21,1.4-1.67,1.5-3
			C1143.87,594.25,1137.28,588.61,1141.53,585.67z"/>
		<path class="st8" d="M1152.03,573.68c2,4.75,2.15,12.75,3,17.99c-0.19-0.07-3.27,0.3-4-0.25c-2.27-4.31-4.9-6.62-6-11.74
			c0.36-0.41,3.03-8.52,4.25-10C1149.94,569.46,1151.79,573.1,1152.03,573.68z"/>
		<path class="st14" d="M1151.03,403.76c-3.95-5.29-18.1-4.37-24.99-4c-4.51,0.24-9.07,0.57-13.49,1.5c-2.25-1-2.25-1-4.5-2
			c2.69-0.67,5.52-1.02,8.25-1.5c0.49-0.09,1.84-1.48,2-1.5c4.99-0.7,24.94,3.57,23.74-5.75c-0.74-5.75-8.7-2.95-9.25-3.25
			c-0.52-0.29,2.87-4.81-8.5-5.5c-4.95-0.3-1,1.98-3,2.5c-1.51,0.39-14.24-5.9-28.49,8c-11.14-3.89-20.13,17.13-3.5,13.99
			c2.69-0.51,5.92-2.87,6.25-3c2.55,0.27,5.32-0.81,6.5,1c-21.36,14.97-31.44-5.8-38.73,6c-9.13-0.75-8.91-2.49-14.49,5
			c-6.26-11.89-4.62-0.75-10.74-3.5c-2.71-1.22-1.61-3.14-12.49-3.5c-0.67-1.2-3.25,0.33-2-1.5c14.63-1.2,4.27-22.49-12.24-14.99
			c-0.73-0.14-2.44-6.62-7.5-8c-0.7-0.19-13.86-1.36-14.49-1c-0.91,0.52,1.07,2.43-0.5,3c-2.76,1-11.37-1.66-14.99-1
			c-1.98,0.36-5.35,3.78-7,5c-0.24,0.17-1.55-0.16-1.75,0c-4.43-7.03,0.82-14.5,6-19.49c1.77-1.7,9.41-7,11.74-8
			c5.44-2.33,13.83-0.82,2.75-4.75c-1.47-4.7,33.47-11.25,31.49-15.74c1.17-0.14,2.25-0.4,3.5-0.5c21.97-1.7,27.63,2.65,37.48,22.24
			c-0.64,11.48,1.64,3.91,3,6c1.12,3.87,1.12,3.87,2.25,7.75c2.97-2.9,0.42-21.17,1.5-21.49c1.52-0.46,3.74,11.52,4.25-8
			c5.72-5.46,7.39-7.06,16.24-7.5c15.28-0.75,40.8,9.82,50.73,21.74C1145.9,373.88,1148.47,389.04,1151.03,403.76z"/>
		<path class="st20" d="M1023.59,406.76c-7.37,0.6-11.47-2.9-17.49-5c-6.94-2.42-8.57-3.61-16.99-5.5
			c-20.72-4.64-11.99,0.33-15.74,2c-0.57,0.25-6.28,0.18-7.5,0.5c-3.5,0.93-8.8,4.04-9.25,2c2.89-3.1,5.38-8.46,8.5-10.99
			c0.2-0.16,1.51,0.17,1.75,0c1.65-1.22,5.02-4.64,7-5c3.62-0.66,12.23,2,14.99,1c1.57-0.57-0.41-2.48,0.5-3
			c0.63-0.36,13.79,0.81,14.49,1c5.06,1.37,6.77,7.86,7.5,8C1027.86,384.26,1038.22,405.56,1023.59,406.76z"/>
		<path class="st14" d="M980.61,438.24c0.49,1.27,0.89,5.23,3.5,7.5c-3.44,0.31-12.85-2.92-16.24-1.5
			c-5.56,2.33,11.11,3.37,12.24,5.5c-6.87,1.07-22.35-1.32-12.74,4.5c5.92,3.58,22.2,5.42,8.5,7c-2.41,0.28-5.83,0.49-8.25,0.5
			c-7.57,0.03-11.64-1.46-15.99-8c-0.62-0.25-0.62-0.25-1.25-0.5c-1.22,1.47-3.26,2.02-4.75,3c-0.23-5.14,10.81-19.51,14.74-21.49
			C968.61,430.59,973.5,434.67,980.61,438.24z"/>
		<path class="st24" d="M989.11,396.26c3.14,3.22,13.56,9.63,16.99,5.5c6.02,2.1,10.12,5.6,17.49,5c-1.26,1.83,1.33,0.3,2,1.5
			c-2.04-0.07-5.9,0.92-10.5,0.5c-7.75-0.71-20.63-7.58-44.73,1c-4.03,1.44-10.83,5.38-14.49,8c-1.33-0.37-1.08-15.85,0.75-16.99
			c0.45,2.04,5.75-1.07,9.25-2c1.22-0.32,6.93-0.25,7.5-0.5C977.12,396.59,968.38,391.62,989.11,396.26z"/>
		<path class="st16" d="M1038.08,411.75c1.83,6.64,5.26,12.87,5,19.99c-3.7,0.78-7.47,2.15-10.99,3.5
			c-0.5-13.71-5.95-19.46-16.99-26.49c4.59,0.42,8.45-0.57,10.5-0.5C1036.48,408.62,1035.37,410.54,1038.08,411.75z"/>
		<path class="st14" d="M1017.09,341.79c1.98,4.49-32.95,11.04-31.49,15.74c11.08,3.92,2.7,2.42-2.75,4.75
			c-2.34,1-9.97,6.29-11.74,8c-2.47-0.42-5.13-0.03-4.5-2C979.79,352.69,996.96,344.25,1017.09,341.79z"/>
		<path class="st7" d="M1021.09,440.74c-0.59,0.83-0.2,0.92,0,2c0.4,2.17,1.36,5.16,2.5,7c-1.62,3-1.62,3-3.25,6
			c-1.35-3.69-3.26-11.1-6.25-12.49c1.17-1.3,3.31-4.44,4-6c0.31-0.71,0.49-0.47,0.5-0.5
			C1021.39,437.12,1017.9,440.96,1021.09,440.74z"/>
		<path class="st20" d="M1083.06,599.66c-0.01,7.41-1.51,15.06-2,22.49c-3.07-0.42-2.88,5.21-4,7c-0.34,0.54-0.97,1.55-1.75,1.5
			c-10.49-3.25-10.49-3.25-20.99-6.5c-1.92-1.14,5.76-7.86,3-8c-13.96,8.55-6.08,11.4-24.99,7.5c-0.6,0.2-5.73,9.4-8.25,9.5
			c0-0.17,0-0.33,0-0.5c-0.15-9.01-2.74-22.96-2.5-37.48c4.54,5.63,2.63,6.95,8.5,4c0.63,3-1.06,6.5,0.25,7
			c4.75,0.25,4.75,0.25,9.5,0.5c3.23-23.38,4.07-0.66,6,0.5c3.97,2.39,4.59-6.36,6-8.5c1.01,10.64,3.12,13.06,2.5,0.5
			c2.75,4.25,2.75,4.25,5.5,8.5c2.98-1.51,0.05-19.73,8-0.5c3.24-16.08-0.27-14.71,8-1.5c-0.62-4.87-0.62-4.87-1.25-9.75
			c2.25,1,2.25,1,4.5,2c2.58-6.5,0.11-6.12,0-8.25c1.52,2.07,3.24,3.99,4.5,6.25C1083.82,597.3,1083.06,598.33,1083.06,599.66z"/>
		<path class="st17" d="M1075.06,536.69c-0.01,0.05,0.37-0.45,0,1c-7.61,3.84-15.04,13.16,0,7.25c-0.5-0.37-0.5-0.37-1-0.75
			c1.94-0.27,3.91-1.52,6-1.25c-3,2.62-3,2.62-6,5.25c-0.2,0.01-1.14-1.07-3,1.75c-4.39,6.65,2.35,5.58,5,1.75
			c2.62-1.25,2.62-1.25,5.25-2.5c-0.67,1.84-0.06,3.23,0.25,5c0.41,2.32,0.65,4.78,1.5,7c-0.29,0.17,0.79,1.59-5.5,3.25
			c2.66,0.6,3.69,1.04,1,1.75c-3.44-4-7.34-2.65-7.5-3.75c6.1-6.3,2.71-4.28-4-2c-1.23-5.53-6.03-7.24-2.5-9.5
			c-5.51-0.85-0.73-6.97-1-7.5c-0.87-1.75-4.95,6.11-2.5-5.75C1068.07,537.19,1068.07,537.19,1075.06,536.69z"/>
		<path class="st8" d="M1090.06,557.68c-0.1,0.56-0.31,1.51-0.5,2c-1.15,2.89-2.96,4.47-3,4.75c-0.13,0.99,0.98,1.17,1,1.25
			c0.1,0.42-0.13,0.78,0.5,2c0.58,1.13,2.46,3.11,3.5,4c0.74,0.89-0.12,1.28-0.5,3c-1.05-0.98-8.32-6.23-8.5-6.75
			c-0.78-2.33,4.74-5.45,2-7.25C1086.31,559.59,1088.36,558.77,1090.06,557.68z"/>
		<path class="st14" d="M1023.59,449.74c0.1,0.17,2.2,2.68,2.5,3c-1.83,15.75-0.45,21.85-9.5,5.5c-2.99,5.34-6.52,10.58-7.5,16.74
			c-0.78,1.01-1.42-0.75-1.5-0.75c-3.23-4.07-3.4-10.29-7.5-13.49c0.12-0.39-0.78-0.7-0.5-1.25c0.46-0.89,4.98-3.92,6-5
			c0.15-0.15-0.13-1.12,0-1.25c1.32-1.31,7.33-4.48,5.5-6.5c0.2-0.11,2.44-2.87,3-3.5c2.99,1.39,4.9,8.8,6.25,12.49
			C1021.96,452.73,1021.96,452.73,1023.59,449.74z"/>
		<path class="st20" d="M1054.07,473.22c-1.48,1.6-4,4.14-2.5,6c-14.25-0.17-23.26,1.62-32.48-12.24
			C1027.86,476.02,1042.88,480.54,1054.07,473.22z"/>
		<path class="st9" d="M1007.6,474.22c-4.09,0.24-5.47,0.1-9-2.5c-0.03-0.13-1.26-0.85-1-2.5c0.44-0.11,1.24,0.24,1.5-0.25
			c-0.31-3.47,0.05-5.08,1-8.25C1004.19,463.94,1004.37,470.16,1007.6,474.22z"/>
		<g>
			<path class="st14" d="M1100.05,542.19c-6.55,2.86-15.21,10.91-16.49,11.49c-0.22,0.1-1.05-0.23-2,0.5
				c-0.31-1.76-0.92-3.16-0.25-5c-2.62,1.25-2.62,1.25-5.25,2.5c0.09-0.13-0.49-1.29,1.5-2.75c-0.77-1.09-2.25-0.79-3.5-0.75
				c3-2.62,3-2.62,6-5.25c-2.09-0.27-4.05,0.98-6,1.25c-1.23,0.17-1.26,0.79-2-0.25c1.06-1.93,2.45-4.11,3-6.25
				c0.37-1.45-0.01-0.95,0-1c0.42-1.91,0.69-4.05,1-6c0.42-1.23,0.2-1.42,0-2.5c-0.23-1.25-0.89-2.41-1.5-3.5
				c7.63-1.22,0.29-7.17,2.75-6.5c1.43,0.39,13.38,15.01,22.74,18.74C1099.08,538.04,1099.65,540.89,1100.05,542.19z"/>
			<path class="st9" d="M1102.05,547.69c-0.94,2.69-3.15,4.26-5,5.5c-0.14,0.09,0-1.01-3,1c-5.25-0.25-5.25-0.25-10.49-0.5
				c1.28-0.59,9.94-8.63,16.49-11.49C1100.61,543.99,1101.45,545.85,1102.05,547.69z"/>
			<path class="st9" d="M1083.56,553.69c5.25,0.25,5.25,0.25,10.49,0.5c-1.63,1.09-3.77,3.36-4,3.5c-1.7,1.08-3.75,1.91-5.5,3
				c-0.94,0.59-1.43,0.46-1.5,0.5c-0.85-2.21-1.09-4.68-1.5-7C1082.51,553.45,1083.34,553.78,1083.56,553.69z"/>
			<path class="st7" d="M1097.05,553.19c0.75,2,0.75,2,1.5,4c-1.79,1.77-0.16,2.03-3.5,2c-1.23-0.01-0.25-2.76-5,1.5
				c-0.03-0.55,0.16-1.04-0.5-1c0.19-0.49,0.4-1.44,0.5-2c0.22-0.14,2.37-2.41,4-3.5C1097.06,552.17,1096.92,553.28,1097.05,553.19z
				"/>
		</g>
		<path class="st17" d="M1095.06,559.18c1.31,4.56-1.62,2.24-4.5,5.5c0-0.04-0.42,0.18-0.5-0.5c-0.13-1.13,0.05-2.35,0-3.5
			C1094.8,556.42,1093.83,559.17,1095.06,559.18z"/>
		<g>
			<path class="st7" d="M1021.59,530.7c-0.29,5.99,0.54,10.56-2,10.74c7.19,3.69,0.11,1.64-4.5,5.5c9.91-0.15,13.08-3.29,11.99,9.5
				c2.9,0.96,6.29,2.16,7.5,5.25c-3.09,2.81,0.07,11.05,2.75,12.49c3.22,1.73,2.21-3.46,2.75,1c0.89,7.3,7.76,19.26,15.74,11.49
				c1.66,9.06,0.12,6.87,2.75,3c2.14-3.16,4.22-6.27,6.25-9.5c5.87,0.12,5.87,0.12,11.74,0.25c-0.54-1.29-8.1-5.99-8-6.5
				c0.18-0.86,4.93,0.01,4-2.25c0.23,0,1.87,1.11,4.5,0.25c-9.68-7.21-7.03-3.49,1.5-5.75c2.69-0.71,1.66-1.15-1-1.75
				c6.29-1.66,5.21-3.07,5.5-3.25c0.07-0.04,0.56,0.09,1.5-0.5c2.74,1.8-2.78,4.92-2,7.25c0.17,0.51,7.44,5.76,8.5,6.75
				c-0.26,1.15-0.97,1.41-1,1.5c-1.26-0.38-2.77-0.25-4-0.5c-0.1-0.02,0.58-0.36-2-0.5c-0.53-0.03-0.85-0.99-1.5-0.25
				c1.25,3.75,1.25,3.75,2.5,7.5c0.16,0.9-0.53,0.48-1,1.25c-0.11,0.18-2.82,2.89-3,3c-0.07,0.04-0.95,0.48-1,0.5
				c-0.54,0.16-0.67,0.63-1.25,0.5c-0.8-0.18-5.64-5.99,0.25,2c0.11,2.12,2.58,1.74,0,8.25c-2.25-1-2.25-1-4.5-2
				c0.62,4.87,0.62,4.87,1.25,9.75c-8.26-13.21-4.76-14.58-8,1.5c-7.94-19.23-5.02-1.01-8,0.5c-2.75-4.25-2.75-4.25-5.5-8.5
				c0.62,12.56-1.48,10.14-2.5-0.5c-1.41,2.14-2.03,10.89-6,8.5c-1.93-1.16-2.77-23.88-6-0.5c-4.75-0.25-4.75-0.25-9.5-0.5
				c-1.31-0.49,0.38-4-0.25-7c-0.51-2.44-4.42-4.74-6-6.5c1.34-1.34,1.96-2.01,3.5-3.25c0.04-0.03-0.74-0.58-0.5-0.75
				c3.23-2.23,2.67,0.84,4.5,0.25c-3.19-4.09-6.14-7.21-9.75-9.75c-2.21,2.06-4.22,5-4.25,2.5c0.25-0.54,1.46-2.74,1.25-3
				c-4.37-1.5-4.37-1.5-8.75-3c0.99-2.03,1.86-4.32,2.5-6.5c1.03-0.29,2.84-1.18,2.25-2.5c-2.37,0.75-2.37,0.75-4.75,1.5
				c-0.45-5.69-2.78-2.16-3.75-2.5c-0.73-0.25-5.49-6.16-6.75-7.5c4.83-1.75,7.57-1.66,0.5-2.75c4.89-2.31,0.78-3.51-2.5-8.5
				c12.1-7.06,4.04-7.71,4.5-10c0.28-1.39,15.53-7.2,16.24-7.75c0.7-0.54,1.55-2.5,2.25-3.5
				C1023.84,524.5,1021.69,528.58,1021.59,530.7z"/>
			<path class="st14" d="M1062.57,534.2c-0.07,0.34-0.96,0.9-1.5,3.5c-2.45,11.86,1.62,4,2.5,5.75c0.26,0.53-4.51,6.65,1,7.5
				c-3.53,2.26,1.27,3.97,2.5,9.5c6.7-2.28,10.1-4.3,4,2c0.16,1.1,4.06-0.25,7.5,3.75c-8.53,2.26-11.18-1.46-1.5,5.75
				c-2.63,0.86-4.27-0.25-4.5-0.25c-14.25-0.23-12.41,1.64-13.99,17.99c-2.63,3.88-1.09,6.06-2.75-3
				c-7.99,7.76-14.86-4.2-15.74-11.49c1.78-0.41,4.29,1.11,4.5,0.75c0.21-0.38,0.53-7.42,1-8.75c1.92,2.85,4.08,13.22,5,13.74
				c0.35,0.2,6.57-1.48,3.5-5c4.71-2.26-2.34-3.21,2.5-10c-6.62-0.99,2.82-6.51-5.5-5.5c3.24-9.44-0.41-6.53-1-8.5
				c-0.56-1.87,0.77-2.83,2-4c-2.7-11.29-0.28-2.94,0-2.5c0.46,0.73,3.17,1.62,3.5,1c0.33-0.63-1.36-5.17,2.5-13.74
				c1.21,1.86,0.92,3.75,1.25,4C1060.91,535.51,1060.98,533.75,1062.57,534.2z"/>
			<path class="st9" d="M1031.09,534.2c0.12,0.03-0.49,0.63,2.5,0.5c2.19,0.52-0.7,2.02-3.5,5.75c0.93,3.34,13.52-2.24,4,8
				c1.07,1.32,9.89-2.01,0,5.5c3,2,3,2,6,4c-0.27,1.23-5.72-3.07-1.5,3.75c-2.7-1.07-2.79,2.07-4,0c-1.21-3.09-4.6-4.29-7.5-5.25
				c1.08-12.79-2.08-9.65-11.99-9.5c4.61-3.85,11.69-1.81,4.5-5.5c2.54-0.19,1.71-4.76,2-10.74c2.91-0.67,7.68-2.14,9.5-4.5
				c0.41,0.24,2.31,0.42,3.5,1.25c-3,3.25-3,3.25-6,6.5C1029,534.49,1030.42,534.06,1031.09,534.2z"/>
			<path class="st9" d="M1027.09,523.7c-3.43,1.53-0.79,3.53,3,2c0.05,0.03,0.42,0.17,1,0.5c-1.81,2.36-6.59,3.83-9.5,4.5
				c0.1-2.11,2.25-6.19-1-5c0.28-0.4,1.19-3.88,2.75-5.5C1024.19,520.05,1026.41,523.25,1027.09,523.7z"/>
			<path class="st9" d="M1072.57,571.68c0.93,2.26-3.82,1.39-4,2.25c-0.11,0.5,7.46,5.21,8,6.5c-5.87-0.12-5.87-0.12-11.74-0.25
				c-2.02,3.23-4.11,6.34-6.25,9.5C1060.15,573.32,1058.32,571.45,1072.57,571.68z"/>
			<path class="st9" d="M1038.58,561.68c3.83,6.2,3.53,1.78,4,2.25c1.47,6.18,1.06,0.36,3,3.25c-0.47,1.33-0.78,8.36-1,8.75
				c-0.2,0.36-2.72-1.16-4.5-0.75c-0.54-4.46,0.47,0.73-2.75-1c-2.68-1.44-5.84-9.68-2.75-12.49
				C1035.8,563.75,1035.88,560.62,1038.58,561.68z"/>
			<path class="st17" d="M1027.09,588.67c-1.58-1.82-1.05-2.95-3.5-3.5c-1.74-0.39-5.86,0.31-7.75,1c-0.37-0.37-0.37-0.37-0.75-0.75
				c0.86-1.09,1.92-2.51,2.5-3.75c0.03,2.5,2.04-0.44,4.25-2.5c3.6,2.54,6.56,5.65,9.75,9.75
				C1029.76,589.51,1030.32,586.44,1027.09,588.67z"/>
			<path class="st8" d="M1030.09,599.16c-5.87,2.95-3.95,1.63-8.5-4c0-0.17-0.01-0.33,0-0.5c0.8-0.61,1.8-1.3,2.5-2
				C1025.67,594.42,1029.57,596.73,1030.09,599.16z"/>
			<path class="st8" d="M1012.59,569.18c-4.83,1.37-2.48-0.78-2.5-1c2.37-0.75,2.37-0.75,4.75-1.5
				C1015.44,568,1013.62,568.89,1012.59,569.18z"/>
			<path class="st17" d="M1080.06,587.17c0.17,1.21-1.07,1.18-1,2.5c-5.89-7.99-1.05-2.18-0.25-2
				C1079.39,587.8,1079.52,587.33,1080.06,587.17z"/>
			<g>
				<path class="st17" d="M1057.07,531.2c0.49,0.48,0.62,0.92,1,1.5c-3.86,8.57-2.17,13.12-2.5,13.74c-0.33,0.62-3.04-0.27-3.5-1
					c-0.28-0.44-2.7-8.79,0,2.5c-1.23,1.17-2.56,2.13-2,4c0.59,1.97,4.24-0.95,1,8.5c8.32-1.01-1.13,4.51,5.5,5.5
					c-4.84,6.79,2.21,7.74-2.5,10c3.07,3.52-3.15,5.2-3.5,5c-0.91-0.53-3.08-10.89-5-13.74c-1.94-2.88-1.52,2.93-3-3.25
					c-0.47-0.46-0.17,3.95-4-2.25c-4.22-6.82,1.23-2.52,1.5-3.75c-3-2-3-2-6-4c9.89-7.51,1.07-4.17,0-5.5c9.52-10.24-3.07-4.65-4-8
					c2.8-3.72,5.69-5.23,3.5-5.75c0.42-0.02,0.89-1.38,8-1.25c1.26,2.31-9.92,6.23-4.75,7.25c2.78,0.55,6.3-8.66,9-9.5
					c-7.7,14.45-0.12,3.76,5,2C1055.04,531.75,1057.51,534.41,1057.07,531.2z"/>
				<path class="st8" d="M1047.33,546.19c6.18-0.95-5.87,13.81-4.75,6.25C1042.73,551.45,1046.48,546.32,1047.33,546.19z"/>
				<path class="st8" d="M1049.33,537.19c0.14,1.29-2.15,4.48-2.75,2.75C1047.95,538.57,1047.95,538.57,1049.33,537.19z"/>
			</g>
		</g>
		<path class="st8" d="M1075.06,537.69c-0.55,2.13-1.94,4.32-3,6.25c0.74,1.04,0.77,0.42,2,0.25c0.5,0.37,0.5,0.37,1,0.75
			C1060.03,550.85,1067.46,541.54,1075.06,537.69z"/>
		<path class="st8" d="M1074.07,548.19c1.24-0.04,2.73-0.34,3.5,0.75c-1.99,1.46-1.41,2.62-1.5,2.75c-2.64,3.84-9.39,4.9-5-1.75
			C1072.93,547.11,1073.86,548.2,1074.07,548.19z"/>
		<path class="st7" d="M1092.06,417.75c-10.06,7.51-6.05,18.3-6,19.49c0.02,0.5-0.03,1,0,1.5c0.09,1.46,0.21,7.55-1,7.5
			c-0.02-1.58,0.01-3.17,0-4.75c-3.02-2.62-6.39-4.54-10-6.25c-0.77-12.13,12.53-24.96,14.74-24.49c0.21,0.04,2.67,3.05,2.75,3.25
			C1092.63,414.18,1091.83,417.01,1092.06,417.75z"/>
		<path class="st7" d="M1066.57,464.73c-0.95,1.5-1.67,8.07-2.5,10.5c-2.1-0.78-5.44-2.04-6-4.5c-1.29-5.69,1.52-4.66,5.5-5.5
			C1064.46,465.04,1065.52,463.96,1066.57,464.73z"/>
		<g>
			<path class="st25" d="M1134.54,464.73c-4.47,0.79-9.13,1.25-13.49,2.5c-0.66-0.07-1.52,0.12-1.75,0
				c-0.77-0.41-8.46-9.56-11.74-12.99c-1.24-1.3-3.06-3.28-3.5-5c3.1-0.07,9.63-2.02,11.99-4c7.75-0.37,7.75-0.37,15.49-0.75
				c-5.25,3.75-5.25,3.75-10.49,7.5c0.02,0.21,1.64,1.23,1.75,1.25c3.93,0.67,29.36-4.46,5.75,4.75
				C1131.54,461.35,1131.54,461.35,1134.54,464.73z"/>
			<path class="st21" d="M1104.05,449.24c0.44,1.72,2.25,3.7,3.5,5c-4.63-1.13-10.61-3.06-13.49-7
				C1096.15,448.17,1101.76,449.28,1104.05,449.24z"/>
		</g>
		<path class="st9" d="M1126.04,399.76c0.79,5.7-10.81,7.61-12.49,12.49c-6.2-0.15-16.45,1.73-21.49,5.5
			c-0.23-0.74,0.57-3.57,0.5-3.75c-0.08-0.2-2.54-3.2-2.75-3.25c-2.22-0.47-15.52,12.36-14.74,24.49
			c-11.32-5.38-19.75-6.09-31.98-3.5c0.26-7.12-3.17-13.35-5-19.99c6.13,2.74,4.48-8.39,10.74,3.5c5.58-7.49,5.37-5.75,14.49-5
			c7.29-11.8,17.38,8.97,38.73-6c3.52-1.21,6.84-2.23,10.49-3C1116.97,400.33,1121.53,400,1126.04,399.76z"/>
		<g>
			<path class="st25" d="M1214.5,389.26c-0.62,1.35-2.03,2.01-3,3c-5.43,1.65-8.67,8.07-12.49,12.24c-2.69,2.93-7.42,2.46-4,7.5
				c-3.34,4.69-10.08,10.71-12.49,13.49c-2,2.31-2.82,4.77-3,5c-1.32,1.63-6.49,1.62,0.5,3.25c3,2.87,3,2.87,6,5.75
				c-0.31,0.42-6.64-0.52-7.5-0.75c-0.34-0.09-5.47-4.64-2.5,0.75c-5.78,7.36-5.29,4.62-5.5,5c-0.39,0.72,1.45,1.65,1.5,1.75
				c0.39,0.83,2.05,4.5,1.25,5c-4.51-0.35-8.49-1.83-8.25-0.5c-0.99-0.4-9.8-1.63-11.99-1.5c-0.26-0.27-0.71-0.71-1-1
				c2.54-0.46,5.96,0.84,6.75,0.5c0.98-0.43,1.98-5.72,2.25-7c1,0.62,1,0.62,2,1.25c0.87-6.08,4.81-10.85,8-15.74
				c13.06-10.43,1.97-2.55-4.75,1c-0.31-3.25,3.9-4.38,2.75-7.5c12.49-8.85,24.97-17.07,36.48-27.24
				C1199.73,392.16,1213.11,389.95,1214.5,389.26z"/>
			<path class="st11" d="M1211.5,392.26c-1.66,1.7-2.96,3.72-4.5,5.5c-7.93,9.14-16.52,17.07-6,14.49
				c21.84,2.65,1.64,7.25-12.24,11.99c0,0.5,0,0.5,0,1c3.62,1.12,3.62,1.12,7.25,2.25c-0.74,0.72-1.45,1.35-2,2.25
				c-1.16,1.89-2.57,3.62-3.75,5.5c-0.48,0.18-9.03-1.22-10.25-1.5c-6.99-1.63-1.82-1.62-0.5-3.25c0.18-0.23,0.99-2.69,3-5
				c2.41-2.78,9.16-8.81,12.49-13.49c-3.42-5.04,1.31-4.57,4-7.5C1202.83,400.33,1206.07,393.91,1211.5,392.26z"/>
			<path class="st25" d="M1178.52,438.74c-1.86-0.61-0.17,3.42,1.5,6.25c-9.64-1.73-2.84,1.33-8,1.25c-0.05-0.1-1.89-1.02-1.5-1.75
				c0.2-0.37-0.29,2.37,5.5-5C1173.05,434.1,1178.17,438.65,1178.52,438.74z"/>
			<path class="st13" d="M1224.49,374.77c-4.81,7.6-5.35,11.92-15.74,9c-11.91,10.7-9.29,2.63-10,2.5c1.72,3.56-8.77,8.59-9.5,8.5
				c-1.66-0.22-1.45-4.28-3-4.5c-1.04-0.15-15.89,9.27-18.24,10.25c0.16,3.88-1.11,7.54-2,11.24c-2.61-1.3-4-2.07-7-2
				c0.89-11.18,3.01-19.68,11.49-27.49c4.69-2.46,7.05-1.7,8.75-4c9.44-1.21,34.82,3.08,40.73-3.75c1.16-1.34,2.52-6.12,3.25-6.25
				C1225.97,367.8,1224.7,373.48,1224.49,374.77z"/>
			<path class="st10" d="M1214.5,389.26c-1.39,0.68-14.77,2.9-9,4.25c-11.52,10.16-23.99,18.39-36.48,27.24
				c-1.95,1.39-3.65,1.36-5.5,4c0.81-4.38,1.45-8.65,2.5-12.99c0.89-3.7,2.16-7.36,2-11.24c2.35-0.97,17.2-10.39,18.24-10.25
				c1.55,0.22,1.34,4.28,3,4.5c0.73,0.1,11.22-4.94,9.5-8.5c0.7,0.13-1.91,8.2,10-2.5c10.39,2.92,10.93-1.39,15.74-9
				C1223.62,380.26,1219.55,386.77,1214.5,389.26z"/>
			<path class="st13" d="M1201,412.25c-10.52,2.58-1.93-5.35,6-14.49C1211.94,408.77,1211.33,404.57,1201,412.25z"/>
			<path class="st26" d="M1171.02,427.25c-4.97,1.19-5.6,6.2-7.5,4.5c-0.01-0.09-0.72-1.43-1-1.5c0.32-1.84,0.66-3.66,1-5.5
				c1.84-2.64,3.54-2.61,5.5-4c1.16,3.12-3.06,4.25-2.75,7.5C1172.99,424.7,1184.08,416.82,1171.02,427.25z"/>
			<path class="st27" d="M1161.02,441.74c0.07-0.33,0.52-0.89,1-4c1.04-2.07,1.84-3.63,1.5-6c1.9,1.71,2.53-3.3,7.5-4.5
				c-3.19,4.89-7.13,9.66-8,15.74C1162.02,442.36,1162.02,442.36,1161.02,441.74z"/>
			<path class="st20" d="M1163.52,431.74c0.34,2.36-0.46,3.93-1.5,6c0.06-0.37-0.69-0.74,0.5-7.5
				C1162.81,430.31,1163.51,431.65,1163.52,431.74z"/>
		</g>
		<path class="st8" d="M1108.05,399.26c-3.55,0.88-6.95,2.4-10.74,2c-0.55,0.19-1.63,1.95-1.75,2c-0.32,0.12-3.56,2.49-6.25,3
			c-16.63,3.14-7.64-17.88,3.5-13.99c14.25-13.9,26.97-7.6,28.49-8c2-0.52-1.95-2.8,3-2.5c11.37,0.68,7.98,5.21,8.5,5.5
			c0.54,0.3,8.5-2.51,9.25,3.25c1.2,9.32-18.75,5.04-23.74,5.75c-0.16,0.02-1.51,1.41-2,1.5
			C1113.57,398.24,1110.74,398.59,1108.05,399.26z"/>
		<path class="st23" d="M1112.55,401.26c-3.66,0.77-6.98,1.79-10.49,3c-1.17-1.81-3.95-0.73-6.5-1c0.12-0.05,1.2-1.81,1.75-2
			c3.79,0.4,7.19-1.12,10.74-2C1110.3,400.26,1110.3,400.26,1112.55,401.26z"/>
		<g>
			<path class="st20" d="M1064.07,475.22c1.3,0.48,2.03,0.84,3.5,1c-0.5,1.5-0.5,1.5-1,3c-2.36,0.24-5.07-0.11-7.5,0
				c-2.31,0.1-4.68,0.01-7,0c-0.17,0-0.33,0-0.5,0c-1.5-1.86,1.02-4.4,2.5-6c0.3-0.33,1.39-1.94,1.5-2c0.26-0.14,1.42,0.33,2.5-0.5
				C1058.63,473.18,1061.97,474.45,1064.07,475.22z"/>
			<path class="st20" d="M1057.07,464.23c0.44,1.34-0.85,1.8-2,2c-6.37,1.08-24.52-8.72-28.99-13.49c-0.3-0.32-2.4-2.83-2.5-3
				c-1.14-1.84-2.1-4.83-2.5-7c5.12,5.5,5.12,5.5,10.25,10.99C1038.82,457.22,1048.45,464.63,1057.07,464.23z"/>
			<path class="st28" d="M1064.57,462.23c1.28,3.12-0.97,1.08-1,3c-3.98,0.83-6.78-0.2-5.5,5.5c-1.08,0.83-2.24,0.36-2.5,0.5
				c-0.25-2.5-0.25-2.5-0.5-5c1.15-0.2,2.44-0.66,2-2C1058.4,464.17,1062.96,462.79,1064.57,462.23z"/>
			<path class="st20" d="M1066.57,464.73c-1.05-0.77-2.11,0.31-3,0.5c0.02-1.92,2.28,0.12,1-3c1.22-0.43,2.4-1.47,3.5-2
				c4.75-2.28,9.03-5.24,13.49-8c0.1-0.06,0.79,0.09,2-1C1078.75,459.22,1067.74,462.88,1066.57,464.73z"/>
			<path class="st10" d="M1081.56,452.23c-4.46,2.76-8.74,5.72-13.49,8c-4.01-3.71-0.29-4.86-0.25-9.5c4.25,0.25,4.25,0.25,8.5,0.5
				c-2,0.5-2,0.5-4,1C1076.94,452.23,1076.94,452.23,1081.56,452.23z"/>
			<g>
				
					<linearGradient id="SVGID_00000050655507600781064210000005969530229826569392_" gradientUnits="userSpaceOnUse" x1="1055.2401" y1="434.9525" x2="1052.1281" y2="449.6188">
					<stop  offset="0" style="stop-color:#E2B5B2"/>
					<stop  offset="1" style="stop-color:#D4897C"/>
				</linearGradient>
				<path style="fill:url(#SVGID_00000050655507600781064210000005969530229826569392_);" d="M1075.06,435.24
					c3.6,1.71,6.97,3.62,10,6.25c0.01,1.58-0.02,3.17,0,4.75c0,0.41,0.66,0.56,0.5,1.75c-0.2,1.48-1.58,2.55-2,3.25
					c-1.21,1.09-1.9,0.94-2,1c-4.62,0-4.62,0-9.25,0c2-0.5,2-0.5,4-1c-4.25-0.25-4.25-0.25-8.5-0.5c-0.04,4.63-3.76,5.79,0.25,9.5
					c-1.1,0.53-2.28,1.57-3.5,2c-1.61,0.56-6.17,1.94-7.5,2c-8.62,0.41-18.26-7-25.74-10.5c-5.12-5.5-5.12-5.5-10.25-10.99
					c-0.2-1.08-0.59-1.17,0-2c1.61-0.11,8.98-4.73,10.99-5.5c3.53-1.34,7.3-2.72,10.99-3.5
					C1055.32,429.16,1063.75,429.86,1075.06,435.24z"/>
				<path class="st12" d="M1064.82,433.24c0.41-0.14,6.67,0.7,5.25,5.25c-1.3,4.17-8.93,0.83-8-2
					C1062.14,436.29,1064.62,433.31,1064.82,433.24z"/>
				<path class="st27" d="M1025.84,444.74c5.98,3.57,9.1,1.07,12.99,1.5c2.72,0.3,5.52,1.36,8.25,1.75
					c-3.17,0.95-7.34-1.21-9.25,2.25C1033.95,449.22,1027.47,448.73,1025.84,444.74z"/>
			</g>
		</g>
		<path class="st15" d="M1006.1,401.76c-3.43,4.13-13.85-2.27-16.99-5.5C997.53,398.15,999.16,399.33,1006.1,401.76z"/>
		<g>
			<g>
				<path class="st17" d="M1012.59,438.74c-0.04,0.03-0.35,0.35-0.5,0.5c-0.56-0.1-1.08,0.2-1.5,0.5c-12.19,1.18-14.43,4.41-25.99-4
					c-0.38-2.22-1.54-4.47,1.25-5.5C1009.19,435.92,1015.34,420.81,1012.59,438.74z"/>
				<path class="st14" d="M1010.6,439.74c0.42-0.3,0.94-0.6,1.5-0.5c-0.37,0.37-4.44,7.03-6,8.5c-2.33,0.6-4.58,1.3-7,1.5
					c-0.03-0.02,0.15-0.12-0.5-0.5c-4.69-2.73-10.68-3.65-13.49-11.49C991.92,445.52,1002.21,445.85,1010.6,439.74z"/>
				<path class="st17" d="M1010.6,439.74c-8.39,6.11-18.67,5.78-25.49-2.5c-0.03-0.07-0.17,0.46-0.5-1.5
					C996.17,444.15,998.41,440.92,1010.6,439.74z"/>
			</g>
			<path class="st17" d="M1018.09,437.24c-0.69,1.56-2.83,4.7-4,6c-0.56,0.62-2.8,3.38-3,3.5c-1.48,0.84-3.57,0.63-5,1
				c1.55-1.47,5.63-8.13,6-8.5c0.15-0.15,0.46-0.46,0.5-0.5C1013.91,437.64,1016.53,436.67,1018.09,437.24z"/>
			<g>
				<path class="st28" d="M1018.59,436.74c-0.01,0.03-0.19-0.21-0.5,0.5c-1.56-0.57-4.18,0.4-5.5,1.5
					c2.75-17.93-3.41-2.82-26.74-8.5c-2.79,1.03-1.63,3.28-1.25,5.5c0.33,1.96,0.47,1.42,0.5,1.5c2.82,7.85,8.8,8.77,13.49,11.49
					c-4.01,0.11-10.08-0.42-13.49-2.5c-0.26-0.16-0.92-0.43-1-0.5c-2.6-2.26-3.01-6.23-3.5-7.5c-2.87-7.4-0.55-8.48-11.49-17.24
					C989.24,403.94,1027.87,412.96,1018.59,436.74z"/>
				<path class="st12" d="M1001.35,417.75c4.42-1.2,4.47,6.17,0,5C999.24,422.19,999.14,418.35,1001.35,417.75z"/>
			</g>
		</g>
		<path class="st30" d="M1090.06,560.68c0.05,1.15-0.13,2.37,0,3.5c-1.25,0.75-1.25,0.75-2.5,1.5c-0.02-0.08-1.13-0.26-1-1.25
			c0.04-0.28,1.85-1.86,3-4.75C1090.22,559.65,1090.03,560.13,1090.06,560.68z"/>
		<g>
			<path class="st25" d="M998.6,448.74c0.65,0.38,0.47,0.48,0.5,0.5c2.17,1.28,4.08,3.1,6.5,4c-0.13,0.12,0.15,1.09,0,1.25
				c-1.02,1.08-5.54,4.1-6,5c-0.28,0.55,0.62,0.86,0.5,1.25c-0.95,3.16-1.31,4.78-1,8.25c-0.26,0.49-1.06,0.14-1.5,0.25
				c-5.73,1.42-25.79-1.2-29.99-7.5c2.41-0.01,5.84-0.22,8.25-0.5c13.71-1.57-2.57-3.41-8.5-7c-9.61-5.81,5.87-3.43,12.74-4.5
				c2.17-0.34,5.56-0.05,5-3.5C988.52,448.31,994.59,448.85,998.6,448.74z"/>
			<path class="st25" d="M984.11,445.74c0.08,0.07,0.74,0.34,1,0.5c0.56,3.45-2.83,3.16-5,3.5c-1.14-2.12-17.8-3.16-12.24-5.5
				C971.25,442.82,980.66,446.05,984.11,445.74z"/>
			<path class="st31" d="M1011.1,446.74c1.83,2.01-4.18,5.19-5.5,6.5c-2.41-0.9-4.33-2.72-6.5-4c2.41-0.2,4.67-0.9,7-1.5
				C1007.53,447.37,1009.62,447.57,1011.1,446.74z"/>
		</g>
		<g>
			<g>
				<path class="st28" d="M1113.55,412.25c7.76,0.19,14.8,3.03,21.49,6.75c-5.34,4.26-10.09,9.3-13.49,15.24
					c-1.62-1.04-2.95,1.39-4.5,2c0.33-1.01,1.69-3.13,1-6c-0.06-0.24-0.46-1.43-0.5-1.5c3.16-2.7,0.21-4.79-1.75-4
					c-1.06,0.43-0.66,1.95-0.75,2c-1.4,0.74-3.01,0.97-4.5,1.5c-8.07,2.86-22,3.09-22.49,4.75c1.15,2.08,0.46,2.14,0.5,2.25
					c-0.62-0.05-0.47,0.48-0.5,0.5c-0.99,0.47-1.21,0.19-2,1.5c-0.05-1.19-4.06-11.98,6-19.49
					C1097.1,413.99,1107.35,412.1,1113.55,412.25z"/>
				<path class="st12" d="M1109.8,417.25c3.46-0.58,3.89,4.22,1.5,5C1107,423.65,1106.59,417.78,1109.8,417.25z"/>
				<path class="st12" d="M1117.54,428.75c-0.09-0.13-2.69-0.2-2.5-2c0.09-0.05-0.31-1.57,0.75-2
					C1117.76,423.96,1120.7,426.05,1117.54,428.75z"/>
			</g>
			<g>
				<path class="st17" d="M1121.54,434.24c0.12,0.62-0.22,1.02-0.5,1.5c-0.29,0.5-1.45,6.52-5,9.5c-2.36,1.98-8.9,3.93-11.99,4
					c-2.29,0.05-7.9-1.07-10-2c-3.79-1.69-6.06-5.03-8-8.5c-0.03-0.5,0.02-1,0-1.5c0.79-1.31,1-1.03,2-1.5c0.34,1.15,0.89,2,1.5,3
					c5.28,8.63,20.97,13.63,24.99,1.5c2.02-1.71,1.4-1.85,1.5-2c0.74-1.12,0.47-0.4,1-2
					C1118.59,435.63,1119.92,433.2,1121.54,434.24z"/>
				<path class="st17" d="M1118.04,430.24c0.7,2.87-0.67,4.99-1,6c-0.53,1.6-0.26,0.88-1,2c-1.09-0.02-1.67,0.95-2.5,1.5
					c-0.31-2.71-2.89,0.3-3.75,0.5c-0.17,0.04-0.75-1.2-1.5-1c-0.26,0.07-1.34,1.98-4.5,2.5c-1.98,0.33-4.45-1.09-5.75-1.5
					c4.09-3.66,3.29,1.92,6.75-0.5c0.38-0.26-1.44-0.95,0-2c0.86-0.63,5.52-0.17,5.75-6.5
					C1115.54,434.89,1113.06,426.9,1118.04,430.24z"/>
				<path class="st9" d="M1114.55,440.24c-4.02,12.13-19.71,7.13-24.99-1.5C1096.03,445.2,1107.32,446.35,1114.55,440.24z"/>
				<path class="st23" d="M1092.56,439.74c6.74,5.09,14.11,4.62,20.99,0c0.82-0.55,1.4-1.51,2.5-1.5c-0.1,0.15,0.52,0.29-1.5,2
					c-7.23,6.11-18.52,4.96-24.99-1.5c-0.61-1-1.16-1.85-1.5-3c0.03-0.02-0.12-0.55,0.5-0.5
					C1089.1,436.75,1091.22,438.73,1092.56,439.74z"/>
				<path class="st17" d="M1110.55,428.25c-1.21,1.73,0.01,2.65,0,3c-0.23,6.32-4.89,5.87-5.75,6.5c-1.44,1.05,0.38,1.74,0,2
					c-3.46,2.42-2.65-3.16-6.75,0.5c-2.89-0.9-5.85-2.46-5.5-0.5c-1.33-1.01-3.45-2.99-4-4.5c-0.04-0.11,0.65-0.16-0.5-2.25
					C1088.55,431.34,1102.48,431.11,1110.55,428.25z"/>
				<path class="st32" d="M1117.54,428.75c0.04,0.07,0.44,1.26,0.5,1.5c-4.99-3.35-2.5,4.64-7.5,1c0.01-0.35-1.21-1.27,0-3
					c1.49-0.53,3.1-0.76,4.5-1.5C1114.85,428.55,1117.46,428.61,1117.54,428.75z"/>
				<path class="st17" d="M1098.05,440.24c1.29,0.41,3.77,1.83,5.75,1.5c3.15-0.52,4.23-2.43,4.5-2.5c0.75-0.2,1.33,1.04,1.5,1
					c0.86-0.2,3.43-3.21,3.75-0.5c-6.88,4.62-14.25,5.09-20.99,0C1092.2,437.78,1095.17,439.34,1098.05,440.24z"/>
			</g>
		</g>
	</g>
</g>
</svg>
